<svg width="404" height="288" viewBox="0 0 404 288" fill="none" xmlns="http://www.w3.org/2000/svg">
<g clip-path="url(#clip0_831_1925)">
<path d="M391.155 84.36H171.129C168.031 84.3629 165.062 85.5944 162.872 87.7844C160.682 89.9745 159.45 92.9439 159.448 96.0411V131.699C159.45 134.796 160.682 137.766 162.872 139.956C165.062 142.146 168.031 143.377 171.129 143.38H391.155C394.252 143.377 397.221 142.146 399.411 139.956C401.601 137.766 402.833 134.796 402.836 131.699V96.0411C402.833 92.9439 401.601 89.9745 399.411 87.7844C397.221 85.5944 394.252 84.3629 391.155 84.36Z" fill="#F2F2F2"/>
<path d="M89.1937 287.878H1.65756C1.47184 287.878 1.2937 287.804 1.16237 287.673C1.03104 287.542 0.957275 287.363 0.957275 287.178C0.957275 286.992 1.03104 286.814 1.16237 286.683C1.2937 286.551 1.47184 286.477 1.65756 286.477H89.1937C89.3794 286.477 89.5575 286.551 89.6888 286.683C89.8202 286.814 89.894 286.992 89.894 287.178C89.894 287.363 89.8202 287.542 89.6888 287.673C89.5575 287.804 89.3794 287.878 89.1937 287.878Z" fill="#3F3D56"/>
<path d="M76.3409 68.6132C75.5291 69.1256 74.8395 69.8098 74.3208 70.6175C73.802 71.4253 73.4666 72.3369 73.3383 73.2883C73.21 74.2397 73.2918 75.2076 73.578 76.124C73.8642 77.0403 74.3479 77.8827 74.9949 78.5919L68.631 92.1814L75.9461 98.0629L84.6636 78.7457C85.7829 77.5798 86.4358 76.0437 86.4983 74.4287C86.5608 72.8136 86.0287 71.2317 85.0028 69.9827C83.977 68.7337 82.5286 67.9045 80.9321 67.6521C79.3357 67.3997 77.7021 67.7417 76.3409 68.6132Z" fill="#FFB8B8"/>
<path d="M39.7706 74.1279C41.7846 72.9181 44.187 72.5299 46.4796 73.0439C48.7721 73.5578 50.7789 74.9344 52.0838 76.8882L65.1055 96.3858L69.6262 86.4197C69.9085 85.7974 70.4085 85.2997 71.0321 85.0204C71.6558 84.7411 72.3601 84.6994 73.0123 84.9031L79.8355 87.0345C80.1919 87.1458 80.5226 87.3273 80.8078 87.5683C81.0931 87.8093 81.3274 88.1049 81.4967 88.4377C81.6661 88.7706 81.7672 89.1339 81.7941 89.5064C81.8211 89.8789 81.7732 90.253 81.6534 90.6067L76.9828 104.398C76.3919 106.143 75.4048 107.727 74.0988 109.026C72.7928 110.325 71.2036 111.303 69.4558 111.885C67.708 112.466 65.8493 112.634 64.0255 112.376C62.2017 112.118 60.4625 111.441 58.9444 110.398C58.235 109.911 57.5805 109.348 56.9924 108.719L37.8027 88.2154C36.8709 87.2198 36.1735 86.0282 35.7617 84.7282C35.3499 83.4281 35.2341 82.0524 35.4228 80.7018C35.6114 79.3512 36.0998 78.0598 36.8521 76.9224C37.6044 75.7849 38.6016 74.8301 39.7706 74.1279Z" fill="#CCCCCC"/>
<path d="M81.8951 53.9819C82.2447 53.9906 82.5764 54.1378 82.8174 54.391C83.0584 54.6443 83.1889 54.983 83.1803 55.3325L83.0679 59.8582L83.2948 59.8789L83.2133 62.9527L82.9917 62.9251L82.589 79.1385C82.5752 79.6934 82.36 80.2243 81.9835 80.6322C81.607 81.0401 81.0949 81.2971 80.5429 81.3552L70.2334 82.4406C69.9824 82.467 69.7286 82.4382 69.4899 82.3562C69.2512 82.2742 69.0333 82.141 68.8516 81.9659C68.6698 81.7908 68.5285 81.578 68.4377 81.3425C68.3469 81.107 68.3086 80.8545 68.3257 80.6027L69.8893 57.516C69.9221 57.0311 70.119 56.5718 70.4474 56.2136C70.7759 55.8554 71.2165 55.6196 71.6968 55.545L81.6492 53.9988C81.7305 53.9855 81.8128 53.9799 81.8951 53.9819Z" fill="#3F3D56"/>
<path d="M73.9164 56.3847L79.1485 55.5719C79.2427 55.5573 79.3294 55.512 79.3953 55.4431C79.4611 55.3742 79.5024 55.2855 79.5128 55.1908C79.5245 55.0835 79.5713 54.983 79.6459 54.905C79.7205 54.827 79.8187 54.7757 79.9253 54.7591L81.0275 54.5879C81.1778 54.5645 81.3315 54.5745 81.4777 54.617C81.6238 54.6595 81.7588 54.7336 81.8732 54.834C81.9875 54.9343 82.0785 55.0586 82.1396 55.198C82.2007 55.3374 82.2305 55.4885 82.2268 55.6406L81.6604 79.1473C81.6533 79.439 81.5392 79.7179 81.3396 79.9308C81.14 80.1436 80.8691 80.2756 80.5784 80.3014L70.2765 81.2173C70.1451 81.229 70.0127 81.2122 69.8884 81.168C69.764 81.1239 69.6507 81.0534 69.5561 80.9614C69.4615 80.8694 69.3879 80.7581 69.3403 80.6351C69.2926 80.5121 69.2721 80.3802 69.2801 80.2485L70.6702 57.3751C70.6906 57.0381 70.8258 56.7182 71.0531 56.4686C71.2804 56.219 71.5863 56.0546 71.92 56.0027L73.0817 55.8223C73.1244 56.0039 73.2341 56.1628 73.3889 56.267C73.5436 56.3713 73.732 56.4134 73.9164 56.3847Z" fill="white"/>
<path d="M49.6428 279.377L57.6485 279.377L61.4559 248.497L49.64 248.498L49.6428 279.377Z" fill="#FFB8B8"/>
<path d="M73.0889 286.81L47.9277 286.812L47.9268 277.091L63.3666 277.089C64.6433 277.089 65.9074 277.34 67.0869 277.829C68.2664 278.317 69.3381 279.033 70.2409 279.936C71.1437 280.839 71.8599 281.91 72.3485 283.09C72.8372 284.269 73.0888 285.533 73.0889 286.81Z" fill="#2F2E41"/>
<path d="M25.0374 279.377L33.0431 279.377L36.8506 248.497L25.0346 248.498L25.0374 279.377Z" fill="#FFB8B8"/>
<path d="M48.4838 286.81L23.3226 286.812L23.3217 277.091L38.7615 277.089C41.3398 277.089 43.8126 278.113 45.6358 279.936C47.4591 281.759 48.4835 284.231 48.4838 286.81Z" fill="#2F2E41"/>
<path d="M48.4837 63.633C57.9829 63.633 65.6836 55.9324 65.6836 46.4332C65.6836 36.934 57.9829 29.2334 48.4837 29.2334C38.9846 29.2334 31.2839 36.934 31.2839 46.4332C31.2839 55.9324 38.9846 63.633 48.4837 63.633Z" fill="#FFB8B8"/>
<path d="M57.3358 92.451C57.1953 88.0289 55.9503 83.7123 53.7145 79.8945C51.4786 76.0768 48.3228 72.8793 44.5348 70.5934C40.0912 67.9749 35.2274 66.9538 31.3578 70.8234C29.0343 73.2052 27.1735 75.9979 25.8703 79.0596C22.2909 87.4026 22.0567 96.8027 25.2163 105.314L34.4261 130.758L55.7424 133.067C56.1428 133.111 56.5478 133.067 56.9299 132.94C57.3119 132.812 57.662 132.604 57.9563 132.329C58.2506 132.054 58.4822 131.719 58.6352 131.347C58.7882 130.974 58.8591 130.573 58.843 130.17L57.3358 92.451Z" fill="#2F2E41"/>
<path d="M35.7778 127.625C35.7778 127.625 19.8522 133.57 24.0159 158.744C27.7522 181.335 24.783 256.316 24.1341 271.472C24.1032 272.195 24.3531 272.901 24.8315 273.443C25.3098 273.986 25.9795 274.322 26.7001 274.381L35.9965 275.156C36.7246 275.216 37.4476 274.99 38.0113 274.525C38.575 274.06 38.9347 273.394 39.0138 272.667L43.8149 228.568C43.8338 228.395 43.9164 228.235 44.0467 228.119C44.177 228.004 44.3456 227.941 44.5196 227.943C44.6937 227.945 44.8607 228.012 44.9882 228.131C45.1156 228.249 45.1943 228.411 45.2089 228.585L48.7865 271.019C48.8468 271.734 49.1791 272.398 49.7149 272.875C50.2507 273.353 50.9492 273.606 51.6663 273.583L59.4747 273.336C59.8427 273.325 60.2047 273.24 60.5401 273.089C60.8756 272.937 61.1779 272.721 61.4297 272.452C61.6814 272.184 61.8778 271.868 62.0076 271.524C62.1373 271.179 62.1978 270.812 62.1857 270.444L57.5861 130.565L35.7778 127.625Z" fill="#2F2E41"/>
<path d="M51.9357 45.3C57.6881 47.6593 65.0341 44.9033 67.8153 39.3427C70.5965 33.782 68.3955 26.251 63.0574 23.0633C57.7194 19.8756 50.0454 21.5096 46.4689 26.5953C43.5596 21.3539 35.938 20.0176 30.7052 22.9423C25.4723 25.8669 22.622 31.9928 22.284 37.9779C21.9459 43.963 23.7655 49.8592 25.9852 55.4278C29.5757 64.4353 41.1346 69.2853 50.0774 65.5367C45.9834 59.4391 46.7916 50.5159 51.9357 45.3Z" fill="#2F2E41"/>
<path d="M75.1161 70.6986C74.963 70.6988 74.814 70.6493 74.6915 70.5575L74.6839 70.5518L73.0847 69.3285C73.0107 69.2717 72.9485 69.2009 72.9018 69.1201C72.8551 69.0393 72.8248 68.9501 72.8126 68.8576C72.8004 68.765 72.8065 68.671 72.8306 68.5808C72.8547 68.4907 72.8964 68.4062 72.9531 68.3321C73.0099 68.258 73.0807 68.1959 73.1615 68.1492C73.2423 68.1025 73.3315 68.0722 73.4241 68.0599C73.5166 68.0477 73.6106 68.0538 73.7008 68.078C73.7909 68.1021 73.8754 68.1437 73.9495 68.2005L74.9853 68.9948L77.433 65.8015C77.4898 65.7275 77.5605 65.6653 77.6413 65.6186C77.7221 65.572 77.8113 65.5416 77.9038 65.5294C77.9962 65.5172 78.0902 65.5233 78.1803 65.5474C78.2705 65.5716 78.3549 65.6132 78.429 65.6699C78.5783 65.7847 78.6767 65.9542 78.7013 66.141C78.7259 66.3277 78.6755 66.5167 78.561 66.6662L75.682 70.4206C75.6154 70.5071 75.5297 70.5771 75.4317 70.6251C75.3337 70.6732 75.2259 70.698 75.1167 70.6977L75.1161 70.6986Z" fill="#9C4DF4"/>
<path d="M391.362 0H171.335C168.238 0.00280547 165.269 1.23439 163.079 3.4244C160.889 5.61441 159.657 8.58389 159.654 11.681V47.3389C159.657 50.436 160.889 53.4055 163.079 55.5955C165.269 57.7855 168.238 59.0171 171.335 59.0199H391.362C394.459 59.0171 397.428 57.7855 399.618 55.5955C401.808 53.4055 403.04 50.436 403.043 47.3389V11.681C403.04 8.58389 401.808 5.6144 399.618 3.42439C397.428 1.23438 394.459 0.00280547 391.362 0ZM401.813 47.3389C401.809 50.1096 400.707 52.7657 398.748 54.7249C396.788 56.684 394.132 57.7864 391.362 57.7903H171.335C168.565 57.7864 165.909 56.684 163.949 54.7249C161.99 52.7657 160.888 50.1096 160.884 47.3389V11.681C160.888 8.91033 161.99 6.25425 163.949 4.29507C165.909 2.33589 168.565 1.2335 171.335 1.22958H391.362C394.132 1.2335 396.788 2.33589 398.748 4.29507C400.707 6.25425 401.809 8.91033 401.813 11.681V47.3389Z" fill="#3F3D56"/>
<path d="M216.111 49.841C212.09 49.841 208.159 48.6486 204.816 46.4147C201.472 44.1807 198.866 41.0055 197.328 37.2905C195.789 33.5755 195.386 29.4876 196.171 25.5438C196.955 21.5999 198.891 17.9773 201.735 15.1339C204.578 12.2906 208.201 10.3542 212.145 9.56975C216.088 8.78526 220.176 9.18788 223.891 10.7267C227.606 12.2655 230.781 14.8713 233.015 18.2148C235.249 21.5582 236.442 25.4889 236.442 29.51C236.436 34.9002 234.292 40.0679 230.48 43.8794C226.669 47.6908 221.501 49.8348 216.111 49.841Z" fill="#796BD4"/>
<path d="M361.341 46.1094H255.666C254.361 46.1094 253.11 45.5912 252.188 44.6688C251.266 43.7465 250.747 42.4955 250.747 41.191C250.747 39.8866 251.266 38.6356 252.188 37.7133C253.11 36.7909 254.361 36.2727 255.666 36.2727H361.341C362.645 36.2727 363.896 36.7909 364.819 37.7133C365.741 38.6356 366.259 39.8866 366.259 41.191C366.259 42.4955 365.741 43.7465 364.819 44.6688C363.896 45.5912 362.645 46.1094 361.341 46.1094Z" fill="#CCCCCC"/>
<path d="M290.64 25.2064H255.666C254.361 25.2064 253.11 24.6882 252.188 23.7659C251.266 22.8435 250.747 21.5925 250.747 20.2881C250.747 18.9837 251.266 17.7327 252.188 16.8103C253.11 15.8879 254.361 15.3698 255.666 15.3698H290.64C291.944 15.3698 293.195 15.8879 294.118 16.8103C295.04 17.7327 295.558 18.9837 295.558 20.2881C295.558 21.5925 295.04 22.8435 294.118 23.7659C293.195 24.6882 291.944 25.2064 290.64 25.2064Z" fill="#CCCCCC"/>
<path d="M215.073 36.6614C214.568 36.6623 214.077 36.4991 213.674 36.1965L213.649 36.1777L208.379 32.1467C208.134 31.9598 207.929 31.7265 207.775 31.4601C207.62 31.1938 207.52 30.8996 207.48 30.5945C207.439 30.2893 207.459 29.9792 207.538 29.6818C207.618 29.3844 207.755 29.1055 207.942 28.8612C208.13 28.6169 208.363 28.4119 208.63 28.258C208.897 28.1041 209.191 28.0042 209.496 27.9642C209.801 27.9241 210.111 27.9446 210.409 28.0245C210.706 28.1044 210.985 28.2421 211.229 28.4298L214.642 31.0472L222.707 20.5249C222.894 20.2809 223.128 20.0762 223.394 19.9224C223.66 19.7686 223.954 19.6687 224.258 19.6284C224.563 19.5882 224.873 19.6083 225.17 19.6878C225.467 19.7672 225.745 19.9044 225.989 20.0914L225.99 20.0919L225.94 20.1614L225.991 20.0919C226.483 20.4702 226.805 21.0282 226.886 21.6436C226.968 22.259 226.801 22.8815 226.424 23.3744L216.937 35.7454C216.718 36.0305 216.436 36.2611 216.113 36.4195C215.79 36.5779 215.434 36.6597 215.075 36.6587L215.073 36.6614Z" fill="white"/>
<path d="M296.823 95.9396H76.7964C73.6992 95.9424 70.7297 97.174 68.5397 99.364C66.3497 101.554 65.1182 104.524 65.1154 107.621V143.279C65.1182 146.376 66.3497 149.345 68.5397 151.535C70.7297 153.725 73.6992 154.957 76.7964 154.96H296.823C299.92 154.957 302.889 153.725 305.079 151.535C307.269 149.345 308.501 146.376 308.504 143.279V107.621C308.501 104.524 307.269 101.554 305.079 99.364C302.889 97.174 299.92 95.9424 296.823 95.9396Z" fill="white"/>
<path d="M296.823 95.9396H76.7964C73.6992 95.9424 70.7297 97.174 68.5397 99.364C66.3497 101.554 65.1182 104.524 65.1154 107.621V143.279C65.1182 146.376 66.3497 149.345 68.5397 151.535C70.7297 153.725 73.6992 154.957 76.7964 154.96H296.823C299.92 154.957 302.889 153.725 305.079 151.535C307.269 149.345 308.501 146.376 308.504 143.279V107.621C308.501 104.524 307.269 101.554 305.079 99.364C302.889 97.174 299.92 95.9424 296.823 95.9396ZM307.274 143.279C307.27 146.049 306.168 148.705 304.209 150.664C302.249 152.624 299.593 153.726 296.823 153.73H76.7964C74.0257 153.726 71.3696 152.624 69.4104 150.664C67.4512 148.705 66.3488 146.049 66.3449 143.279V107.621C66.3488 104.85 67.4512 102.194 69.4104 100.235C71.3696 98.2755 74.0257 97.1731 76.7964 97.1692H296.823C299.593 97.1731 302.249 98.2755 304.209 100.235C306.168 102.194 307.27 104.85 307.274 107.621V143.279Z" fill="#3F3D56"/>
<path d="M121.572 145.78C117.551 145.781 113.62 144.588 110.277 142.354C106.933 140.12 104.327 136.945 102.789 133.23C101.25 129.515 100.847 125.427 101.632 121.483C102.416 117.539 104.352 113.917 107.196 111.073C110.039 108.23 113.662 106.294 117.605 105.509C121.549 104.725 125.637 105.127 129.352 106.666C133.067 108.205 136.242 110.811 138.476 114.154C140.71 117.498 141.903 121.428 141.903 125.45C141.897 130.84 139.753 136.007 135.941 139.819C132.13 143.63 126.962 145.774 121.572 145.78Z" fill="#796BD4"/>
<path d="M266.802 142.049H161.127C159.822 142.049 158.571 141.531 157.649 140.608C156.727 139.686 156.208 138.435 156.208 137.131C156.208 135.826 156.727 134.575 157.649 133.653C158.571 132.73 159.822 132.212 161.127 132.212H266.802C268.106 132.212 269.357 132.73 270.28 133.653C271.202 134.575 271.72 135.826 271.72 137.131C271.72 138.435 271.202 139.686 270.28 140.608C269.357 141.531 268.106 142.049 266.802 142.049Z" fill="#CCCCCC"/>
<path d="M196.101 121.146H161.127C160.481 121.146 159.841 121.019 159.245 120.772C158.648 120.524 158.106 120.162 157.649 119.706C157.192 119.249 156.83 118.707 156.583 118.11C156.336 117.513 156.208 116.874 156.208 116.228C156.208 115.582 156.336 114.942 156.583 114.346C156.83 113.749 157.192 113.207 157.649 112.75C158.106 112.293 158.648 111.931 159.245 111.684C159.841 111.437 160.481 111.309 161.127 111.309H196.101C197.405 111.309 198.656 111.828 199.579 112.75C200.501 113.672 201.019 114.923 201.019 116.228C201.019 117.532 200.501 118.783 199.579 119.706C198.656 120.628 197.405 121.146 196.101 121.146Z" fill="#CCCCCC"/>
<path d="M120.534 132.601C120.029 132.602 119.538 132.439 119.135 132.136L119.11 132.117L113.84 128.086C113.596 127.899 113.39 127.666 113.236 127.4C113.081 127.133 112.981 126.839 112.941 126.534C112.9 126.229 112.92 125.919 112.999 125.621C113.079 125.324 113.216 125.045 113.403 124.801C113.591 124.556 113.824 124.352 114.091 124.198C114.358 124.044 114.652 123.944 114.957 123.904C115.262 123.864 115.572 123.884 115.87 123.964C116.167 124.044 116.446 124.182 116.69 124.369L120.103 126.987L128.168 116.464C128.355 116.221 128.589 116.016 128.855 115.862C129.121 115.708 129.415 115.608 129.719 115.568C130.024 115.528 130.334 115.548 130.631 115.627C130.928 115.707 131.206 115.844 131.45 116.031L131.451 116.031L131.401 116.101L131.452 116.031C131.944 116.41 132.266 116.968 132.347 117.583C132.429 118.199 132.262 118.821 131.885 119.314L122.398 131.685C122.179 131.97 121.897 132.201 121.574 132.359C121.251 132.517 120.896 132.599 120.536 132.598L120.534 132.601Z" fill="white"/>
<path d="M69.6616 103.983C68.7774 103.609 67.822 103.434 66.8626 103.469C65.9033 103.504 64.9634 103.749 64.109 104.187C63.2546 104.625 62.5067 105.245 61.9178 106.003C61.3289 106.761 60.9134 107.639 60.7005 108.575L45.9102 111.109L45.2578 120.472L66.0943 116.601C67.6906 116.854 69.3243 116.513 70.686 115.643C72.0477 114.772 73.0426 113.432 73.4823 111.877C73.922 110.321 73.776 108.659 73.0718 107.204C72.3676 105.749 71.1542 104.603 69.6616 103.983Z" fill="#FFB8B8"/>
<path d="M44.2553 77.1072C46.3984 78.0701 48.0887 79.8208 48.9756 81.9964C49.8625 84.1721 49.878 86.6056 49.0189 88.7923L40.4455 110.615L51.2087 108.636C51.8808 108.513 52.5749 108.639 53.1603 108.992C53.7456 109.344 54.182 109.899 54.3871 110.551L56.5327 117.369C56.6448 117.726 56.6845 118.101 56.6495 118.472C56.6145 118.844 56.5056 119.205 56.329 119.534C56.1524 119.863 55.9118 120.154 55.6214 120.389C55.3309 120.623 54.9965 120.798 54.6377 120.901L40.648 124.941C38.8784 125.452 37.0144 125.545 35.2024 125.215C33.3904 124.884 31.6797 124.138 30.2045 123.035C28.7294 121.932 27.53 120.502 26.7005 118.857C25.871 117.213 25.434 115.398 25.4238 113.556C25.419 112.696 25.5074 111.837 25.6876 110.995L31.5658 83.5344C31.8513 82.2009 32.4314 80.9481 33.2636 79.8678C34.0959 78.7874 35.1593 77.9069 36.3758 77.2907C37.5924 76.6745 38.9314 76.3382 40.2948 76.3065C41.6582 76.2747 43.0114 76.5483 44.2553 77.1072Z" fill="#CCCCCC"/>
</g>
<defs>
<clipPath id="clip0_831_1925">
<rect width="402.085" height="287.878" fill="white" transform="translate(0.957275)"/>
</clipPath>
</defs>
</svg>
