<svg width="15" height="15" viewBox="0 0 15 15" fill="none" xmlns="http://www.w3.org/2000/svg">
<path d="M7.40955 0.541992C3.498 0.541992 0.327148 3.71285 0.327148 7.6244C0.327148 11.5359 3.498 14.7068 7.40955 14.7068C11.3211 14.7068 14.492 11.5359 14.492 7.6244C14.492 3.71285 11.3211 0.541992 7.40955 0.541992ZM8.02111 11.4643V12.4618H7.06698V11.4755C5.50129 11.2611 4.81566 9.97464 4.81566 9.97464L5.79026 9.15939C5.79026 9.15939 6.41254 10.2427 7.5382 10.2427C8.15999 10.2427 8.6317 9.90983 8.6317 9.34115C8.6317 8.0118 5.05005 8.17309 5.05005 5.70687C5.05005 4.63482 5.89795 3.86245 7.06649 3.67971V2.68318H8.02063V3.67971C8.83539 3.78692 9.80024 4.21574 9.80024 5.1382V5.84575H8.53521V5.5027C8.53521 5.14892 8.08446 4.91306 7.58011 4.91306C6.93687 4.91306 6.46565 5.23468 6.46565 5.68495C6.46565 7.04646 10.0473 6.71412 10.0473 9.29827C10.0473 10.3606 9.25398 11.2816 8.02111 11.4643Z" fill="#BFC0C2"/>
</svg>
