<svg width="36" height="20" viewBox="0 0 36 20" fill="none" xmlns="http://www.w3.org/2000/svg">
<rect width="36" height="20" rx="5" fill="#796BD4"/>
<g clip-path="url(#clip0_473_2469)">
<path d="M10.5045 5.4165C10.5039 5.4165 10.5032 5.4165 10.5027 5.4165C10.2984 5.4165 10.1062 5.46075 9.96113 5.54115C9.81444 5.62244 9.73364 5.73069 9.73364 5.84592V12.2849C9.73364 12.521 10.0808 12.7136 10.5075 12.7142C12.3067 12.7166 15.3209 12.9249 17.4004 14.1339V7.39526C17.4004 7.31522 17.3636 7.24002 17.2941 7.1778C15.5874 5.65085 12.3077 5.41885 10.5045 5.4165Z" fill="white"/>
<path d="M26.2672 12.285V5.84592C26.2672 5.73069 26.1864 5.62244 26.0397 5.54115C25.8946 5.46075 25.7024 5.4165 25.4983 5.4165C25.4976 5.4165 25.497 5.4165 25.4964 5.4165C23.6933 5.41889 20.4135 5.65089 18.7068 7.17784C18.6373 7.24007 18.6006 7.31526 18.6006 7.3953V14.1339C20.68 12.9249 23.6943 12.7166 25.4934 12.7142C25.9201 12.7136 26.2672 12.5211 26.2672 12.285Z" fill="white"/>
<path d="M28.0266 6.90137H27.4662V12.2849C27.4662 12.8877 26.582 13.3793 25.4952 13.3808C23.9692 13.3828 21.4529 13.5486 19.6709 14.4856C22.7529 14.0664 26.002 14.3389 27.8536 14.5734C28.0848 14.6026 28.3237 14.5724 28.509 14.4904C28.6935 14.4085 28.7994 14.2862 28.7994 14.155V7.3307C28.7995 7.09397 28.4527 6.90137 28.0266 6.90137Z" fill="white"/>
<path d="M8.53319 12.2849V6.90137H7.97275C7.54672 6.90137 7.19995 7.09397 7.19995 7.3307V14.1548C7.19995 14.2862 7.30584 14.4084 7.49042 14.4902C7.67552 14.5722 7.91421 14.6026 8.14577 14.5732C9.99742 14.3388 13.2465 14.0663 16.3284 14.4855C14.5464 13.5485 12.0302 13.3828 10.5042 13.3808C9.41741 13.3793 8.53319 12.8877 8.53319 12.2849Z" fill="white"/>
</g>
<defs>
<clipPath id="clip0_473_2469">
<rect width="21.6" height="12" fill="white" transform="translate(7.19995 4)"/>
</clipPath>
</defs>
</svg>
