<svg width="29" height="28" viewBox="0 0 29 28" fill="none" xmlns="http://www.w3.org/2000/svg">
<path d="M23.525 4.79199H5.4737C4.23267 4.79199 3.22857 5.80738 3.22857 7.0484L3.21729 20.5869C3.21729 21.8279 4.23267 22.8433 5.4737 22.8433H23.525C24.766 22.8433 25.7814 21.8279 25.7814 20.5869V7.0484C25.7814 5.80738 24.766 4.79199 23.525 4.79199ZM23.0737 9.58687L15.0973 14.5735C14.7363 14.7992 14.2624 14.7992 13.9014 14.5735L5.92498 9.58687C5.81185 9.52336 5.71279 9.43756 5.63378 9.33466C5.55477 9.23176 5.49746 9.1139 5.46532 8.98821C5.43318 8.86252 5.42688 8.73161 5.4468 8.60342C5.46671 8.47522 5.51244 8.3524 5.58119 8.24239C5.64995 8.13237 5.74032 8.03745 5.84682 7.96337C5.95333 7.8893 6.07376 7.8376 6.20082 7.81141C6.32788 7.78522 6.45894 7.78509 6.58606 7.81101C6.71317 7.83694 6.83371 7.88839 6.94037 7.96225L14.4993 12.6894L22.0583 7.96225C22.165 7.88839 22.2855 7.83694 22.4126 7.81101C22.5398 7.78509 22.6708 7.78522 22.7979 7.81141C22.9249 7.8376 23.0454 7.8893 23.1519 7.96337C23.2584 8.03745 23.3487 8.13237 23.4175 8.24239C23.4863 8.3524 23.532 8.47522 23.5519 8.60342C23.5718 8.73161 23.5655 8.86252 23.5334 8.98821C23.5012 9.1139 23.4439 9.23176 23.3649 9.33466C23.2859 9.43756 23.1868 9.52336 23.0737 9.58687Z" fill="black"/>
</svg>
