<svg width="332" height="337" viewBox="0 0 332 337" fill="none" xmlns="http://www.w3.org/2000/svg">
<g clip-path="url(#clip0_633_899)">
<path d="M416 300.9H-84V301.15H416V300.9Z" fill="#EBEBEB"/>
<path d="M231.67 307.71H206.21V307.96H231.67V307.71Z" fill="#EBEBEB"/>
<path d="M371.44 313.12H311.11V313.37H371.44V313.12Z" fill="#EBEBEB"/>
<path d="M200.79 307.83H138.46V308.08H200.79V307.83Z" fill="#EBEBEB"/>
<path d="M98.04 315.31H85V315.56H98.04V315.31Z" fill="#EBEBEB"/>
<path d="M170.09 315.31H110.71V315.56H170.09V315.31Z" fill="#EBEBEB"/>
<path d="M6.90997 311.09H-31.54V311.34H6.90997V311.09Z" fill="#EBEBEB"/>
<path d="M153 256.3H-40.09C-41.6027 256.297 -43.0525 255.695 -44.1212 254.624C-45.1898 253.553 -45.79 252.103 -45.79 250.59V-20.84C-45.7769 -22.344 -45.1708 -23.782 -44.1036 -24.8418C-43.0363 -25.9015 -41.5941 -26.4974 -40.09 -26.5H153C154.514 -26.5 155.967 -25.8984 157.038 -24.8276C158.108 -23.7567 158.71 -22.3044 158.71 -20.79V250.59C158.71 252.104 158.108 253.557 157.038 254.628C155.967 255.698 154.514 256.3 153 256.3ZM-40.09 -26.3C-41.5364 -26.2974 -42.9226 -25.7209 -43.9444 -24.6973C-44.9662 -23.6736 -45.54 -22.2864 -45.54 -20.84V250.59C-45.54 252.036 -44.9662 253.424 -43.9444 254.447C-42.9226 255.471 -41.5364 256.047 -40.09 256.05H153C154.447 256.047 155.834 255.471 156.858 254.448C157.881 253.424 158.457 252.037 158.46 250.59V-20.84C158.457 -22.2873 157.881 -23.6745 156.858 -24.6979C155.834 -25.7213 154.447 -26.2974 153 -26.3H-40.09Z" fill="#EBEBEB"/>
<path d="M369.31 256.3H176.21C174.696 256.297 173.246 255.695 172.175 254.625C171.105 253.554 170.503 252.104 170.5 250.59V-20.84C170.516 -22.3449 171.124 -23.7829 172.193 -24.8424C173.262 -25.9019 174.705 -26.4975 176.21 -26.5H369.31C370.812 -26.4948 372.252 -25.8978 373.317 -24.8383C374.382 -23.7788 374.987 -22.3422 375 -20.84V250.59C375 252.101 374.401 253.55 373.335 254.621C372.268 255.691 370.821 256.295 369.31 256.3ZM176.21 -26.3C174.763 -26.2974 173.375 -25.7213 172.352 -24.6979C171.329 -23.6745 170.753 -22.2873 170.75 -20.84V250.59C170.753 252.037 171.329 253.424 172.352 254.448C173.375 255.471 174.763 256.047 176.21 256.05H369.31C370.757 256.047 372.145 255.471 373.168 254.448C374.191 253.424 374.767 252.037 374.77 250.59V-20.84C374.767 -22.2873 374.191 -23.6745 373.168 -24.6979C372.145 -25.7213 370.757 -26.2974 369.31 -26.3H176.21Z" fill="#EBEBEB"/>
<path d="M111.96 214.17H45.56L41.53 167.67H107.93L111.96 214.17Z" fill="#E6E6E6"/>
<path d="M115.4 214.17H49L44.97 167.67H111.37L115.4 214.17Z" fill="#F0F0F0"/>
<path d="M58.0801 204.18L55.8601 177.65H102.29L104.51 204.18H58.0801Z" fill="#F7F5FA"/>
<path d="M126.89 214.17H119.1V300.9H126.89V214.17Z" fill="#E6E6E6"/>
<path d="M129.35 214.17H123.94V300.9H129.35V214.17Z" fill="#F0F0F0"/>
<path d="M53.9401 223.74H129.35V214.17H53.9401V223.74Z" fill="#F0F0F0"/>
<path d="M56.6001 223.74H48.8101V300.9H56.6001V223.74Z" fill="#E6E6E6"/>
<path d="M59.0599 223.74H53.6499V300.9H59.0599V223.74Z" fill="#F0F0F0"/>
<path d="M1.15011 223.74H-6.63989V300.9H1.15011V223.74Z" fill="#E6E6E6"/>
<path d="M3.60995 223.74H-1.80005V300.9H3.60995V223.74Z" fill="#F0F0F0"/>
<path d="M77.59 223.74H69.8V300.9H77.59V223.74Z" fill="#E6E6E6"/>
<path d="M80.0399 223.74H74.6299V300.9H80.0399V223.74Z" fill="#F0F0F0"/>
<path d="M53.9401 214.17H-6.63989V223.74H53.9401V214.17Z" fill="#E6E6E6"/>
<path d="M279.84 -2.08997H45.51V128.37H279.84V-2.08997Z" fill="#E0E0E0"/>
<path d="M292.71 -2.08997H46.6899V128.37H292.71V-2.08997Z" fill="#F5F5F5"/>
<path d="M288.69 124.35V1.92999L50.7099 1.92999V124.35L288.69 124.35Z" fill="#F7F5FA"/>
<path d="M147.07 124.35L192 1.92999H117.85L72.9199 124.35H147.07Z" fill="#F5F5F5"/>
<path d="M218.44 124.35L263.37 1.92999H207.43L162.5 124.35H218.44Z" fill="#F5F5F5"/>
<path d="M170.45 176.3H150.53V300.9H170.45V176.3Z" fill="#E6E6E6"/>
<path d="M354.11 176.3H165.88V298.31H354.11V176.3Z" fill="#FAFAFA"/>
<path d="M350.55 215.67H169.45V181.21H350.55V215.67ZM170.45 214.67H349.55V182.21H170.45V214.67Z" fill="#E6E6E6"/>
<path d="M318.67 197.94H204.84C199.56 197.94 194.47 193.68 190.84 186.24L190.5 185.53H333L332.66 186.24C329 193.68 324 197.94 318.67 197.94ZM192.14 186.5C195.52 193.13 200.14 196.91 204.84 196.91H318.67C323.39 196.91 327.99 193.13 331.37 186.5H192.14Z" fill="#E6E6E6"/>
<path d="M171.12 300.9H165.88V291.31H176.61L171.12 300.9Z" fill="#FAFAFA"/>
<path d="M350.55 254.5H169.45V220.08H350.55V254.5ZM170.45 253.5H349.55V221.08H170.45V253.5Z" fill="#E6E6E6"/>
<path d="M318.67 236.81H204.84C199.56 236.81 194.47 232.54 190.84 225.11L190.5 224.39H333L332.66 225.11C329 232.5 324 236.81 318.67 236.81ZM192.14 225.39C195.52 232.02 200.14 235.81 204.84 235.81H318.67C323.39 235.81 327.99 232.02 331.37 225.39H192.14Z" fill="#E6E6E6"/>
<path d="M350.55 293.4H169.45V258.94H350.55V293.4ZM170.45 292.4H349.55V259.94H170.45V292.4Z" fill="#E6E6E6"/>
<path d="M318.67 275.67H204.84C199.56 275.67 194.47 271.41 190.84 263.98L190.5 263.26H333L332.66 263.98C329 271.41 324 275.67 318.67 275.67ZM192.14 264.26C195.52 270.89 200.14 274.67 204.84 274.67H318.67C323.39 274.67 327.99 270.89 331.37 264.26H192.14Z" fill="#E6E6E6"/>
<path d="M36.98 192.78V195.2H35.44L34.16 214.17H15.32L14.05 195.2H12.5V192.78H36.98Z" fill="#E6E6E6"/>
<path d="M30.7801 145.71C29.2401 134.41 13.9901 131.19 -5.35992 130.77C-23.7699 130.38 -29.6699 123.87 -29.6699 123.87C-29.6699 123.87 -29.6099 150.24 -3.07993 159.8C22.1101 168.86 32.3301 157.03 30.7801 145.71Z" fill="#E6E6E6"/>
<path d="M21.3799 171.32C21.6999 166.68 29.1199 158.14 46.9699 162.02C59.8699 164.83 64.6699 158.14 64.6699 158.14C64.6699 158.14 63.4699 177.02 44.0699 182.69C25.6399 188.08 20.8099 179.5 21.3799 171.32Z" fill="#E6E6E6"/>
<path d="M25.45 199.9C25.5505 199.901 25.65 199.88 25.7416 199.839C25.8331 199.797 25.9145 199.736 25.98 199.66C27.27 198.13 26.21 194.47 24.75 189.4C22.87 182.9 20.53 174.8 22.51 168.93C23.6075 165.829 24.8898 162.797 26.35 159.85C29.15 153.93 31.57 148.85 29.55 143.47C29.5185 143.384 29.4703 143.306 29.4083 143.239C29.3463 143.172 29.2716 143.118 29.1886 143.08C29.1056 143.043 29.0159 143.022 28.9248 143.019C28.8336 143.016 28.7428 143.031 28.6575 143.063C28.5722 143.096 28.4943 143.145 28.428 143.207C28.3618 143.27 28.3087 143.345 28.2717 143.429C28.2348 143.512 28.2147 143.602 28.2127 143.693C28.2107 143.784 28.2268 143.875 28.26 143.96C30.07 148.75 27.88 153.39 25.1 159.27C23.6213 162.265 22.319 165.343 21.2 168.49C19.09 174.77 21.49 183.1 23.42 189.78C24.56 193.78 25.74 197.78 24.93 198.78C24.8657 198.849 24.8165 198.931 24.7855 199.02C24.7545 199.109 24.7423 199.204 24.7499 199.298C24.7574 199.392 24.7844 199.483 24.8292 199.566C24.874 199.649 24.9356 199.722 25.01 199.78C25.1378 199.871 25.2938 199.914 25.45 199.9Z" fill="#E6E6E6"/>
<path d="M166 346.06C273.083 346.06 359.89 340.992 359.89 334.74C359.89 328.488 273.083 323.42 166 323.42C58.9176 323.42 -27.8899 328.488 -27.8899 334.74C-27.8899 340.992 58.9176 346.06 166 346.06Z" fill="#F5F5F5"/>
<path d="M165.96 279.55H23.9599L16.1899 51.1799H158.19L165.96 279.55Z" fill="url(#paint0_linear_633_899)"/>
<path d="M173.05 272.46H31.05L23.27 44.09H165.27L173.05 272.46Z" fill="url(#paint1_linear_633_899)"/>
<path opacity="0.3" d="M173.05 272.46H31.05L23.27 44.09H165.27L173.05 272.46Z" fill="#F7F5FA"/>
<path d="M125.473 138.064C140.677 122.597 140.03 97.3071 124.028 81.5763C108.026 65.8456 82.7279 65.6314 67.5237 81.0979C52.3196 96.5644 52.9664 121.855 68.9685 137.585C84.9706 153.316 110.268 153.53 125.473 138.064Z" fill="url(#paint2_linear_633_899)"/>
<path d="M129.47 109.59C129.675 115.032 128.487 120.435 126.02 125.29C123.357 130.522 119.29 134.908 114.273 137.956C109.257 141.005 103.49 142.596 97.62 142.55C91.6121 142.518 85.7183 140.906 80.53 137.876C75.3416 134.847 71.0412 130.506 68.06 125.29C65.2804 120.51 63.7275 115.116 63.54 109.59C63.3556 105.305 64.0442 101.027 65.5641 97.0168C67.0839 93.0062 69.4033 89.3465 72.3813 86.26C75.3593 83.1736 78.9336 80.7247 82.8873 79.0624C86.8409 77.4001 91.0913 76.5589 95.38 76.5899C104.215 76.6525 112.687 80.1161 119.035 86.2614C125.384 92.4067 129.121 100.761 129.47 109.59Z" fill="#F7F5FA"/>
<path opacity="0.6" d="M126 125.29C123.337 130.522 119.27 134.908 114.253 137.956C109.237 141.005 103.47 142.596 97.6001 142.55C91.5921 142.518 85.6983 140.906 80.51 137.876C75.3216 134.847 71.0212 130.506 68.04 125.29C76.4972 119.524 86.5044 116.459 96.7401 116.5C107.141 116.522 117.309 119.577 126 125.29Z" fill="url(#paint3_linear_633_899)"/>
<path opacity="0.6" d="M106.772 108.768C112.363 103.08 112.125 93.781 106.241 87.9966C100.356 82.2123 91.0542 82.1336 85.4635 87.8208C79.8728 93.508 80.1106 102.807 85.9947 108.592C91.8788 114.376 101.181 114.455 106.772 108.768Z" fill="url(#paint4_linear_633_899)"/>
<path d="M144.52 189.76H53.9398L53.3298 171.76H143.91L144.52 189.76Z" fill="#F7F5FA"/>
<path d="M145.62 221.93H55.0299L54.4199 203.93H145.01L145.62 221.93Z" fill="#F7F5FA"/>
<path d="M110.66 206.41L88.8298 209.41C88.6215 209.434 88.4204 209.5 88.2391 209.605C88.0578 209.711 87.9002 209.852 87.7762 210.021C87.6522 210.19 87.5646 210.383 87.5187 210.588C87.4729 210.792 87.4698 211.004 87.5098 211.21L90.3798 225.84C90.4737 226.269 90.7249 226.648 91.0839 226.902C91.4429 227.155 91.8838 227.265 92.3198 227.21L114.15 224.21C114.358 224.184 114.558 224.115 114.738 224.008C114.918 223.901 115.075 223.759 115.197 223.589C115.32 223.419 115.407 223.226 115.452 223.022C115.497 222.817 115.5 222.606 115.46 222.4L112.6 207.77C112.506 207.341 112.254 206.964 111.895 206.712C111.536 206.46 111.095 206.352 110.66 206.41ZM104.39 221.23L100.39 221.76L99.9998 217.04C99.5877 216.862 99.2244 216.587 98.9407 216.239C98.657 215.891 98.4612 215.48 98.3698 215.04C98.2963 214.699 98.2952 214.347 98.3663 214.006C98.4375 213.665 98.5795 213.343 98.7831 213.06C98.9867 212.777 99.2473 212.54 99.5482 212.365C99.8491 212.189 100.184 212.078 100.53 212.04C101.24 211.949 101.959 212.127 102.544 212.54C103.129 212.953 103.538 213.57 103.69 214.27C103.776 214.693 103.75 215.131 103.613 215.54C103.476 215.949 103.233 216.315 102.91 216.6L104.39 221.23Z" fill="url(#paint5_linear_633_899)"/>
<path d="M108.5 205.62C108.114 205.669 107.724 205.572 107.405 205.348C107.087 205.125 106.864 204.79 106.78 204.41L106.5 202.98C106.1 201.029 105.006 199.288 103.421 198.082C101.836 196.876 99.8673 196.285 97.8799 196.42C96.877 196.477 95.8981 196.749 95.0098 197.219C94.1215 197.688 93.3446 198.342 92.7318 199.138C92.1189 199.934 91.6846 200.853 91.4582 201.831C91.2318 202.81 91.2188 203.826 91.4199 204.81L91.7399 206.46C91.7771 206.643 91.7758 206.831 91.736 207.014C91.6961 207.196 91.6187 207.368 91.5085 207.519C91.3984 207.669 91.258 207.795 91.0964 207.888C90.9347 207.982 90.7554 208.04 90.5699 208.06C90.1832 208.114 89.7905 208.019 89.4712 207.794C89.1519 207.57 88.9298 207.232 88.8499 206.85L88.5799 205.46C88.3053 204.161 88.2962 202.82 88.5531 201.517C88.81 200.214 89.3277 198.977 90.0749 197.88C90.8222 196.782 91.7837 195.847 92.9015 195.13C94.0194 194.414 95.2706 193.931 96.5799 193.71C99.4188 193.233 102.332 193.868 104.716 195.482C107.099 197.097 108.769 199.567 109.38 202.38L109.7 204.02C109.737 204.205 109.735 204.396 109.693 204.58C109.652 204.764 109.572 204.938 109.458 205.089C109.345 205.24 109.201 205.365 109.036 205.457C108.871 205.548 108.688 205.604 108.5 205.62Z" fill="url(#paint6_linear_633_899)"/>
<path d="M130.67 247.14H71.7001L71.3101 235.42H130.27L130.67 247.14Z" fill="url(#paint7_linear_633_899)"/>
<path d="M102.22 180.76C102.237 181.187 102.168 181.614 102.016 182.014C101.864 182.414 101.632 182.779 101.335 183.086C101.037 183.394 100.681 183.638 100.286 183.803C99.8917 183.969 99.4677 184.053 99.0399 184.05C98.1581 184.043 97.3127 183.698 96.6781 183.086C96.0435 182.473 95.6683 181.641 95.6299 180.76C95.6123 180.332 95.6816 179.906 95.8338 179.506C95.986 179.106 96.2177 178.741 96.5151 178.434C96.8124 178.126 97.1691 177.882 97.5636 177.716C97.9581 177.551 98.382 177.467 98.8099 177.47C99.6924 177.474 100.539 177.819 101.174 178.431C101.809 179.044 102.184 179.878 102.22 180.76Z" fill="#263238"/>
<path d="M87.9999 180.76C88.019 181.188 87.9506 181.615 87.799 182.015C87.6473 182.416 87.4156 182.781 87.118 183.089C86.8203 183.397 86.463 183.641 86.0679 183.806C85.6728 183.972 85.2482 184.054 84.8199 184.05C83.9392 184.043 83.0949 183.697 82.4619 183.085C81.8289 182.472 81.4558 181.64 81.4199 180.76C81.4023 180.332 81.4717 179.906 81.6238 179.506C81.776 179.106 82.0078 178.741 82.3051 178.434C82.6025 178.126 82.9592 177.882 83.3536 177.716C83.7481 177.551 84.1721 177.467 84.5999 177.47C85.4814 177.474 86.3271 177.819 86.9606 178.432C87.5941 179.045 87.9664 179.879 87.9999 180.76Z" fill="#263238"/>
<path d="M73.87 180.76C73.8876 181.187 73.8183 181.614 73.6661 182.014C73.514 182.414 73.2822 182.779 72.9848 183.086C72.6875 183.394 72.3308 183.638 71.9363 183.803C71.5419 183.969 71.1179 184.053 70.69 184.05C69.8085 184.045 68.9628 183.701 68.3294 183.088C67.6959 182.475 67.3235 181.641 67.29 180.76C67.2724 180.332 67.3418 179.906 67.494 179.506C67.6461 179.106 67.8779 178.741 68.1752 178.434C68.4726 178.126 68.8293 177.882 69.2238 177.716C69.6182 177.551 70.0422 177.467 70.47 177.47C71.3515 177.474 72.1972 177.819 72.8307 178.432C73.4642 179.045 73.8365 179.879 73.87 180.76Z" fill="#263238"/>
<path d="M116.39 180.76C116.408 181.187 116.338 181.614 116.186 182.014C116.034 182.414 115.802 182.779 115.505 183.086C115.207 183.394 114.851 183.638 114.456 183.804C114.062 183.969 113.638 184.053 113.21 184.05C112.329 184.045 111.483 183.701 110.849 183.088C110.216 182.475 109.844 181.641 109.81 180.76C109.795 180.334 109.867 179.909 110.021 179.511C110.175 179.114 110.408 178.751 110.707 178.447C111.005 178.142 111.362 177.901 111.756 177.738C112.15 177.575 112.574 177.494 113 177.5C113.875 177.507 114.714 177.848 115.344 178.455C115.975 179.061 116.349 179.886 116.39 180.76Z" fill="#263238"/>
<path d="M130.56 180.76C130.579 181.188 130.511 181.615 130.359 182.015C130.207 182.416 129.976 182.781 129.678 183.089C129.38 183.397 129.023 183.641 128.628 183.806C128.233 183.972 127.808 184.054 127.38 184.05C126.499 184.043 125.655 183.697 125.022 183.085C124.389 182.472 124.016 181.64 123.98 180.76C123.962 180.332 124.032 179.906 124.184 179.506C124.336 179.106 124.568 178.741 124.865 178.434C125.163 178.126 125.519 177.882 125.914 177.716C126.308 177.551 126.732 177.467 127.16 177.47C128.041 177.474 128.887 177.819 129.521 178.432C130.154 179.045 130.526 179.879 130.56 180.76Z" fill="#263238"/>
<path d="M249.91 92.78C251.24 94.92 252.35 96.96 253.49 99.09C254.63 101.22 255.66 103.36 256.67 105.55C258.731 109.984 260.436 114.576 261.77 119.28C261.95 119.87 262.08 120.5 262.23 121.11L262.45 122.04L262.56 122.5L262.69 123.26C262.916 124.984 262.81 126.735 262.38 128.42C261.69 131.036 260.64 133.543 259.26 135.87C256.792 140.099 253.809 144.005 250.38 147.5L246.17 144.32C248.283 140.435 250.163 136.428 251.8 132.32C252.529 130.51 253.043 128.62 253.33 126.69C253.422 126.101 253.395 125.499 253.25 124.92L252.85 123.7C252.69 123.2 252.54 122.7 252.35 122.19C250.829 118.065 249.069 114.031 247.08 110.11C245.08 106.11 242.93 102.11 240.78 98.29L249.91 92.78Z" fill="#796BD4"/>
<path d="M247.24 142.93L242.64 145.36L247.92 151.54C247.92 151.54 251.22 149.31 251.37 145.91L247.24 142.93Z" fill="#796BD4"/>
<path d="M236.47 149.17L242.12 153.66L247.92 151.54L242.64 145.36L236.47 149.17Z" fill="#796BD4"/>
<path d="M217.15 60.06C217.04 60.62 216.65 61.01 216.29 60.94C215.93 60.87 215.72 60.35 215.83 59.8C215.94 59.25 216.33 58.8 216.7 58.92C217.07 59.04 217.26 59.5 217.15 60.06Z" fill="#263238"/>
<path d="M216.7 61.02C215.693 62.5864 214.475 64.0064 213.08 65.24C213.409 65.5814 213.809 65.8475 214.251 66.0201C214.693 66.1927 215.167 66.2678 215.64 66.24L216.7 61.02Z" fill="#FF5652"/>
<path d="M214.9 80.64V74.08L223.58 75.08C223.58 75.08 223.44 80.72 218.58 82.38L214.9 80.64Z" fill="#796BD4"/>
<path d="M217.4 69.36L223.51 71.12L223.62 75.13L214.94 74.08L217.4 69.36Z" fill="#796BD4"/>
<path opacity="0.2" d="M223.51 71.12L217.4 69.36L216.21 71.64C216.275 73.4365 216.836 75.1799 217.832 76.6768C218.827 78.1737 220.218 79.3655 221.85 80.12C222.9 78.6536 223.513 76.9202 223.62 75.12L223.51 71.12Z" fill="black"/>
<path d="M219.81 57.39C219.874 57.3883 219.937 57.3684 219.99 57.3328C220.043 57.2972 220.085 57.2473 220.111 57.1887C220.138 57.1301 220.147 57.0654 220.138 57.0019C220.128 56.9385 220.102 56.8788 220.06 56.83C219.709 56.4333 219.268 56.1265 218.774 55.9351C218.28 55.7437 217.747 55.6734 217.22 55.73C217.134 55.7447 217.057 55.7929 217.007 55.8641C216.956 55.9354 216.936 56.0238 216.95 56.11C216.965 56.1968 217.013 56.2744 217.084 56.3267C217.154 56.3789 217.243 56.4016 217.33 56.39C217.747 56.349 218.168 56.4084 218.558 56.5633C218.948 56.7181 219.295 56.9638 219.57 57.28C219.601 57.3134 219.638 57.3403 219.679 57.3592C219.72 57.3781 219.765 57.3886 219.81 57.39Z" fill="#263238"/>
<path d="M232.59 70.18C231.59 75.33 230.97 82.46 234.59 85.89C234.59 85.89 233.19 91.11 223.59 91.11C213.08 91.11 218.54 86.53 218.54 86.53C222.91 85.17 222.87 80.2 221.87 76.2L232.59 70.18Z" fill="#796BD4"/>
<path d="M236.54 89.33C237.48 88.01 237.44 83.82 236.44 83.08C234.83 81.89 227.92 81.61 218.63 83.75C219.63 87.81 217.48 89.93 217.48 89.93L236.54 89.33Z" fill="url(#paint8_linear_633_899)"/>
<path d="M267.8 326.74C267.515 326.84 267.212 326.883 266.91 326.866C266.608 326.849 266.312 326.772 266.04 326.64C265.937 326.544 265.866 326.418 265.837 326.28C265.809 326.143 265.824 325.999 265.88 325.87C265.912 325.762 265.966 325.662 266.041 325.577C266.115 325.493 266.207 325.425 266.31 325.38C267.26 324.92 269.44 325.81 269.54 325.85C269.57 325.862 269.595 325.883 269.613 325.91C269.631 325.936 269.64 325.968 269.64 326C269.64 326.032 269.631 326.064 269.616 326.092C269.6 326.12 269.577 326.143 269.55 326.16C268.986 326.408 268.4 326.602 267.8 326.74ZM266.65 325.61C266.584 325.626 266.52 325.649 266.46 325.68C266.398 325.703 266.342 325.74 266.296 325.789C266.251 325.837 266.218 325.896 266.2 325.96C266.11 326.26 266.2 326.36 266.26 326.39C266.64 326.71 268.04 326.39 269.03 326.02C268.277 325.708 267.464 325.568 266.65 325.61Z" fill="url(#paint9_linear_633_899)"/>
<path d="M269.51 326.17H269.43C268.63 325.94 266.93 324.73 266.91 323.94C266.909 323.814 266.952 323.692 267.03 323.594C267.108 323.496 267.218 323.427 267.34 323.4C267.459 323.356 267.586 323.338 267.712 323.348C267.838 323.359 267.96 323.397 268.07 323.46C269.01 323.94 269.61 325.88 269.63 325.97C269.644 325.994 269.652 326.022 269.652 326.05C269.652 326.078 269.644 326.106 269.63 326.13C269.615 326.146 269.596 326.157 269.575 326.164C269.554 326.171 269.532 326.173 269.51 326.17ZM267.51 323.68H267.43C267.23 323.75 267.23 323.85 267.23 323.9C267.23 324.37 268.37 325.32 269.23 325.7C269.02 325.14 268.56 324.03 267.95 323.7C267.815 323.638 267.661 323.631 267.52 323.68H267.51Z" fill="url(#paint10_linear_633_899)"/>
<path d="M215.86 327.92C214.96 327.92 214.09 327.79 213.8 327.39C213.724 327.283 213.684 327.156 213.684 327.025C213.684 326.894 213.724 326.767 213.8 326.66C213.857 326.562 213.934 326.477 214.025 326.41C214.116 326.343 214.22 326.295 214.33 326.27C215.5 325.95 217.96 327.35 218.06 327.41C218.091 327.425 218.115 327.45 218.13 327.481C218.145 327.512 218.148 327.547 218.14 327.58C218.136 327.614 218.122 327.646 218.098 327.672C218.075 327.697 218.044 327.714 218.01 327.72C217.301 327.85 216.581 327.917 215.86 327.92ZM214.75 326.55C214.644 326.533 214.536 326.533 214.43 326.55C214.362 326.564 214.298 326.592 214.241 326.631C214.185 326.671 214.137 326.721 214.1 326.78C213.98 326.99 214.03 327.09 214.1 327.15C214.43 327.61 216.2 327.62 217.51 327.43C216.655 326.963 215.718 326.664 214.75 326.55Z" fill="url(#paint11_linear_633_899)"/>
<path d="M218 327.72H217.93C217.08 327.34 215.4 325.82 215.53 325.02C215.53 324.83 215.69 324.6 216.15 324.56C216.314 324.541 216.481 324.556 216.639 324.604C216.798 324.652 216.944 324.732 217.07 324.84C217.711 325.606 218.096 326.554 218.17 327.55C218.17 327.579 218.163 327.607 218.151 327.633C218.139 327.658 218.122 327.681 218.1 327.7C218.069 327.716 218.035 327.723 218 327.72ZM216.28 324.87H216.18C215.88 324.87 215.86 325.01 215.86 325.05C215.78 325.53 216.92 326.73 217.79 327.25C217.714 326.447 217.389 325.689 216.86 325.08C216.696 324.94 216.486 324.865 216.27 324.87H216.28Z" fill="url(#paint12_linear_633_899)"/>
<path d="M225.72 327.56H218.69L217.99 311.27H225.02L225.72 327.56Z" fill="#796BD4"/>
<path d="M277.35 324.3L270.48 325.79L263.57 310.62L270.45 309.13L277.35 324.3Z" fill="#796BD4"/>
<path d="M269.81 325.1L277.54 323.43C277.675 323.401 277.816 323.419 277.939 323.481C278.063 323.543 278.162 323.645 278.22 323.77L280.9 329.59C280.971 329.731 281.008 329.887 281.008 330.045C281.007 330.203 280.969 330.358 280.897 330.499C280.825 330.639 280.721 330.761 280.592 330.853C280.464 330.945 280.316 331.006 280.16 331.03C277.46 331.56 276.11 331.69 272.72 332.42C270.63 332.88 265.91 334.03 263.02 334.65C260.13 335.27 259.14 332.5 260.27 331.99C265.32 329.68 267.42 327.65 268.79 325.76C269.038 325.423 269.401 325.188 269.81 325.1Z" fill="#263238"/>
<path d="M218.74 326.74H226.42C226.559 326.741 226.694 326.789 226.803 326.876C226.912 326.963 226.989 327.084 227.02 327.22L228.41 333.47C228.451 333.621 228.456 333.78 228.424 333.933C228.392 334.086 228.325 334.23 228.228 334.352C228.131 334.475 228.006 334.573 227.864 334.638C227.722 334.704 227.566 334.735 227.41 334.73C224.64 334.68 220.64 334.52 217.16 334.52C213.08 334.52 209.57 334.74 204.79 334.74C201.9 334.74 201.1 331.82 202.31 331.55C207.81 330.35 212.31 330.22 217.06 327.29C217.559 326.956 218.14 326.766 218.74 326.74Z" fill="#263238"/>
<path d="M247.17 87.4999C253.76 89.0099 259.17 105.84 259.17 105.84L246 115.91C242.582 112.255 240.17 107.776 239 102.91C236.67 94.09 240.43 85.9399 247.17 87.4999Z" fill="url(#paint13_linear_633_899)"/>
<path opacity="0.4" d="M247.17 87.4999C253.76 89.0099 259.17 105.84 259.17 105.84L246 115.91C242.582 112.255 240.17 107.776 239 102.91C236.67 94.09 240.43 85.9399 247.17 87.4999Z" fill="black"/>
<path d="M212.5 107.57C210.86 109.34 209.22 110.92 207.5 112.57C206.65 113.37 205.79 114.17 204.91 114.94L203.58 116.11L203.25 116.4L202.68 116.86C202.093 117.329 201.444 117.712 200.75 118C199.978 118.328 199.149 118.498 198.31 118.5C197.594 118.503 196.882 118.378 196.21 118.13C195.465 117.846 194.784 117.414 194.21 116.86C193.478 116.144 192.94 115.252 192.65 114.27C192.498 113.786 192.401 113.286 192.36 112.78C192.308 112.188 192.308 111.592 192.36 111C192.41 110.52 192.47 110.1 192.55 109.71C192.824 108.346 193.212 107.008 193.71 105.71C194.16 104.476 194.677 103.267 195.26 102.09C195.9 100.82 196.51 99.89 197.12 98.83C199.598 94.7712 202.425 90.9366 205.57 87.37C208.683 83.8244 212.114 80.5708 215.82 77.65L219.5 81.44C216.92 84.9 214.38 88.61 212.03 92.26C209.691 95.8893 207.555 99.645 205.63 103.51C205.2 104.45 204.63 105.51 204.36 106.27C204.002 107.153 203.692 108.054 203.43 108.97C203.178 109.795 202.988 110.637 202.86 111.49C202.853 111.623 202.853 111.757 202.86 111.89C202.86 111.97 202.86 112.01 202.86 111.8C202.844 111.576 202.8 111.354 202.73 111.14C202.514 110.431 202.118 109.79 201.58 109.28C201.102 108.841 200.541 108.501 199.93 108.28C199.393 108.077 198.824 107.972 198.25 107.97C197.698 107.963 197.15 108.069 196.64 108.28C196.467 108.351 196.3 108.434 196.14 108.53L196.52 108.18L197.73 107.08L200.12 104.84C201.7 103.35 203.29 101.76 204.79 100.28L212.5 107.57Z" fill="#796BD4"/>
<path opacity="0.2" d="M241.52 99.86C245.1 103.4 246.27 109.86 246.52 115.46L245.94 115.91C242.522 112.255 240.11 107.776 238.94 102.91C238.81 102.39 238.69 101.91 238.6 101.34L241.52 99.86Z" fill="black"/>
<path d="M205.51 94.5C204.07 102.1 203.17 117.71 207.34 148.61H245C245.26 142.84 241.63 114.66 247.2 87.45C243.039 86.6509 238.83 86.1198 234.6 85.86C229.271 85.5544 223.929 85.5544 218.6 85.86C216.84 86.02 215.1 86.28 213.6 86.55C211.605 86.9 209.764 87.8475 208.319 89.2671C206.874 90.6867 205.895 92.5115 205.51 94.5Z" fill="url(#paint14_linear_633_899)"/>
<path opacity="0.4" d="M205.51 94.5C204.07 102.1 203.17 117.71 207.34 148.61H245C245.26 142.84 241.63 114.66 247.2 87.45C243.039 86.6509 238.83 86.1198 234.6 85.86C229.271 85.5544 223.929 85.5544 218.6 85.86C216.84 86.02 215.1 86.28 213.6 86.55C211.605 86.9 209.764 87.8475 208.319 89.2671C206.874 90.6867 205.895 92.5115 205.51 94.5Z" fill="black"/>
<path opacity="0.2" d="M211.27 105.77L204.47 104.14C204.26 108.26 204.24 113.36 204.54 119.67C207.67 116.11 211.67 110.55 211.27 105.77Z" fill="black"/>
<path opacity="0.2" d="M217.99 311.27L218.35 319.67H225.39L225.03 311.27H217.99Z" fill="black"/>
<path opacity="0.2" d="M270.45 309.13L263.57 310.62L267.13 318.44L274.01 316.95L270.45 309.13Z" fill="black"/>
<path d="M235.93 62.66C234.13 69.4 233.41 73.44 229.25 76.24C223 80.5 215.2 75.62 215 68.5C214.78 62.07 217.77 52.12 225 50.76C226.589 50.4618 228.227 50.5731 229.761 51.0834C231.295 51.5937 232.674 52.4862 233.767 53.6768C234.861 54.8674 235.633 56.3168 236.012 57.8884C236.39 59.4601 236.362 61.1022 235.93 62.66Z" fill="#796BD4"/>
<path d="M220.15 62.91C219.81 62.01 218.26 55.04 219.72 53.23C221.18 51.42 237.83 52.73 240.29 55.15C244.38 59.15 241.54 62.75 237.07 67.38C233.71 70.86 233.58 74.78 231.88 75.38C228.88 76.38 224.3 75.44 223.38 72.27C222.46 69.1 220.15 62.91 220.15 62.91Z" fill="#263238"/>
<path d="M238.27 47.22C232.39 44.72 221.36 47.49 215.4 46.05C215.324 48.2661 216.053 50.4349 217.452 52.1554C218.851 53.876 220.825 55.0321 223.01 55.41C227.954 56.3522 232.977 56.8177 238.01 56.8C244.55 56.5 243.27 49.35 238.27 47.22Z" fill="#263238"/>
<path d="M239.19 55.36C241.338 55.5713 243.501 55.1581 245.42 54.17C246.52 56.83 240.47 57.56 239.19 55.36Z" fill="#263238"/>
<path d="M223.35 63.19C223.215 64.9242 222.512 66.5656 221.35 67.86C219.81 69.55 218.21 68.49 217.94 66.44C217.7 64.58 218.2 61.44 220.08 60.54C221.96 59.64 223.48 61.1 223.35 63.19Z" fill="#796BD4"/>
<path d="M220.69 148.64C220.69 148.64 228.69 202.39 233.06 222.53C237.85 244.58 263.59 317.53 263.59 317.53L276.18 314.8C276.18 314.8 258.18 255.34 254.18 224.51C251.08 200.83 244.99 148.62 244.99 148.62L220.69 148.64Z" fill="url(#paint15_linear_633_899)"/>
<path d="M260.57 313.34C260.52 313.34 262.92 317.9 262.92 317.9L277.08 314.83L275.89 310.57L260.57 313.34Z" fill="#263238"/>
<path opacity="0.3" d="M225.74 167.79C234.97 169.6 233.99 204.02 232.88 221.73C230.22 209.21 226.32 185.13 223.66 168.04C224.305 167.722 225.039 167.634 225.74 167.79Z" fill="black"/>
<path d="M207.34 148.64C207.34 148.64 206.34 201.23 207.14 222.64C207.94 244.95 215.73 318 215.73 318H227.65C227.65 318 228.08 246.25 228.65 224.34C229.23 200.46 232.11 148.6 232.11 148.6L207.34 148.64Z" fill="url(#paint16_linear_633_899)"/>
<path d="M213.44 313.3C213.38 313.3 214.11 318.24 214.11 318.24H228.6L229 313.83L213.44 313.3Z" fill="#263238"/>
<path d="M220.25 96.84C223.62 105.93 203.81 116.64 203.81 116.64L195.23 105.64C195.23 105.64 201 94.22 208 89.08C216.65 82.74 217.68 89.92 220.25 96.84Z" fill="url(#paint17_linear_633_899)"/>
<path opacity="0.4" d="M220.25 96.84C223.62 105.93 203.81 116.64 203.81 116.64L195.23 105.64C195.23 105.64 201 94.22 208 89.08C216.65 82.74 217.68 89.92 220.25 96.84Z" fill="black"/>
<path d="M297.87 27.83C317.802 27.83 333.96 17.5326 333.96 4.83002C333.96 -7.87253 317.802 -18.17 297.87 -18.17C277.938 -18.17 261.78 -7.87253 261.78 4.83002C261.78 17.5326 277.938 27.83 297.87 27.83Z" fill="url(#paint18_linear_633_899)"/>
<path d="M284.85 16.41C282.472 16.4023 280.174 15.557 278.358 14.0226C276.542 12.4882 275.324 10.3629 274.92 8.02001C274.522 5.48228 275.095 2.88781 276.523 0.753076C277.952 -1.38166 280.132 -2.9001 282.63 -3.49998C284.68 -3.97228 286.826 -3.79024 288.767 -2.97947C290.707 -2.16869 292.345 -0.769971 293.45 1.02001L316.62 -3.75999C317.51 -3.955 318.442 -3.80692 319.228 -3.34533C320.014 -2.88374 320.596 -2.1426 320.86 -1.26998C320.981 -0.811195 321.008 -0.332508 320.938 0.136835C320.868 0.606177 320.703 1.05631 320.453 1.45971C320.203 1.86311 319.873 2.21132 319.484 2.48303C319.095 2.75475 318.655 2.94427 318.19 3.04002L317.59 3.16002C317.501 3.17601 317.417 3.21228 317.344 3.26604C317.271 3.31979 317.211 3.38959 317.17 3.47002C317.133 3.5517 317.114 3.64034 317.114 3.73002C317.114 3.8197 317.133 3.90833 317.17 3.99001L317.58 5.05002C317.717 5.3936 317.731 5.77434 317.617 6.12663C317.504 6.47893 317.272 6.78073 316.96 6.98002C316.714 7.1319 316.506 7.33784 316.352 7.58217C316.198 7.8265 316.101 8.10279 316.07 8.39002C316.041 8.71967 315.908 9.03159 315.69 9.28123C315.473 9.53086 315.182 9.70544 314.86 9.78001L314.39 9.88001C314.064 9.94022 313.728 9.89514 313.429 9.75131C313.131 9.60747 312.886 9.37236 312.73 9.08002C312.522 8.73123 312.211 8.4559 311.84 8.29241C311.468 8.12893 311.055 8.08543 310.658 8.16799C310.26 8.25055 309.898 8.45505 309.623 8.75298C309.347 9.05091 309.171 9.42742 309.12 9.83002C309.092 10.1576 308.961 10.4678 308.745 10.7158C308.529 10.9639 308.24 11.137 307.92 11.21L307.45 11.31C307.124 11.3686 306.788 11.3228 306.49 11.1792C306.192 11.0355 305.947 10.8013 305.79 10.51C305.64 10.262 305.438 10.0495 305.198 9.88719C304.958 9.72489 304.686 9.61667 304.4 9.57002C304.015 9.52374 303.661 9.3387 303.403 9.04962C303.145 8.76055 303.002 8.38732 303 8.00002V6.86002C302.996 6.77083 302.973 6.68358 302.932 6.60422C302.891 6.52486 302.833 6.45526 302.763 6.40019C302.693 6.34512 302.611 6.30587 302.525 6.28513C302.438 6.26439 302.348 6.26264 302.26 6.28001L294.87 7.80002C294.568 9.84737 293.644 11.7521 292.221 13.2552C290.799 14.7582 288.948 15.7864 286.92 16.2C286.239 16.3393 285.545 16.4097 284.85 16.41ZM282.85 -2.58998C280.582 -2.06018 278.599 -0.690676 277.3 1.24275C276.001 3.17618 275.483 5.52993 275.85 7.83002C276.243 9.96989 277.389 11.8984 279.081 13.2666C280.773 14.6348 282.898 15.3524 285.073 15.2895C287.248 15.2267 289.328 14.3876 290.938 12.924C292.548 11.4604 293.581 9.46902 293.85 7.31001V6.95001L302 5.30002C302.234 5.24346 302.477 5.23967 302.713 5.28893C302.948 5.3382 303.17 5.43926 303.361 5.58481C303.553 5.73036 303.709 5.91673 303.82 6.13038C303.93 6.34403 303.992 6.57961 304 6.82002V7.96002C304.002 8.09574 304.051 8.22655 304.139 8.33038C304.226 8.43422 304.347 8.50472 304.48 8.53001C304.917 8.59264 305.334 8.75394 305.7 9.0017C306.065 9.24946 306.37 9.57718 306.59 9.96002C306.643 10.0679 306.728 10.1567 306.834 10.214C306.94 10.2714 307.061 10.2944 307.18 10.28L307.64 10.18C307.757 10.15 307.86 10.0832 307.936 9.98955C308.012 9.89588 308.055 9.78033 308.06 9.66002C308.123 9.0375 308.382 8.45114 308.8 7.98569C309.219 7.52023 309.774 7.19978 310.386 7.07066C310.998 6.94153 311.636 7.01042 312.206 7.26736C312.777 7.5243 313.251 7.95597 313.56 8.50002C313.611 8.60713 313.695 8.69554 313.799 8.75292C313.903 8.81029 314.022 8.83375 314.14 8.82002L314.62 8.72002C314.735 8.68819 314.836 8.62062 314.91 8.52711C314.984 8.4336 315.026 8.31902 315.03 8.20001C315.079 7.76096 315.229 7.33902 315.466 6.9664C315.703 6.59378 316.023 6.28035 316.4 6.05002C316.51 5.97053 316.591 5.85654 316.629 5.72611C316.667 5.59568 316.66 5.45628 316.61 5.33002L316.2 4.27001C316.115 4.05149 316.079 3.81709 316.094 3.58318C316.11 3.34928 316.176 3.12153 316.288 2.91583C316.4 2.71012 316.556 2.53143 316.745 2.39225C316.934 2.25307 317.15 2.15675 317.38 2.11002L317.99 1.98002C318.32 1.90963 318.633 1.77337 318.909 1.5794C319.185 1.38543 319.419 1.13773 319.598 0.851129C319.776 0.564524 319.895 0.244898 319.947 -0.0886292C319.999 -0.422157 319.983 -0.762729 319.9 -1.08998C319.705 -1.7193 319.279 -2.25153 318.708 -2.57983C318.136 -2.90812 317.462 -3.0082 316.82 -2.85998L293 2.09001L292.82 1.78002C291.863 0.0762882 290.377 -1.26965 288.588 -2.05442C286.798 -2.83919 284.802 -3.02016 282.9 -2.56998L282.85 -2.58998ZM284.85 12.69C283.608 12.7038 282.388 12.3564 281.34 11.69C280.1 10.8759 279.181 9.65692 278.739 8.24085C278.297 6.82479 278.36 5.29932 278.917 3.92449C279.474 2.54966 280.491 1.41058 281.794 0.701456C283.096 -0.00766945 284.605 -0.242945 286.062 0.0357299C287.519 0.314405 288.834 1.08978 289.783 2.22968C290.733 3.36957 291.257 4.80342 291.268 6.28678C291.278 7.77014 290.774 9.21118 289.84 10.3642C288.907 11.5173 287.603 12.311 286.15 12.61C285.724 12.687 285.292 12.7206 284.86 12.71L284.85 12.69ZM284.85 0.880014C284.477 0.882134 284.106 0.91896 283.74 0.990015C283.043 1.13841 282.383 1.42257 281.796 1.82626C281.209 2.22996 280.707 2.7453 280.32 3.34284C279.932 3.94039 279.666 4.60844 279.536 5.30886C279.407 6.00928 279.417 6.72836 279.565 7.42502C279.713 8.12168 279.997 8.78229 280.401 9.36913C280.805 9.95598 281.32 10.4576 281.918 10.8452C282.515 11.2329 283.183 11.4991 283.884 11.6286C284.584 11.7581 285.303 11.7484 286 11.6C287.046 11.3823 288.004 10.8598 288.753 10.0985C289.502 9.33713 290.01 8.37098 290.211 7.32182C290.412 6.27266 290.298 5.18745 289.883 4.20301C289.468 3.21857 288.771 2.37896 287.88 1.79002C286.995 1.20123 285.953 0.891231 284.89 0.900018L284.85 0.880014Z" fill="#F7F5FA"/>
<path opacity="0.6" d="M268.5 41.32C275.05 41.32 280.36 37.9353 280.36 33.76C280.36 29.5847 275.05 26.2 268.5 26.2C261.95 26.2 256.64 29.5847 256.64 33.76C256.64 37.9353 261.95 41.32 268.5 41.32Z" fill="url(#paint19_linear_633_899)"/>
<path opacity="0.3" d="M249.63 44.42C252.32 44.42 254.5 43.0321 254.5 41.32C254.5 39.6079 252.32 38.22 249.63 38.22C246.94 38.22 244.76 39.6079 244.76 41.32C244.76 43.0321 246.94 44.42 249.63 44.42Z" fill="url(#paint20_linear_633_899)"/>
</g>
<defs>
<linearGradient id="paint0_linear_633_899" x1="53.6324" y1="279.55" x2="191.268" y2="99.0211" gradientUnits="userSpaceOnUse">
<stop stop-color="#53389E"/>
<stop offset="0.779045" stop-color="#643FBD"/>
<stop offset="1" stop-color="#6941C6"/>
</linearGradient>
<linearGradient id="paint1_linear_633_899" x1="60.715" y1="272.46" x2="198.348" y2="91.9223" gradientUnits="userSpaceOnUse">
<stop stop-color="#53389E"/>
<stop offset="0.779045" stop-color="#643FBD"/>
<stop offset="1" stop-color="#6941C6"/>
</linearGradient>
<linearGradient id="paint2_linear_633_899" x1="111.708" y1="152.066" x2="83.6241" y2="66.3306" gradientUnits="userSpaceOnUse">
<stop stop-color="#53389E"/>
<stop offset="0.779045" stop-color="#643FBD"/>
<stop offset="1" stop-color="#6941C6"/>
</linearGradient>
<linearGradient id="paint3_linear_633_899" x1="82.53" y1="142.551" x2="89.4965" y2="111.552" gradientUnits="userSpaceOnUse">
<stop stop-color="#53389E"/>
<stop offset="0.779045" stop-color="#643FBD"/>
<stop offset="1" stop-color="#6941C6"/>
</linearGradient>
<linearGradient id="paint4_linear_633_899" x1="101.71" y1="113.916" x2="91.3836" y2="82.3907" gradientUnits="userSpaceOnUse">
<stop stop-color="#53389E"/>
<stop offset="0.779045" stop-color="#643FBD"/>
<stop offset="1" stop-color="#6941C6"/>
</linearGradient>
<linearGradient id="paint5_linear_633_899" x1="94.4834" y1="227.224" x2="102.989" y2="204.351" gradientUnits="userSpaceOnUse">
<stop stop-color="#53389E"/>
<stop offset="0.779045" stop-color="#643FBD"/>
<stop offset="1" stop-color="#6941C6"/>
</linearGradient>
<linearGradient id="paint6_linear_633_899" x1="93.7068" y1="208.075" x2="99.2366" y2="191.805" gradientUnits="userSpaceOnUse">
<stop stop-color="#53389E"/>
<stop offset="0.779045" stop-color="#643FBD"/>
<stop offset="1" stop-color="#6941C6"/>
</linearGradient>
<linearGradient id="paint7_linear_633_899" x1="86.1501" y1="247.14" x2="87.5823" y2="232.631" gradientUnits="userSpaceOnUse">
<stop stop-color="#53389E"/>
<stop offset="0.779045" stop-color="#643FBD"/>
<stop offset="1" stop-color="#6941C6"/>
</linearGradient>
<linearGradient id="paint8_linear_633_899" x1="222.415" y1="89.93" x2="224.254" y2="80.5819" gradientUnits="userSpaceOnUse">
<stop stop-color="#53389E"/>
<stop offset="0.779045" stop-color="#643FBD"/>
<stop offset="1" stop-color="#6941C6"/>
</linearGradient>
<linearGradient id="paint9_linear_633_899" x1="266.777" y1="326.87" x2="267.189" y2="324.93" gradientUnits="userSpaceOnUse">
<stop stop-color="#53389E"/>
<stop offset="0.779045" stop-color="#643FBD"/>
<stop offset="1" stop-color="#6941C6"/>
</linearGradient>
<linearGradient id="paint10_linear_633_899" x1="267.596" y1="326.171" x2="269.034" y2="323.38" gradientUnits="userSpaceOnUse">
<stop stop-color="#53389E"/>
<stop offset="0.779045" stop-color="#643FBD"/>
<stop offset="1" stop-color="#6941C6"/>
</linearGradient>
<linearGradient id="paint11_linear_633_899" x1="214.799" y1="327.92" x2="215.188" y2="325.872" gradientUnits="userSpaceOnUse">
<stop stop-color="#53389E"/>
<stop offset="0.779045" stop-color="#643FBD"/>
<stop offset="1" stop-color="#6941C6"/>
</linearGradient>
<linearGradient id="paint12_linear_633_899" x1="216.185" y1="327.721" x2="217.93" y2="324.804" gradientUnits="userSpaceOnUse">
<stop stop-color="#53389E"/>
<stop offset="0.779045" stop-color="#643FBD"/>
<stop offset="1" stop-color="#6941C6"/>
</linearGradient>
<linearGradient id="paint13_linear_633_899" x1="243.523" y1="115.91" x2="260.198" y2="91.5868" gradientUnits="userSpaceOnUse">
<stop stop-color="#53389E"/>
<stop offset="0.779045" stop-color="#643FBD"/>
<stop offset="1" stop-color="#6941C6"/>
</linearGradient>
<linearGradient id="paint14_linear_633_899" x1="215.03" y1="148.61" x2="252.584" y2="97.4557" gradientUnits="userSpaceOnUse">
<stop stop-color="#53389E"/>
<stop offset="0.779045" stop-color="#643FBD"/>
<stop offset="1" stop-color="#6941C6"/>
</linearGradient>
<linearGradient id="paint15_linear_633_899" x1="234.563" y1="317.53" x2="331.458" y2="253.866" gradientUnits="userSpaceOnUse">
<stop stop-color="#53389E"/>
<stop offset="0.779045" stop-color="#643FBD"/>
<stop offset="1" stop-color="#6941C6"/>
</linearGradient>
<linearGradient id="paint16_linear_633_899" x1="213.15" y1="318" x2="271.181" y2="300.68" gradientUnits="userSpaceOnUse">
<stop stop-color="#53389E"/>
<stop offset="0.779045" stop-color="#643FBD"/>
<stop offset="1" stop-color="#6941C6"/>
</linearGradient>
<linearGradient id="paint17_linear_633_899" x1="201.581" y1="116.64" x2="218.007" y2="88.8287" gradientUnits="userSpaceOnUse">
<stop stop-color="#53389E"/>
<stop offset="0.779045" stop-color="#643FBD"/>
<stop offset="1" stop-color="#6941C6"/>
</linearGradient>
<linearGradient id="paint18_linear_633_899" x1="279.825" y1="27.83" x2="296.458" y2="-24.3698" gradientUnits="userSpaceOnUse">
<stop stop-color="#53389E"/>
<stop offset="0.779045" stop-color="#643FBD"/>
<stop offset="1" stop-color="#6941C6"/>
</linearGradient>
<linearGradient id="paint19_linear_633_899" x1="262.57" y1="41.32" x2="268.038" y2="24.1629" gradientUnits="userSpaceOnUse">
<stop stop-color="#53389E"/>
<stop offset="0.779045" stop-color="#643FBD"/>
<stop offset="1" stop-color="#6941C6"/>
</linearGradient>
<linearGradient id="paint20_linear_633_899" x1="247.195" y1="44.42" x2="249.435" y2="37.3829" gradientUnits="userSpaceOnUse">
<stop stop-color="#53389E"/>
<stop offset="0.779045" stop-color="#643FBD"/>
<stop offset="1" stop-color="#6941C6"/>
</linearGradient>
<clipPath id="clip0_633_899">
<rect width="332" height="336" fill="white" transform="matrix(-1 0 0 1 332 0.5)"/>
</clipPath>
</defs>
</svg>
