<svg width="29" height="28" viewBox="0 0 29 28" fill="none" xmlns="http://www.w3.org/2000/svg">
<g clip-path="url(#clip0_961_982)">
<path d="M20.5002 0.443073C21.8743 0.506253 22.8243 0.708201 23.702 1.04892C24.5343 1.36009 25.2877 1.85084 25.9088 2.48625C26.5442 3.10732 27.035 3.86077 27.3461 4.69302C27.6869 5.5719 27.8888 6.52072 27.952 7.89487C28.0298 9.59846 28.0389 10.1987 28.0389 13.8947C28.0389 17.5907 28.0298 18.1909 27.952 19.8945C27.8888 21.2686 27.6869 22.2186 27.3461 23.0974C27.0348 23.9293 26.5441 24.6824 25.9088 25.3031C25.2878 25.9385 24.5343 26.4293 23.702 26.7404C22.8232 27.0811 21.8743 27.2831 20.5002 27.3463C18.7966 27.4241 18.1975 27.4331 14.5004 27.4331C10.8033 27.4331 10.203 27.4241 8.50059 27.3463C7.12643 27.2831 6.17648 27.0811 5.29761 26.7404C4.46574 26.4291 3.71268 25.9384 3.09197 25.3031C2.45655 24.682 1.9658 23.9286 1.65463 23.0963C1.31391 22.2174 1.11197 21.2686 1.04879 19.8945C0.97094 18.1931 0.961914 17.5929 0.961914 13.8947C0.961914 10.1975 0.97094 9.59621 1.04879 7.89487C1.11197 6.52072 1.31391 5.57077 1.65463 4.69302C1.9658 3.86077 2.45655 3.10732 3.09197 2.48625C3.7127 1.85098 4.46576 1.36024 5.29761 1.04892C6.17761 0.708201 7.12643 0.506253 8.50059 0.443073C10.2019 0.365227 10.8021 0.356201 14.5004 0.356201C18.1975 0.356201 18.7989 0.365227 20.5002 0.443073ZM14.5004 3.36513C10.845 3.36513 10.2854 3.37302 8.6371 3.44861C7.59125 3.496 6.96397 3.62913 6.38746 3.85364C5.94495 4.0141 5.5451 4.27384 5.21864 4.61292C4.87883 4.9388 4.61897 5.33882 4.45935 5.78174C4.23597 6.35713 4.10171 6.98554 4.05433 8.03139C3.97874 9.67969 3.97084 10.2393 3.97084 13.8947C3.97084 17.5501 3.97874 18.1096 4.05433 19.758C4.10171 20.8038 4.23484 21.4311 4.45935 22.0065C4.65115 22.4984 4.85422 22.8109 5.21864 23.1764C5.58417 23.542 5.89669 23.745 6.38746 23.9357C6.96284 24.1591 7.59125 24.2933 8.6371 24.3407C10.2865 24.4163 10.8461 24.4242 14.5004 24.4242C18.1558 24.4242 18.7142 24.4163 20.3637 24.3407C21.4095 24.2933 22.0368 24.1602 22.6133 23.9357C23.0558 23.7752 23.4557 23.5155 23.7821 23.1764C24.1477 22.8109 24.3507 22.4984 24.5414 22.0076C24.7648 21.4322 24.8991 20.8038 24.9464 19.758C25.022 18.1085 25.0299 17.5489 25.0299 13.8947C25.0299 10.2404 25.022 9.68082 24.9464 8.03139C24.8991 6.98554 24.7659 6.35826 24.5414 5.78287C24.3819 5.33958 24.122 4.93917 23.7821 4.61292C23.4559 4.27301 23.0555 4.01314 22.6122 3.85364C22.0368 3.63025 21.4084 3.496 20.3625 3.44861C18.7142 3.37302 18.1546 3.36513 14.4993 3.36513H14.5004ZM14.5004 20.9144C12.6386 20.9144 10.8532 20.1748 9.53671 18.8583C8.22026 17.5419 7.48069 15.7564 7.48069 13.8947C7.48069 12.0329 8.22026 10.2474 9.53671 8.931C10.8532 7.61455 12.6386 6.87497 14.5004 6.87497C16.3621 6.87497 18.1476 7.61455 19.4641 8.931C20.7805 10.2474 21.5201 12.0329 21.5201 13.8947C21.5201 15.7564 20.7805 17.5419 19.4641 18.8583C18.1476 20.1748 16.3621 20.9144 14.5004 20.9144ZM14.5004 17.9066C15.5644 17.9066 16.5848 17.4839 17.3372 16.7315C18.0896 15.9791 18.5123 14.9587 18.5123 13.8947C18.5123 12.8307 18.0896 11.8102 17.3372 11.0578C16.5848 10.3055 15.5644 9.88277 14.5004 9.88277C13.4364 9.88277 12.4159 10.3055 11.6635 11.0578C10.9112 11.8102 10.4885 12.8307 10.4885 13.8947C10.4885 14.9587 10.9112 15.9791 11.6635 16.7315C12.4159 17.4839 13.4364 17.9066 14.5004 17.9066ZM21.5201 8.37887C21.1211 8.37887 20.7384 8.22037 20.4563 7.93823C20.1741 7.65609 20.0156 7.27342 20.0156 6.87441C20.0156 6.4754 20.1741 6.09274 20.4563 5.8106C20.7384 5.52845 21.1211 5.36995 21.5201 5.36995C21.9191 5.36995 22.3018 5.52845 22.5839 5.8106C22.866 6.09274 23.0245 6.4754 23.0245 6.87441C23.0245 7.27342 22.866 7.65609 22.5839 7.93823C22.3018 8.22037 21.9191 8.37887 21.5201 8.37887Z" fill="black"/>
</g>
<defs>
<clipPath id="clip0_961_982">
<rect width="27.0769" height="27.0769" fill="white" transform="translate(0.961426 0.356201)"/>
</clipPath>
</defs>
</svg>
