<svg width="29" height="28" viewBox="0 0 29 28" fill="none" xmlns="http://www.w3.org/2000/svg">
<path d="M24.0554 3.17667H4.94362C4.72878 3.17369 4.51547 3.21305 4.31585 3.29252C4.11623 3.37199 3.93422 3.49 3.78021 3.63981C3.6262 3.78963 3.50322 3.96832 3.41828 4.16567C3.33333 4.36302 3.2881 4.57517 3.28516 4.79001V24.1275C3.2881 24.3423 3.33333 24.5544 3.41828 24.7518C3.50322 24.9491 3.6262 25.1278 3.78021 25.2776C3.93422 25.4275 4.11623 25.5455 4.31585 25.6249C4.51547 25.7044 4.72878 25.7438 4.94362 25.7408H24.0554C24.2703 25.7438 24.4836 25.7044 24.6832 25.6249C24.8828 25.5455 25.0648 25.4275 25.2188 25.2776C25.3728 25.1278 25.4958 24.9491 25.5808 24.7518C25.6657 24.5544 25.711 24.3423 25.7139 24.1275V4.79001C25.711 4.57517 25.6657 4.36302 25.5808 4.16567C25.4958 3.96832 25.3728 3.78963 25.2188 3.63981C25.0648 3.49 24.8828 3.37199 24.6832 3.29252C24.4836 3.21305 24.2703 3.17369 24.0554 3.17667ZM10.0882 22.0628H6.70362V11.909H10.0882V22.0628ZM8.39593 10.4874C7.92915 10.4874 7.48148 10.302 7.15142 9.97195C6.82136 9.64189 6.63593 9.19423 6.63593 8.72745C6.63593 8.26066 6.82136 7.813 7.15142 7.48294C7.48148 7.15287 7.92915 6.96744 8.39593 6.96744C8.64379 6.93933 8.8948 6.96389 9.13251 7.03952C9.37022 7.11514 9.58928 7.24012 9.77534 7.40627C9.9614 7.57243 10.1103 7.776 10.2122 8.00368C10.3141 8.23136 10.3668 8.47799 10.3668 8.72745C10.3668 8.9769 10.3141 9.22353 10.2122 9.45121C10.1103 9.67888 9.9614 9.88246 9.77534 10.0486C9.58928 10.2148 9.37022 10.3397 9.13251 10.4154C8.8948 10.491 8.64379 10.5156 8.39593 10.4874ZM22.2954 22.0628H18.9108V16.6136C18.9108 15.2485 18.4257 14.3572 17.1959 14.3572C16.8154 14.36 16.4448 14.4794 16.1341 14.6992C15.8235 14.9191 15.5877 15.2289 15.4585 15.5869C15.3702 15.8521 15.332 16.1314 15.3457 16.4105V22.0516H11.9611V11.8977H15.3457V13.3305C15.6531 12.797 16.1003 12.3575 16.6391 12.0593C17.1779 11.7611 17.7878 11.6155 18.4031 11.6382C20.6595 11.6382 22.2954 13.0936 22.2954 16.2187V22.0628Z" fill="black"/>
</svg>
