<svg width="327" height="323" viewBox="0 0 327 323" fill="none" xmlns="http://www.w3.org/2000/svg">
<path d="M316.056 291.494C314.604 290.678 312.785 290.02 310.857 289.582C306.499 288.596 301.641 288.523 296.905 288.462C255.869 287.963 215.114 287.78 174.065 287.78C141.744 287.525 109.435 287.257 77.1141 287.099C61.9178 287.026 46.6848 286.965 31.5374 287.671C25.2635 287.963 18.7334 288.438 13.5459 290.374C8.35837 292.309 5.06284 296.132 7.69928 299.224C12.0812 304.337 26.7648 304.045 35.2479 304.057C100.659 304.154 166.083 303.96 231.494 303.753C253.391 303.68 275.289 303.619 297.15 302.986C302.044 302.84 307.097 302.657 311.491 301.476C315.898 300.307 319.547 297.897 319.279 295.255C319.145 293.819 317.887 292.528 316.056 291.494Z" fill="#D9E0FC"/>
<path d="M318.266 178.252C317.155 178.495 315.885 178.629 314.457 178.629C265.365 178.629 216.285 178.629 167.193 178.617C142.647 178.617 118.101 178.617 93.5675 178.605C82.1428 178.605 36.3219 184.911 31.3541 173.65C30.3044 171.276 30.3044 168.659 30.3044 166.102C30.3044 117.906 30.4386 69.7093 30.4386 21.5127C30.4386 19.8084 30.4386 18.0918 30.4386 16.3875C30.4386 12.784 33.661 9.86228 37.6279 9.86228C91.3094 9.86228 144.979 9.86228 198.66 9.86228C226.404 9.86228 254.148 9.86228 281.904 9.86228C293.585 9.86228 325.565 4.43273 325.565 19.6866C325.565 48.6727 325.552 77.671 325.552 106.657C325.552 121.485 325.552 136.325 325.552 151.153C325.54 160.587 329.886 175.683 318.266 178.252Z" fill="#D9E0FC"/>
<path d="M301.702 168.452C297.223 171.52 288.935 169.779 282.038 169.779C268.453 169.779 254.88 169.779 241.295 169.779C204.543 169.779 167.804 169.779 131.052 169.779C94.019 169.779 56.9986 169.779 19.9659 169.779C18.7209 169.779 17.72 168.781 17.72 167.539C17.7078 138.821 17.5369 110.09 17.4759 81.3719C17.4393 67.0067 17.4393 52.6536 17.5003 38.2884C17.5369 28.8901 13.6921 8.24319 20.0269 0.890147C21.809 -1.16724 44.8049 1.3771 47.6733 1.3771C60.0134 1.35275 72.3535 1.3284 84.6815 1.30406C108.629 1.25536 132.577 1.20668 156.525 1.14581C188.7 1.14581 220.887 1.01188 253.062 0.938834C269.991 0.902312 301.482 0.999713 303.863 1.02406C306.926 1.06058 305.608 48.6119 305.632 52.1301C305.791 71.7423 305.693 91.3667 305.51 110.979C305.376 125.624 305.169 140.269 305.01 154.927C304.985 156.874 304.961 158.822 304.961 160.77C304.973 164.702 303.716 167.064 301.702 168.452Z" fill="#401C6F"/>
<path d="M295.782 153.892C286.97 153.661 278.133 153.831 269.32 153.831C260.495 153.831 251.67 153.843 242.858 153.843C225.208 153.855 207.57 153.868 189.921 153.88C154.817 153.904 119.7 153.916 84.5961 154.014C74.6972 154.038 64.7859 154.062 54.887 154.099C45.0002 154.123 35.0402 154.001 25.1778 154.695C24.6042 154.732 24.6042 155.535 25.1778 155.584C33.9783 156.205 42.8276 156.095 51.6403 156.168C60.4651 156.241 69.2899 156.217 78.1026 156.241C95.7523 156.29 113.39 156.302 131.04 156.327C166.144 156.375 201.26 156.4 236.364 156.424C246.263 156.436 256.174 156.436 266.073 156.448C275.972 156.461 285.883 156.655 295.782 156.4C297.406 156.363 297.418 153.928 295.782 153.892Z" fill="#796BD4"/>
<path d="M285.639 152.553C285.346 151.652 284.834 150.861 284.126 150.203C283.21 149.302 282.136 148.669 280.891 148.328C280.671 148.255 280.452 148.182 280.244 148.109C279.28 147.805 278.316 147.768 277.364 147.975C276.399 148.024 275.508 148.304 274.678 148.827C274.19 149.205 273.702 149.582 273.214 149.96C272.506 150.617 272.005 151.384 271.725 152.285C271.395 152.845 271.236 153.454 271.236 154.111C271.017 155.073 271.065 156.022 271.371 156.984C271.615 157.556 271.859 158.128 272.103 158.713C272.75 159.796 273.616 160.661 274.703 161.306C274.898 161.44 275.081 161.574 275.276 161.708C276.424 162.365 277.657 162.706 278.975 162.706C279.622 162.621 280.269 162.535 280.928 162.45C282.173 162.097 283.247 161.476 284.162 160.575C284.882 159.918 285.383 159.127 285.676 158.226C286.14 157.349 286.347 156.412 286.311 155.414C286.311 154.367 286.103 153.429 285.639 152.553Z" fill="#796BD4"/>
<path d="M248.387 216.295L47.8809 213.337L48.6743 6.39282L247.801 7.92673L248.387 216.295Z" fill="white" stroke="black" stroke-width="0.5" stroke-miterlimit="10"/>
<path d="M92.8348 169.657C92.2367 177.278 91.6385 184.887 91.0405 192.508C90.955 193.542 90.2227 194.419 89.1241 194.419C85.6088 194.431 82.1057 194.443 78.5904 194.468C75.4413 194.48 72.2922 194.492 69.1431 194.504C68.3131 194.504 67.4465 194.516 66.7019 194.078C65.8841 193.591 65.4935 192.751 65.3837 191.85C65.225 190.377 65.3959 188.819 65.4325 187.334C65.5546 181.052 65.7865 174.77 66.4822 168.513C66.6043 167.381 67.8737 167.125 68.4596 167.782C69.4849 167.466 70.7177 167.612 71.7307 167.612C73.0002 167.612 74.2573 167.624 75.5268 167.624C80.6288 167.649 85.7431 167.673 90.8452 167.673C91.8583 167.673 92.9202 168.586 92.8348 169.657ZM87.3421 190.609C87.8059 184.29 88.2575 177.972 88.7213 171.654C85.7309 171.666 82.7282 171.69 79.7378 171.702C77.8825 171.715 76.0272 171.727 74.1841 171.739C73.2321 171.751 72.2922 171.751 71.3402 171.751C70.9984 171.751 70.6567 171.751 70.3149 171.751C69.9487 172.056 69.4849 172.238 68.9966 172.262C69.0943 174.296 69.1553 176.341 69.1919 178.386C69.2407 181.32 69.1919 184.254 69.1553 187.188C69.1431 187.955 69.1309 188.722 69.1187 189.489C69.1065 189.89 69.1309 190.316 69.1309 190.743C69.2896 190.755 69.4361 190.767 69.5581 190.767L71.5843 190.755C76.8328 190.706 82.0814 190.657 87.3421 190.609Z" fill="#796BD4"/>
<path d="M92.8348 125.222C92.2367 132.843 91.6385 140.452 91.0405 148.073C90.955 149.108 90.2227 149.984 89.1241 149.984C85.6088 149.996 82.1057 150.009 78.5904 150.033C75.4413 150.045 72.2922 150.057 69.1431 150.069C68.3131 150.069 67.4465 150.082 66.7019 149.643C65.8841 149.156 65.4935 148.316 65.3837 147.415C65.225 145.942 65.3959 144.384 65.4325 142.899C65.5546 136.617 65.7865 130.336 66.4822 124.078C66.6043 122.946 67.8737 122.69 68.4596 123.348C69.4849 123.031 70.7177 123.177 71.7307 123.177C73.0002 123.177 74.2573 123.189 75.5268 123.189C80.6288 123.214 85.7431 123.238 90.8452 123.238C91.8583 123.238 92.9202 124.151 92.8348 125.222ZM87.3421 146.174C87.8059 139.856 88.2575 133.537 88.7213 127.219C85.7309 127.231 82.7282 127.256 79.7378 127.268C77.8825 127.28 76.0272 127.292 74.1841 127.304C73.2321 127.304 72.2922 127.316 71.3402 127.316C70.9984 127.316 70.6567 127.316 70.3149 127.316C69.9487 127.621 69.4849 127.803 68.9966 127.828C69.0943 129.861 69.1553 131.906 69.1919 133.951C69.2407 136.885 69.1919 139.819 69.1553 142.753C69.1431 143.52 69.1309 144.287 69.1187 145.054C69.1065 145.456 69.1309 145.882 69.1309 146.308C69.2896 146.32 69.4361 146.332 69.5581 146.332L71.5843 146.32C76.8328 146.271 82.0814 146.222 87.3421 146.174Z" fill="#796BD4"/>
<path d="M92.8348 80.7877C92.2367 88.4085 91.6385 96.0172 91.0405 103.638C90.955 104.673 90.2227 105.549 89.1241 105.549C85.6088 105.562 82.1057 105.574 78.5904 105.598C75.4413 105.61 72.2922 105.622 69.1431 105.635C68.3131 105.635 67.4465 105.647 66.7019 105.209C65.8841 104.722 65.4935 103.882 65.3837 102.981C65.225 101.508 65.3959 99.9494 65.4325 98.4642C65.5546 92.1824 65.7865 85.9007 66.4822 79.6433C66.6043 78.5111 67.8737 78.2555 68.4596 78.9129C69.4849 78.5963 70.7177 78.7424 71.7307 78.7424C73.0002 78.7424 74.2573 78.7546 75.5268 78.7546C80.6288 78.779 85.7431 78.8033 90.8452 78.8033C91.8583 78.8033 92.9202 79.7164 92.8348 80.7877ZM87.3421 101.739C87.8059 95.4207 88.2575 89.1024 88.7213 82.7842C85.7309 82.7964 82.7282 82.8207 79.7378 82.8329C77.8825 82.845 76.0272 82.8572 74.1841 82.8694C73.2321 82.8694 72.2922 82.8816 71.3402 82.8816C70.9984 82.8816 70.6567 82.8816 70.3149 82.8816C69.9487 83.1859 69.4849 83.3685 68.9966 83.3929C69.0943 85.4259 69.1553 87.4711 69.1919 89.5163C69.2407 92.4503 69.1919 95.3842 69.1553 98.3181C69.1431 99.085 69.1309 99.852 69.1187 100.619C69.1065 101.021 69.1309 101.447 69.1309 101.873C69.2896 101.885 69.4361 101.897 69.5581 101.897L71.5843 101.885C76.8328 101.836 82.0814 101.788 87.3421 101.739Z" fill="#796BD4"/>
<path d="M200.906 83.1127C194.498 82.9423 188.077 83.0762 181.669 83.0884C175.322 83.1005 168.963 83.1005 162.616 83.1127C149.788 83.1249 136.959 83.1857 124.143 83.2466C120.567 83.2588 116.99 83.2831 113.414 83.2953C109.789 83.3075 106.115 83.2344 102.502 83.4901C102.038 83.5266 102.038 84.1718 102.502 84.1962C105.688 84.4153 108.922 84.3544 112.12 84.3788C115.33 84.4153 118.528 84.4153 121.739 84.4275C128.086 84.464 134.445 84.4883 140.792 84.5249C153.62 84.5857 166.449 84.5736 179.265 84.5979C186.478 84.6101 193.704 84.7684 200.906 84.5736C201.858 84.5614 201.858 83.137 200.906 83.1127Z" fill="#969696"/>
<path d="M156.147 90.0396C142.293 89.8813 128.439 89.7474 114.586 89.7474C110.631 89.7474 106.664 89.7109 102.709 89.7718C101.953 89.784 101.953 90.9405 102.709 90.9527C116.551 91.1718 130.417 90.9648 144.27 90.8796C148.225 90.8553 152.192 90.7335 156.147 90.6848C156.562 90.6848 156.562 90.0518 156.147 90.0396Z" fill="#969696"/>
<path d="M198.684 97.4048C186.198 97.1735 173.699 97.3561 161.212 97.3805C148.726 97.4048 136.227 97.417 123.74 97.4414C116.685 97.4535 109.643 97.4657 102.588 97.5874C102.014 97.5996 102.014 98.464 102.588 98.4762C115.074 98.7075 127.573 98.6344 140.06 98.6466C152.546 98.6709 165.045 98.6831 177.532 98.7075C184.587 98.7196 191.629 98.7805 198.684 98.6466C199.49 98.6466 199.49 97.417 198.684 97.4048Z" fill="#969696"/>
<path d="M166.339 127.353C162.115 127.073 157.831 127.304 153.596 127.317C149.348 127.329 145.1 127.341 140.853 127.353C132.358 127.377 123.874 127.402 115.379 127.426C110.57 127.438 105.785 127.499 100.976 127.67C100.634 127.682 100.634 128.193 100.976 128.205C109.459 128.485 117.955 128.449 126.45 128.473C134.945 128.497 143.428 128.522 151.924 128.546C154.267 128.558 156.598 128.558 158.942 128.571C161.395 128.583 163.873 128.68 166.327 128.51C167.095 128.473 167.095 127.402 166.339 127.353Z" fill="#969696"/>
<path d="M192.057 137.129C180.217 136.788 168.353 136.922 156.513 136.897C144.783 136.873 133.066 136.861 121.336 136.824L111.339 136.8C108.019 136.788 104.663 136.642 101.343 136.897C100.537 136.958 100.537 138.091 101.343 138.151C104.296 138.383 107.275 138.261 110.228 138.261C113.195 138.249 116.148 138.249 119.114 138.237C125.034 138.224 130.966 138.212 136.886 138.2C148.616 138.176 160.334 138.164 172.063 138.139C178.728 138.127 185.392 138.127 192.057 137.932C192.569 137.908 192.569 137.141 192.057 137.129Z" fill="#969696"/>
<path d="M195.523 174.539C183.158 174.235 170.794 174.381 158.429 174.393C146.065 174.393 133.7 174.405 121.335 174.442C114.415 174.466 107.482 174.551 100.561 174.466C99.7554 174.454 99.7554 175.72 100.561 175.72C112.926 175.574 125.29 175.781 137.655 175.793C150.019 175.793 162.384 175.805 174.748 175.805C181.669 175.805 188.59 175.817 195.523 175.647C196.231 175.635 196.231 174.563 195.523 174.539Z" fill="#969696"/>
<path d="M120.554 181.064C114.012 181.064 107.482 181.198 100.952 181.259C100.488 181.259 100.488 181.965 100.952 181.965C107.482 182.026 114.024 182.16 120.554 182.16C121.275 182.172 121.275 181.064 120.554 181.064Z" fill="#969696"/>
<path d="M186.674 181.88C179.435 181.405 172.136 181.612 164.886 181.649C157.563 181.685 150.239 181.734 142.915 181.77C138.79 181.795 134.664 181.819 130.551 182.026C130.087 182.05 130.087 182.72 130.551 182.732C137.801 183.097 145.076 183 152.338 183.037C159.662 183.073 166.985 183.122 174.309 183.122C178.435 183.122 182.56 183.146 186.674 182.878C187.32 182.842 187.333 181.929 186.674 181.88Z" fill="#969696"/>
<path d="M158.612 189.05C151.374 188.673 144.075 188.953 136.837 188.977C129.648 189.001 122.434 188.977 115.245 189.233C111.132 189.379 106.994 189.33 102.88 189.342C102.465 189.342 102.465 189.988 102.88 189.988C117.344 190.061 131.796 190.328 146.26 190.389C150.386 190.401 154.511 190.499 158.625 190.28C159.406 190.243 159.406 189.099 158.612 189.05Z" fill="#969696"/>
<path d="M232.226 33.5164C225.244 32.9686 218.067 33.3947 211.061 33.3947C204.445 33.3947 197.83 33.4069 191.226 33.4069C177.776 33.419 164.337 33.419 150.886 33.4312C137.435 33.4434 123.996 33.4677 110.546 33.5286C96.9482 33.5895 83.0946 33.0173 69.5461 34.186C66.58 34.4416 66.5678 38.4712 69.5461 38.739C83.0946 39.9077 96.9482 39.3356 110.546 39.3964C123.996 39.4573 137.435 39.4817 150.886 39.4938C164.337 39.506 177.776 39.506 191.226 39.5182C197.842 39.5182 204.458 39.5303 211.061 39.5303C218.067 39.5303 225.232 39.9564 232.226 39.4086C236.071 39.0921 236.083 33.8208 232.226 33.5164Z" fill="black"/>
<path d="M199.673 50.4988C197.439 48.7336 195.669 49.0501 192.838 49.0501C190.201 49.0501 187.565 49.0501 184.928 49.0501L168.45 49.0623C157.245 49.0745 146.04 49.0745 134.835 49.0866L101.879 49.111C96.1671 49.111 90.4548 49.1719 84.7424 49.2449C80.0065 49.3058 73.6594 48.3927 69.3629 50.5475C68.2278 51.1197 68.2278 52.9336 69.3629 53.5058C73.6716 55.6727 79.9943 54.7475 84.7424 54.8084C90.2351 54.8814 95.7277 54.9301 101.22 54.9423C112.425 54.9545 123.63 54.9545 134.835 54.9667L167.791 54.991C173.504 54.991 179.216 55.0032 184.928 55.0032C187.565 55.0032 190.201 55.0032 192.838 55.0032C195.596 55.0032 197.464 55.2953 199.673 53.5545C200.54 52.8849 200.527 51.1806 199.673 50.4988Z" fill="black"/>
<path d="M148.75 143.763C146.834 143.227 145.308 141.097 144.527 139.332C143.697 137.445 143.856 134.974 145.443 133.659C146.456 132.819 147.859 132.6 149.178 132.734C153.266 133.184 156.416 136.848 157.539 140.805C158.661 144.749 158.185 148.961 157.709 153.04C157.355 156.022 157.001 159.005 156.647 161.987C155.964 167.782 156.733 173.845 156.733 179.688C156.733 180.419 156.757 181.174 157.111 181.807C157.77 182.975 159.26 183.304 160.59 183.511C166.974 184.534 173.54 185.763 180.034 185.532C185.246 185.349 188.224 183.803 192.972 187.48C195.572 189.488 197.562 192.617 197.232 195.88C197.049 197.633 196.219 199.276 195.096 200.652C190.665 206.045 182.756 206.775 175.762 206.605C167.511 206.398 159.272 205.521 151.155 203.987C142.916 202.417 137.167 198.302 136.471 189.598C135.812 181.356 138.388 173.127 140.633 165.299C142.721 158.019 146.797 151.311 148.665 144.092C148.701 143.958 148.726 143.861 148.75 143.763Z" fill="#FBC2AA"/>
<path d="M195.011 191.692C194.95 191.326 194.889 190.961 194.828 190.608C194.303 186.992 193.803 182.476 197.745 181.344C200.345 180.589 204.898 180.93 206.631 178.519C207.192 177.74 207.351 176.766 207.485 175.829C207.693 174.49 207.888 173.139 208.096 171.799C200.54 173.09 197.391 166.345 196.439 160.039C195.463 153.599 195.67 145.565 201.358 141.255C204.983 138.504 210.061 137.846 214.321 139.453C218.58 141.06 221.913 144.834 223.121 149.217C224.012 152.455 222.95 153.636 222.767 156.984C222.547 160.77 222.889 167.307 222.682 171.093C222.535 173.638 222.755 176.608 224.146 178.824C224.781 179.834 225.55 180.699 226.624 181.246C227.405 181.648 229.431 181.429 229.92 181.965C232.69 184.996 235.278 188.21 238.281 190.998C231.189 193.968 223.78 196.086 216.2 197.377C210.891 198.29 200.15 201.419 196.488 195.782C195.682 194.54 195.279 193.128 195.011 191.692Z" fill="#FBC2AA"/>
<path d="M257.822 209.526C257.065 200.189 252.866 190.62 244.334 185.946C241.198 184.229 237.743 183.194 234.277 182.379C232.495 181.952 230.688 181.587 228.906 181.186C226.904 180.735 226.502 181.21 225.135 182.707C222.315 185.824 217.86 187.212 213.673 186.773C211.025 186.506 208.474 185.544 206.203 184.18C203.738 182.695 202.871 180.869 199.746 181.039C190.287 181.575 180.839 182.427 171.429 183.596C172.124 191.777 172.674 203.366 174.383 211.389C179.363 210.89 190.372 209.794 190.36 211.304C190.348 213.605 190.397 215.918 190.47 218.219C190.629 222.711 190.909 227.203 191.092 231.695C191.288 236.467 191.642 241.239 192.069 245.987C192.557 251.405 193.387 256.725 194.595 261.984C206.899 266.074 220.936 265.076 234.13 263.883C237.89 263.542 241.796 263.165 245.055 261.253C254.209 255.872 254.6 239.949 255.906 230.685C256.919 223.551 258.408 216.843 257.822 209.526Z" fill="#401C6F"/>
<path d="M163.434 302.572C163.593 302.34 163.764 302.109 163.934 301.89C167.12 297.812 172.625 295.158 177.129 292.759C182.097 290.118 187.65 287.939 193.375 288.267C198.538 288.559 205.703 292.053 206.777 297.507C206.899 298.128 206.948 298.786 206.704 299.358C206.094 300.794 204.153 300.916 202.59 300.928C195.926 300.989 189.518 303.034 183.293 305.238C180.095 306.37 176.909 307.575 173.663 308.61C170.77 309.535 163.739 313.589 161.713 309.377C160.602 307.076 162.152 304.446 163.434 302.572Z" fill="black"/>
<path d="M134.543 247.813C137.24 244.843 141.073 242.919 145.003 242.177C150.52 241.142 156.22 242.14 161.64 243.638C173.113 246.791 183.867 252.099 195.389 255.057C200.503 256.372 203.836 255.885 208.828 255.483C215.163 254.972 221.668 255.592 228.04 255.215C233.996 254.862 240.441 254.399 246.019 256.043C246.751 255.556 247.484 255.081 248.216 254.594C254.441 250.516 260.654 246.462 268.466 247.947C274.605 249.116 280.537 252.22 284.333 257.26C288.373 262.617 287.165 269.617 283.54 274.961C280.537 279.38 276.107 282.643 271.517 285.382C255.686 294.853 238.39 300.66 219.703 299.37C217.201 299.199 214.259 299.163 212.453 301.172C211.782 301.926 211.379 306.053 209.877 305.871C208.022 305.652 204.458 305.14 202.713 304.507C193.265 301.111 183.83 297.702 174.383 294.305C166.083 291.311 157.734 288.304 150.178 283.763C143.636 279.843 137.716 274.535 134.25 267.657C131.748 262.702 129.697 256.177 132.309 251.027C132.919 249.846 133.664 248.775 134.543 247.813Z" fill="#796BD4"/>
<path d="M251.731 262.057C246.422 264.699 240.868 266.391 235.778 269.532C230.701 272.661 225.892 276.313 220.362 278.687C216.786 280.22 211.586 280.817 208.156 282.521" stroke="black" stroke-width="0.5" stroke-miterlimit="10"/>
<path d="M212.575 300.453C212.587 300.441 212.587 300.417 212.599 300.405C213.1 299.26 213.588 298.116 214.088 296.972C215.077 294.695 216.066 292.431 217.042 290.154C217.152 289.899 225.635 294.196 226.368 294.793C226.697 295.06 227.014 295.353 227.222 295.718C227.515 296.217 227.576 296.813 227.649 297.386C227.845 298.993 228.089 300.636 227.783 302.231C227.478 303.826 226.49 305.396 224.952 305.907C223.78 306.297 222.511 306.017 221.314 305.749C219.032 305.226 216.798 304.739 214.552 304.081C213.905 303.886 212.209 303.826 211.745 303.363C211.159 302.791 212.319 301.062 212.575 300.453Z" fill="#FBC2AA"/>
<path d="M222.023 291.895C222.645 291.98 223.292 292.005 223.963 291.944C225.33 291.834 226.673 291.445 228.04 291.469C230.762 291.518 231.946 293.636 233.081 295.779C235.083 299.565 238.696 302.328 241.625 305.372C245.299 309.182 247.423 312.773 246.825 318.227C246.617 320.151 245.836 322.354 243.969 322.878C242.248 323.365 240.551 322.159 239.172 321.027C235.425 317.959 231.665 314.904 227.918 311.836C226.209 310.436 224.464 308.573 222.523 307.526C221.29 306.869 219.886 306.382 218.605 305.737C219.984 301.184 221.144 296.57 222.023 291.895Z" fill="black"/>
<path d="M202.871 264.54C202.188 264.2 201.663 263.579 201.26 262.422C200.577 260.474 200.979 258.174 202.078 256.457C203.494 254.241 206.094 252.537 208.669 252.001C211.318 251.441 213.881 250.504 216.578 249.956C218.519 249.567 220.423 249.031 222.327 248.495C228.15 246.864 234.423 245.622 239.953 243.187C240.295 243.041 240.636 242.871 240.832 242.554C241.088 242.128 240.978 241.593 240.856 241.106C239.001 233.667 237.304 226.193 235.754 218.681C235.229 216.125 234.716 213.544 234.741 210.939C234.79 206.203 236.694 201.516 239.965 198.083C241.967 195.977 244.737 194.285 247.618 194.614C249.986 194.894 252.024 196.525 253.367 198.509C254.71 200.493 255.43 202.794 256.15 205.059C258.567 212.716 261.374 220.471 262.46 228.433C262.741 230.514 262.729 232.62 262.717 234.714C262.68 240.74 262.521 247.144 259.201 252.172C248.265 268.68 222.901 266.647 205.898 265.064C204.629 264.979 203.652 264.93 202.871 264.54Z" fill="#FBC2AA"/>
<path d="M207.68 136.312C204.604 136.775 201.65 138.017 199.173 140.038C196.414 142.29 195.547 144.676 194.974 148.206C194.937 148.438 194.913 148.693 195.047 148.888C195.194 149.095 195.486 149.144 195.743 149.18C200.137 149.704 204.555 150.081 208.986 150.312C209.474 150.337 209.975 150.361 210.426 150.179C211.549 149.728 211.989 148.206 213.136 147.817C213.295 149.29 213.185 150.799 212.831 152.236C212.672 152.869 212.465 153.539 212.672 154.159C213.087 155.413 214.564 155.389 215.516 155.961C216.7 156.667 217.848 158.104 218.299 159.394C218.897 161.099 219.166 162.961 220.216 164.471C220.484 164.86 220.801 165.213 221.107 165.566C221.68 166.224 222.242 166.881 222.815 167.539C223.169 167.271 223.34 166.845 223.487 166.443C224.683 163.229 225.952 160.039 226.709 156.704C227.393 153.709 227.368 150.519 226.587 147.549C226.245 146.21 225.623 144.859 225 143.629C224.659 142.947 224.207 142.229 223.767 141.596C223.633 141.401 222.315 139.685 222.083 139.831C222.376 139.636 222.742 139.271 222.608 138.881C222.449 138.419 221.375 138.747 221.082 138.906C221.253 138.638 221.497 138.406 221.668 138.139C221.839 137.871 221.949 137.518 221.815 137.226C221.729 137.043 221.558 136.909 221.375 136.812C220.899 136.58 220.325 136.641 219.874 136.897C219.398 137.165 218.995 137.652 218.885 138.175C215.272 136.592 211.671 135.716 207.68 136.312Z" fill="black"/>
<path d="M160.26 252.878C170.892 257.674 179.448 266.001 189.115 272.502C198.147 278.565 208.156 283.02 218.104 287.452C217.579 288.584 217.372 289.716 216.859 290.848" stroke="black" stroke-width="0.5" stroke-miterlimit="10"/>
<path d="M205.667 162.389C205.032 164.458 202.493 165.712 200.467 164.97" stroke="#1C1C1B" stroke-width="0.5" stroke-miterlimit="10"/>
<path d="M216.395 161.78C220.313 162.754 222.755 158.639 221.558 155.949C219.898 152.212 214.65 152.832 213.686 156.765" fill="#FBC2AA"/>
<path d="M218.397 155.645C217.665 155.438 216.81 155.559 216.188 155.961C215.565 156.363 215.211 157.02 215.236 157.665" stroke="#1C1C1B" stroke-width="0.5" stroke-miterlimit="10"/>
<path d="M247.569 189.987C240.416 190.742 233.862 195.697 231.213 202.381C228.467 209.32 229.834 217.111 231.238 224.44C235.851 224.306 239.928 224.622 244.517 223.721C250.474 222.553 256.26 220.714 261.862 218.45C260.202 207.847 257.126 197.681 249.534 190.036C248.802 189.281 248.619 189.878 247.569 189.987Z" fill="#401C6F"/>
<path d="M166.925 121.412C160.993 124.005 155.622 127.353 150.532 131.346C148.067 133.281 145.736 135.46 143.539 137.688C142.367 138.881 141.256 140.147 140.157 141.401C139.926 140.707 139.694 140.026 139.462 139.344C138.717 137.128 137.875 134.973 136.947 132.831C136.081 130.798 135.129 128.801 134.103 126.841C133.029 124.784 131.992 122.033 129.795 120.998C128.281 120.28 126.926 121.18 126.719 122.763C126.414 125.1 128.269 127.267 129.319 129.239C130.356 131.199 131.32 133.184 132.199 135.217C133.005 137.055 133.749 138.991 134.421 140.914C135.153 142.996 135.666 145.175 136.435 147.233C137.191 149.253 139.828 149.753 141.061 147.829C142.66 145.321 144.906 143.045 146.944 140.878C149.031 138.662 151.216 136.568 153.45 134.499C157.954 130.323 162.751 126.403 167.718 122.787C168.561 122.179 167.865 120.998 166.925 121.412Z" fill="#796BD4"/>
<path d="M236.156 270.372H175.896C175.017 270.372 174.297 269.653 174.297 268.777C174.297 267.9 175.017 267.182 175.896 267.182H236.156C237.035 267.182 237.755 267.9 237.755 268.777C237.755 269.653 237.035 270.372 236.156 270.372Z" fill="black"/>
<path d="M227.221 268.205H174.48L163.531 241.227C163.177 240.351 163.824 239.389 164.776 239.389H214.625C215.174 239.389 215.662 239.718 215.87 240.229L227.221 268.205Z" fill="black"/>
<path d="M189.823 253.815C190.384 255.276 192.276 256.457 194.046 256.457C195.816 256.457 196.805 255.276 196.243 253.815C195.682 252.354 193.79 251.173 192.02 251.173C190.25 251.173 189.261 252.354 189.823 253.815Z" stroke="white" stroke-width="0.5" stroke-miterlimit="10"/>
<path d="M207.705 171.641C207.802 172.652 207.717 173.662 207.619 174.66C207.68 174.648 207.754 174.624 207.815 174.612C209.89 173.966 211.598 172.286 212.477 170.302C211.025 171.105 209.377 171.556 207.705 171.641Z" fill="black"/>
<path d="M148.848 143.921C146.565 142.363 144.259 140.792 142.416 138.747C142.037 138.333 141.683 137.871 141.586 137.323C141.488 136.775 141.769 136.13 142.306 135.984C142.904 135.825 143.453 136.325 143.917 136.751C145.662 138.37 147.969 139.405 150.349 139.624" fill="white"/>
<path d="M148.848 143.921C146.565 142.363 144.259 140.792 142.416 138.747C142.037 138.333 141.683 137.871 141.586 137.323C141.488 136.775 141.769 136.13 142.306 135.984C142.904 135.825 143.453 136.325 143.917 136.751C145.662 138.37 147.969 139.405 150.349 139.624" stroke="#1C1C1B" stroke-width="0.5" stroke-miterlimit="10"/>
<path d="M228.479 312.907C228.577 312.846 228.674 312.773 228.772 312.7C228.882 312.615 229.004 312.566 229.126 312.506C229.37 312.396 229.602 312.286 229.846 312.189C229.749 312.238 229.639 312.274 229.541 312.323C229.993 312.128 230.432 311.885 230.823 311.593C230.92 311.519 231.006 311.446 231.103 311.361C231.262 311.215 231.421 311.081 231.64 311.02C232.031 310.899 232.519 311.093 232.727 311.446C232.91 311.763 232.898 312.116 232.739 312.433C232.702 312.506 232.654 312.566 232.617 312.639C232.532 312.773 232.446 312.907 232.348 313.029C232.104 313.358 231.848 313.674 231.555 313.954C231.262 314.246 230.945 314.514 230.591 314.721C230.371 314.855 230.139 315.001 229.883 315.05C229.627 315.111 229.358 315.135 229.102 315.159C228.992 315.147 228.882 315.135 228.784 315.111C228.626 315.074 228.491 315.001 228.369 314.892C228.174 314.733 227.991 314.514 227.93 314.259C227.796 313.723 228.015 313.212 228.479 312.907Z" fill="#401C6F"/>
<path d="M225.562 309.56C225.623 309.353 225.733 309.17 225.879 309.012C226.148 308.707 226.429 308.403 226.697 308.087C226.819 307.953 226.954 307.867 227.124 307.819C227.283 307.734 227.454 307.697 227.637 307.709C227.82 307.697 227.991 307.746 228.15 307.819C228.308 307.867 228.455 307.965 228.577 308.087C228.65 308.172 228.711 308.269 228.784 308.354C228.907 308.561 228.968 308.78 228.968 309.012C228.955 309.134 228.931 309.243 228.919 309.365C228.858 309.584 228.748 309.779 228.577 309.949C228.272 310.229 227.967 310.497 227.649 310.765C227.539 310.887 227.405 310.972 227.246 311.02C227.1 311.094 226.941 311.13 226.77 311.13C226.6 311.142 226.441 311.106 226.294 311.02C226.136 310.972 226.002 310.887 225.892 310.765C225.831 310.68 225.757 310.594 225.696 310.509C225.587 310.314 225.525 310.107 225.525 309.876C225.525 309.779 225.538 309.669 225.562 309.56Z" fill="#401C6F"/>
<path d="M221.949 306.382C222.145 306.09 222.34 305.798 222.535 305.505C222.608 305.371 222.718 305.25 222.84 305.177C222.95 305.067 223.097 305.006 223.243 304.958C223.402 304.909 223.56 304.897 223.719 304.933C223.878 304.945 224.024 304.982 224.158 305.079C224.244 305.14 224.317 305.201 224.403 305.262C224.549 305.408 224.659 305.591 224.708 305.785C224.72 305.895 224.732 305.992 224.757 306.102C224.757 306.321 224.696 306.516 224.598 306.698C224.403 306.991 224.207 307.283 224.012 307.575C223.939 307.709 223.829 307.831 223.707 307.904C223.597 308.013 223.451 308.074 223.304 308.123C223.145 308.171 222.987 308.184 222.828 308.147C222.669 308.135 222.523 308.098 222.389 308.001C222.303 307.94 222.23 307.879 222.145 307.818C221.998 307.672 221.888 307.49 221.839 307.295C221.827 307.185 221.815 307.088 221.803 306.978C221.778 306.771 221.839 306.565 221.949 306.382Z" fill="#401C6F"/>
<path d="M179.485 303.57C179.558 303.314 179.753 303.047 179.985 302.925C180.241 302.791 180.547 302.73 180.827 302.815C180.913 302.852 180.998 302.888 181.084 302.925C181.242 303.022 181.377 303.156 181.474 303.314C181.657 303.558 181.853 303.801 182.036 304.045C182.133 304.166 182.243 304.276 182.341 304.386C182.39 304.434 182.438 304.483 182.475 304.532C182.561 304.617 182.646 304.714 182.707 304.824C182.768 304.921 182.817 305.055 182.853 305.165C182.939 305.433 183.012 305.7 183.098 305.968C183.195 306.297 183.061 306.65 182.792 306.857C182.536 307.052 182.145 307.1 181.853 306.918C181.657 306.796 181.474 306.674 181.279 306.553C181.23 306.516 181.181 306.492 181.132 306.455C180.937 306.321 180.778 306.175 180.656 305.968C180.583 305.859 180.522 305.749 180.449 305.64C180.193 305.213 179.875 304.824 179.582 304.422C179.436 304.191 179.424 303.813 179.485 303.57Z" fill="#401C6F"/>
<path d="M184.148 301.975C184.221 301.719 184.416 301.452 184.648 301.33C185.026 301.123 185.502 300.965 185.771 301.378C186.198 302.048 186.625 302.718 187.065 303.387C187.407 303.923 187.76 304.544 187.553 305.14C187.492 305.335 187.358 305.518 187.162 305.615C186.894 305.737 186.577 305.652 186.308 305.505C185.844 305.25 185.588 304.799 185.307 304.361C185.234 304.252 185.173 304.142 185.1 304.032C184.843 303.606 184.526 303.217 184.233 302.815C184.099 302.596 184.074 302.218 184.148 301.975Z" fill="#401C6F"/>
<path d="M175.2 305.396C175.249 305.238 175.347 305.092 175.469 304.982C175.713 304.751 176.043 304.593 176.384 304.605C176.714 304.617 177.08 304.727 177.3 304.982C177.788 305.567 178.276 306.139 178.752 306.723C178.874 306.845 178.972 306.979 179.021 307.137C179.106 307.295 179.143 307.453 179.131 307.636C179.143 307.819 179.094 307.977 179.021 308.135C178.972 308.293 178.874 308.44 178.752 308.549C178.508 308.78 178.179 308.939 177.837 308.927C177.507 308.914 177.141 308.805 176.921 308.549C176.433 307.965 175.945 307.393 175.469 306.808C175.347 306.687 175.249 306.553 175.2 306.394C175.115 306.236 175.078 306.078 175.091 305.895C175.078 305.713 175.115 305.554 175.2 305.396Z" fill="#401C6F"/>
<path d="M282.295 263.067C281.734 264.187 282.027 265.587 281.49 266.72C281.099 267.56 280.318 268.144 279.781 268.911C278.951 270.104 278.817 271.784 279.61 273.001C280.391 274.219 282.112 274.791 283.418 274.146C284.456 273.634 285.054 272.514 285.469 271.431C286.323 269.191 287.226 265.685 286.494 263.299C285.884 261.363 283.345 260.949 282.295 263.067Z" fill="black"/>
<path d="M132.663 254.728C133.603 253.973 134.994 253.791 136.081 254.351C137.155 254.911 137.826 256.189 137.594 257.37C137.472 258.015 137.106 258.624 137.082 259.281C137.045 260.121 137.558 260.888 137.826 261.692C138.229 262.885 138.058 264.297 137.216 265.222C136.374 266.159 134.848 266.464 133.798 265.782C132.687 265.051 132.407 263.578 132.199 262.264C131.833 259.902 130.38 256.554 132.663 254.728Z" fill="black"/>
<path d="M192.435 208.589C192.325 208.48 192.105 208.456 191.996 208.589C191.703 208.955 191.385 209.32 191.117 209.697C190.982 209.88 190.848 210.063 190.714 210.245C190.58 210.428 190.421 210.61 190.299 210.817C190.152 211.061 190.482 211.304 190.69 211.109C190.848 210.951 190.995 210.769 191.141 210.598C191.288 210.428 191.434 210.257 191.581 210.087C191.886 209.746 192.154 209.381 192.435 209.028C192.533 208.894 192.557 208.723 192.435 208.589Z" fill="black"/>
<path d="M238.183 224.208C237.255 224.22 236.352 224.403 235.485 224.72C235.217 222.881 234.948 221.055 234.667 219.217C234.374 217.281 234.02 215.346 233.752 213.398C233.74 213.3 233.569 213.325 233.581 213.422C233.801 215.407 233.935 217.391 234.167 219.375C234.399 221.323 234.655 223.271 234.924 225.219C234.948 225.377 235.168 225.487 235.302 225.438C236.218 225.06 237.17 224.866 238.17 224.841C238.598 224.829 238.598 224.208 238.183 224.208Z" fill="black"/>
<path d="M105.212 286.721C103.467 289.96 99.756 291.53 96.3506 292.321C95.3253 292.565 94.2878 292.747 93.2503 292.942C92.4325 293.088 91.5659 293.186 90.7847 293.49C89.0026 294.172 90.9556 295.267 91.8588 295.669C92.3959 295.913 92.5302 296.692 92.2494 297.167C91.9199 297.702 91.2974 297.8 90.7481 297.556C90.0036 297.215 89.1858 296.716 88.6121 296.071L87.4525 299.967H69.9493L68.5822 275.278L94.9714 274.84L94.2756 277.165C97.1928 276.325 100.781 276.008 103.393 277.761C106.347 279.758 106.835 283.69 105.212 286.721ZM102.209 279.758C99.7805 278.054 96.2285 278.699 93.6165 279.551C93.5921 279.563 93.5677 279.575 93.5432 279.575L89.9914 291.445C90.6017 291.214 91.273 291.055 91.871 290.934C95.2887 290.24 99.158 289.753 101.807 287.245C103.796 285.37 104.87 281.633 102.209 279.758Z" fill="#796BD4"/>
<path d="M89.9058 280.951C89.3566 282.874 88.8073 284.786 88.3313 286.721C88.2337 287.111 88.8073 287.257 88.9294 286.88C89.5519 284.981 90.1011 283.057 90.6504 281.146C90.7846 280.683 90.0401 280.488 89.9058 280.951Z" fill="black"/>
<path d="M87.4282 290.203C87.1475 291.165 86.8667 292.115 86.586 293.076C86.3053 294.038 86.0978 295.012 85.8537 295.974C85.756 296.375 86.3419 296.534 86.464 296.144C86.7691 295.195 87.1109 294.245 87.3794 293.295L88.185 290.41C88.3193 289.923 87.5625 289.716 87.4282 290.203Z" fill="black"/>
<path d="M86.4152 287.44C86.3175 287.415 86.1832 287.464 86.1588 287.586C86.0856 288 86.0246 288.414 85.9513 288.815C85.9391 288.925 85.9758 289.047 86.0978 289.071C86.1955 289.095 86.3298 289.047 86.3542 288.925C86.4274 288.511 86.4884 288.097 86.5616 287.695C86.5739 287.586 86.525 287.464 86.4152 287.44Z" fill="black"/>
<path d="M258.628 245.646C258.469 247.911 257.419 250.017 255.869 251.648C255.686 251.843 255.967 252.111 256.162 251.94C257.932 250.346 258.908 248.02 258.982 245.646C258.982 245.415 258.64 245.427 258.628 245.646Z" fill="black"/>
<path d="M143.831 195.916C142.891 195.49 141.951 195.052 141.012 194.638C140.816 194.553 140.633 194.845 140.841 194.93C141.781 195.368 142.72 195.782 143.66 196.208C143.856 196.294 144.039 196.001 143.831 195.916Z" fill="black"/>
<path d="M81.8865 224.123C79.4331 227.215 76.4427 229.845 73.794 232.767C70.9866 235.859 68.8262 239.474 66.0189 242.567C63.5777 245.269 60.6605 247.546 57.4625 249.287C55.2044 250.516 49.9437 253.474 47.2584 252.817C42.0587 251.527 45.9524 242.798 47.588 239.925C49.5409 236.48 52.2872 233.497 55.1922 230.831C58.2315 228.055 61.5271 225.584 64.7983 223.1C68.4722 220.3 72.134 217.513 75.808 214.713C76.699 214.043 77.5657 213.337 78.4811 212.692C79.2379 212.156 80.0679 211.718 80.9955 211.608C82.5945 211.438 84.047 212.485 84.816 213.824C86.8299 217.342 84.0347 221.42 81.8865 224.123Z" fill="#796BD4"/>
<path d="M26.2521 229.711C26.9966 225.718 28.62 221.944 29.5477 218C30.7805 212.765 30.7805 207.323 31.7447 202.04C32.709 196.756 34.8817 191.339 39.2758 188.247C40.4964 187.394 41.8878 186.725 43.3647 186.615C46.0378 186.408 48.5889 188.064 50.1024 190.28C51.6037 192.483 52.2262 195.174 52.5924 197.827C54.0449 208.26 51.9943 219.156 46.8312 228.347C45.2201 231.22 43.3159 233.923 41.9122 236.894C40.0447 240.826 39.0683 245.16 38.873 249.506C38.7875 251.393 38.8241 253.365 37.9941 255.069C37.2007 256.725 34.2958 259.245 32.294 258.186C30.5119 257.236 29.2792 251.648 28.6445 249.847C26.4108 243.419 24.9827 236.504 26.2521 229.711Z" fill="#796BD4"/>
<path d="M8.74899 229.638C8.38281 227.69 8.07767 225.45 9.35928 223.94C11.1291 221.846 14.6933 222.711 16.6096 224.671C18.8188 226.923 19.7343 230.149 20.015 233.29C20.2957 236.431 20.0394 239.596 20.2836 242.725C20.6619 247.533 22.2243 252.147 23.2374 256.859C24.165 261.144 22.4074 264.066 19.2217 259.829C17.0612 256.968 15.4378 253.657 14.1074 250.346C11.4587 243.699 10.0794 236.626 8.74899 229.638Z" fill="#796BD4"/>
<path d="M68.4845 226.655C67.5203 228.408 66.434 230.052 65.1401 231.573C63.8463 233.083 62.4182 234.483 60.9535 235.834C58.0118 238.537 54.8383 240.996 52.0432 243.857C50.7005 245.233 49.4433 246.693 48.3692 248.288C47.112 250.151 46.1843 252.184 45.4764 254.314C44.6342 256.834 43.9995 259.427 43.3038 261.996C42.5714 264.674 41.8391 267.365 41.1067 270.043C40.3134 272.965 39.52 275.874 38.8853 278.833C38.5801 280.269 38.3116 281.718 38.0918 283.179C37.9942 283.86 37.921 284.554 37.8477 285.248C37.8111 285.626 37.7867 285.991 37.7623 286.368C37.7501 286.514 37.7501 286.66 37.7501 286.806C37.7867 286.466 37.8478 286.125 37.8844 285.808C37.982 285.041 38.0919 284.274 38.214 283.507C38.4215 282.205 38.6778 280.914 38.9585 279.636C39.5322 277.055 40.2401 274.523 40.9481 271.979C42.4006 266.756 43.7798 261.509 45.3177 256.323C46.0135 253.986 46.8435 251.685 48.1129 249.579C49.126 247.911 50.3466 246.389 51.677 244.965C54.3989 242.067 57.5236 239.596 60.5263 236.991C63.7975 234.142 67.2151 231.001 69.1436 227.045C69.3511 226.594 68.7287 226.217 68.4845 226.655Z" fill="#1C1C1B"/>
<path d="M37.7136 287.403C37.738 287.208 37.738 287.001 37.7502 286.794C37.7136 287.001 37.7014 287.208 37.7136 287.403Z" fill="#1C1C1B"/>
<path d="M37.7258 287.768C37.7136 287.647 37.7136 287.525 37.7136 287.403C37.7014 287.525 37.677 287.647 37.6526 287.756C37.6281 287.817 37.7258 287.817 37.7258 287.768Z" fill="#1C1C1B"/>
<path d="M36.1632 235.068C36.5172 230.405 37.3473 225.767 38.9584 221.36C39.0073 221.226 38.7998 221.165 38.751 221.299C35.7849 229.09 35.3455 237.478 35.4431 245.732C35.492 249.981 35.675 254.229 35.7116 258.478C35.7605 262.885 35.6018 267.28 35.2234 271.662C34.8206 276.301 34.2348 280.915 33.6245 285.528C28.5346 274.779 23.8841 263.822 19.7585 252.671C18.5501 249.396 17.3784 246.097 16.2554 242.786C16.109 242.36 15.4376 242.542 15.5719 242.968C19.5266 254.704 24.0306 266.257 29.0838 277.567C30.5119 280.756 31.9766 283.921 33.5024 287.075C33.6855 287.464 34.1859 287.208 34.2225 286.88C35.3577 278.005 36.4196 269.118 36.3586 260.158C36.2975 251.819 35.5285 243.443 36.1632 235.068Z" fill="#1C1C1B"/>
<path d="M19.429 273.294C21.382 282.266 22.7124 291.664 21.3087 300.697C24.4578 300.709 40.3377 300.795 45.452 300.746C45.3909 299.955 45.3299 299.175 45.2933 298.384C45.0003 292.784 45.3665 287.148 47.0387 281.767C47.4415 280.464 48.2837 276.228 48.8208 274.962L48.7231 273.294H19.429Z" fill="#401C6F"/>
<path d="M49.9438 268.315L18.538 268.363C18.2695 268.363 18.0133 268.388 17.7569 268.436V275.68C18.0133 275.728 18.2695 275.753 18.538 275.753L49.2847 275.692L49.9438 268.315Z" fill="#1A0400"/>
<path d="M44.2437 279.308C43.8043 279.819 43.4625 280.464 43.1574 281.061C42.8522 281.657 42.5959 282.29 42.3517 282.923C41.8635 284.226 41.5706 285.541 41.4363 286.916C41.3875 287.488 42.3518 287.635 42.4616 287.05C42.6935 285.784 42.9986 284.506 43.4136 283.276C43.6211 282.668 43.8653 282.071 44.1338 281.475C44.3901 280.89 44.7197 280.318 44.9638 279.722C45.1225 279.332 44.5122 278.991 44.2437 279.308Z" fill="#1C1C1B"/>
<path d="M42.0221 290.544C42.0343 290.13 41.3874 290.13 41.3752 290.544C41.3019 292.638 40.8992 294.707 40.9602 296.813C40.9846 297.483 41.9122 297.446 41.9733 296.813C42.2052 294.72 41.9489 292.638 42.0221 290.544Z" fill="#1C1C1B"/>
<path d="M39.9838 298.908C37.8111 298.554 35.5775 298.445 33.3926 298.713C32.6603 298.798 32.7945 299.808 33.5269 299.711C35.6385 299.431 37.7746 299.37 39.8862 299.614C40.289 299.662 40.3866 298.968 39.9838 298.908Z" fill="#1C1C1B"/>
<path d="M295.575 207.299C293.378 208.273 290.619 210.087 290.29 212.68C290.192 213.447 288.996 213.788 288.813 212.875C288.532 211.487 287.909 210.221 286.884 209.222C285.822 208.176 284.394 207.725 283.247 206.788C282.893 206.496 283.088 205.826 283.528 205.741C285.773 205.302 288.19 204.073 289.191 201.979C289.081 201.602 288.996 201.2 288.959 200.786C288.91 200.226 289.423 199.763 289.936 199.678C290.509 199.593 290.985 199.958 291.168 200.482C291.657 201.906 292.352 203.16 293.219 204.329C293.951 204.962 294.781 205.509 295.563 206.045C295.965 206.337 296.112 207.068 295.575 207.299Z" fill="#D9E0FC"/>
<path d="M303.948 221.567C303.423 221.056 302.862 220.569 302.312 220.094C302.605 219.948 302.911 219.79 303.204 219.631C303.594 219.412 303.753 218.852 303.509 218.475C303.24 218.049 302.788 217.988 302.349 218.17C302.215 218.231 302.081 218.292 301.959 218.353C302.117 217.379 302.288 216.393 302.508 215.419C302.679 214.652 301.519 214.324 301.324 215.09C301.043 216.21 300.726 217.33 300.421 218.438C299.896 217.988 299.371 217.525 298.846 217.075C298.565 216.831 298.15 216.807 297.882 217.075C297.613 217.343 297.625 217.769 297.882 218.037C298.382 218.572 298.883 219.108 299.371 219.656C299.127 219.79 298.87 219.923 298.639 220.082C298.248 220.325 297.821 220.52 297.406 220.727C297.04 220.91 296.93 221.433 297.125 221.774C297.345 222.151 297.796 222.237 298.175 222.042C298.553 221.847 298.944 221.628 299.334 221.482C299.456 221.433 299.566 221.384 299.676 221.336C299.615 221.579 299.554 221.823 299.505 222.054C299.31 222.87 299.017 223.71 298.98 224.55C298.931 225.73 300.677 225.913 301.006 224.817C301.226 224.063 301.226 223.235 301.324 222.456C301.348 222.261 301.385 222.066 301.409 221.859C301.763 222.237 302.129 222.614 302.508 222.991C302.886 223.357 303.57 223.405 303.948 222.991C304.314 222.602 304.351 221.957 303.948 221.567Z" fill="#D9E0FC"/>
<path d="M28.266 54.6503C26.6671 53.9442 25.4831 52.6781 24.8606 51.059C24.6409 50.4746 23.8475 50.4381 23.64 51.059C23.3715 51.8503 22.9077 52.5564 22.3828 53.1894C22.3584 53.2259 22.334 53.2625 22.3096 53.2868C21.8335 53.6885 21.2843 54.0294 20.6862 54.2242C20.2956 54.3459 20.2712 54.9303 20.6862 55.0398C21.504 55.259 22.2119 55.5877 22.81 56.1964C23.3837 56.7929 23.7498 57.5233 23.8841 58.3268C23.994 58.9842 24.9949 58.7042 24.8972 58.0468C24.7874 57.3529 25.5197 56.8416 26.0446 56.5616C26.7647 56.172 27.5337 55.8433 28.2905 55.5025C28.5956 55.3685 28.5956 54.7964 28.266 54.6503Z" fill="#D9E0FC"/>
<path d="M20.0391 37.7164C20.4175 37.8747 20.9058 38.2034 20.7349 38.5686C20.6372 38.7756 20.3931 38.8486 20.1734 38.9095C17.8787 39.4695 13.6433 40.346 13.7897 43.5356C13.8142 44.2173 12.7888 44.3269 12.618 43.6938C12.0199 41.3564 10.5918 39.2382 8.41912 38.1182C7.93089 37.8625 8.19945 37.193 8.67548 37.1564C9.89606 37.0712 11.0556 36.5721 11.9832 35.793C13.094 34.8677 13.3747 34.3443 13.6554 32.9808C13.7653 32.433 14.0827 31.8608 14.632 31.7269C14.7296 31.7025 14.8517 31.6903 14.9493 31.739C15.1446 31.8121 15.23 32.0434 15.291 32.2382C16.0478 34.4295 17.5125 36.4504 19.5631 37.5095C19.734 37.5704 19.8805 37.6434 20.0391 37.7164Z" fill="#D9E0FC"/>
<path d="M268.441 71.0488C267.867 70.6957 266.879 70.5983 266.476 70.0383C265.756 69.0157 267.513 69.0522 268.002 68.9183C268.905 68.6748 269.637 67.9809 270.126 67.1774C270.614 66.374 270.882 65.4609 271.139 64.5601C271.749 64.8888 271.871 65.6679 272.127 66.3131C272.567 67.4088 273.568 68.2122 274.703 68.5044C275.106 68.6018 277.29 69.0766 275.777 69.8557C274.764 70.367 273.616 70.8053 272.786 71.6088C272.262 72.1201 271.48 74.567 270.882 74.4696C270.614 74.4331 270.418 74.214 270.296 73.9705C270.187 73.727 270.138 73.4592 270.065 73.2035C269.93 72.7409 269.711 72.3027 269.405 71.9253C269.149 71.5844 268.819 71.2922 268.441 71.0488Z" fill="#D9E0FC"/>
<path d="M11.5683 76.0277C9.04169 76.8434 7.63803 79.3025 7.01553 81.7129C6.83245 82.3947 5.72169 82.2607 5.77051 81.5425C5.84375 80.2642 5.36772 79.0468 4.54992 78.0729C3.57345 76.9042 2.38948 76.5512 1.03462 75.9425C0.83933 75.8573 0.607412 75.7355 0.570794 75.5164C0.534177 75.3094 0.705059 75.1147 0.875941 74.9929C1.44962 74.6033 2.19419 74.6399 2.87772 74.506C4.51331 74.2016 5.89256 72.826 6.22212 71.2068C6.29536 70.866 6.31978 70.5007 6.46626 70.1842C6.61273 69.8677 6.94228 69.5999 7.29625 69.6486C7.72345 69.7094 7.94311 70.1721 8.08958 70.5738C8.38252 71.3895 8.57786 72.1564 9.20036 72.7773C9.94492 73.5199 10.8481 74.1042 11.7513 74.6155C12.3494 74.9564 12.1786 75.8329 11.5683 76.0277Z" fill="#D9E0FC"/>
</svg>
