<svg width="333" height="325" viewBox="0 0 333 325" fill="none" xmlns="http://www.w3.org/2000/svg">
<g clip-path="url(#clip0_835_1374)">
<path d="M212.402 73.2011H194.725V223.909C194.725 226.274 194.259 228.615 193.354 230.8C192.449 232.984 191.123 234.969 189.451 236.641C187.779 238.313 185.794 239.64 183.609 240.545C181.425 241.449 179.083 241.915 176.719 241.915H41.5693V242.087C41.5693 244.452 42.0351 246.793 42.9399 248.978C43.8448 251.163 45.1711 253.148 46.8431 254.82C48.5151 256.492 50.5001 257.818 52.6847 258.723C54.8692 259.628 57.2106 260.093 59.5752 260.093H212.402C214.766 260.093 217.108 259.628 219.292 258.723C221.477 257.818 223.462 256.492 225.134 254.82C226.806 253.148 228.132 251.163 229.037 248.978C229.942 246.793 230.408 244.452 230.408 242.087V91.207C230.408 86.4316 228.511 81.8517 225.134 78.4749C221.757 75.0982 217.177 73.2012 212.402 73.2011Z" fill="url(#paint0_linear_835_1374)"/>
<path d="M296.2 312.7C296.513 312.714 296.823 312.632 297.087 312.464C297.352 312.297 297.559 312.052 297.68 311.763C297.801 311.474 297.83 311.155 297.763 310.848C297.696 310.542 297.537 310.264 297.307 310.051L297.203 309.635C297.216 309.602 297.23 309.569 297.244 309.535C297.559 308.791 298.088 308.156 298.763 307.71C299.438 307.265 300.229 307.029 301.038 307.032C301.846 307.035 302.636 307.277 303.308 307.727C303.979 308.178 304.503 308.816 304.813 309.563C306.05 312.545 307.626 315.531 308.015 318.684C308.185 320.077 308.113 321.489 307.801 322.858C310.709 316.516 312.219 309.623 312.228 302.646C312.229 300.895 312.132 299.146 311.937 297.406C311.776 295.98 311.553 294.564 311.267 293.158C309.709 285.529 306.363 278.378 301.505 272.293C299.153 271.01 297.252 269.037 296.056 266.64C295.623 265.779 295.317 264.859 295.147 263.909C295.412 263.944 296.147 259.904 295.947 259.656C296.317 259.096 296.979 258.817 297.382 258.269C299.39 255.547 302.157 256.022 303.601 259.722C306.686 261.279 306.716 263.861 304.823 266.345C303.618 267.925 303.453 270.063 302.396 271.754C302.505 271.893 302.618 272.028 302.727 272.167C304.714 274.723 306.446 277.467 307.898 280.36C307.545 277.119 307.966 273.84 309.128 270.793C310.305 267.954 312.511 265.562 314.454 263.108C314.967 262.448 315.665 261.956 316.459 261.693C317.252 261.43 318.106 261.409 318.912 261.631C319.718 261.853 320.44 262.309 320.986 262.941C321.533 263.574 321.88 264.354 321.983 265.184C321.987 265.22 321.991 265.256 321.995 265.292C321.706 265.455 321.424 265.628 321.148 265.811C320.8 266.043 320.531 266.374 320.376 266.761C320.22 267.149 320.185 267.574 320.276 267.982C320.366 268.39 320.577 268.761 320.882 269.046C321.187 269.332 321.57 269.518 321.983 269.582L322.025 269.589C321.923 270.629 321.741 271.659 321.482 272.672C323.974 282.31 318.593 285.82 310.911 285.978C310.741 286.065 310.576 286.152 310.406 286.235C311.865 290.369 312.78 294.675 313.128 299.046C313.326 301.624 313.314 304.214 313.094 306.79L313.107 306.699C313.663 303.834 315.192 301.249 317.433 299.38C320.763 296.645 325.467 295.638 329.06 293.439C329.441 293.194 329.885 293.063 330.339 293.062C330.793 293.061 331.237 293.19 331.62 293.433C332.003 293.676 332.308 294.024 332.5 294.435C332.692 294.846 332.762 295.304 332.703 295.753L332.688 295.849C332.153 296.067 331.631 296.319 331.127 296.602C330.838 296.764 330.556 296.937 330.28 297.12C329.932 297.352 329.663 297.683 329.508 298.071C329.352 298.458 329.317 298.884 329.407 299.291C329.498 299.699 329.709 300.07 330.014 300.356C330.319 300.641 330.702 300.828 331.115 300.891L331.157 300.898C331.188 300.902 331.214 300.907 331.244 300.911C330.329 303.096 329.045 305.107 327.448 306.855C325.89 315.269 319.197 316.068 312.037 313.617H312.033C311.247 317.031 310.109 320.354 308.636 323.532H296.504C296.46 323.397 296.421 323.258 296.382 323.123C297.505 323.194 298.633 323.127 299.739 322.923C298.839 321.819 297.939 320.706 297.039 319.601C297.019 319.58 297 319.559 296.982 319.536C296.526 318.971 296.065 318.41 295.608 317.844L295.608 317.844C295.584 316.111 295.783 314.382 296.2 312.7Z" fill="#F2F2F2"/>
<path d="M162.572 52.7006C163.015 53.3717 163.598 53.9386 164.282 54.362C164.965 54.7855 165.733 55.0554 166.531 55.1531C167.329 55.2508 168.139 55.1739 168.904 54.9279C169.67 54.6818 170.373 54.2724 170.964 53.7279L196.188 65.1079L201.051 58.9049L170.994 45.6077C170.003 44.6799 168.707 44.1476 167.35 44.1118C165.993 44.0759 164.67 44.5391 163.632 45.4134C162.594 46.2876 161.913 47.5124 161.717 48.8555C161.522 50.1986 161.826 51.5667 162.572 52.7006Z" fill="#A0616A"/>
<path d="M270.822 59.7967L273.323 73.9732C273.44 74.6346 273.417 75.3131 273.256 75.9651C273.095 76.6171 272.8 77.2282 272.388 77.7593C271.977 78.2903 271.46 78.7295 270.869 79.0487C270.278 79.3678 269.627 79.5599 268.957 79.6125L226.448 82.9554L176.48 60.5925L182.448 49.2633L225.825 62.9994L270.822 59.7967Z" fill="#796BD4"/>
<path d="M171.333 49.6368H18.5059C8.56151 49.6368 0.5 57.6984 0.5 67.6427V218.523C0.5 228.468 8.56151 236.529 18.5059 236.529H171.333C181.277 236.529 189.339 228.468 189.339 218.523V67.6427C189.339 57.6984 181.277 49.6368 171.333 49.6368Z" fill="#F2F2F2"/>
<path d="M18.5061 53.3397C16.6278 53.3397 14.7679 53.7097 13.0326 54.4285C11.2973 55.1472 9.72051 56.2008 8.39236 57.529C7.06421 58.8571 6.01065 60.4338 5.29186 62.1692C4.57307 63.9045 4.20312 65.7644 4.20313 67.6427V218.523C4.20313 222.317 5.71004 225.955 8.39236 228.637C11.0747 231.319 14.7127 232.826 18.5061 232.826H116.044C125.183 232.826 134.232 231.026 142.675 227.529C151.119 224.032 158.79 218.905 165.253 212.443C171.715 205.981 176.841 198.309 180.338 189.866C183.835 181.423 185.635 172.373 185.635 163.235V67.6427C185.635 65.7644 185.266 63.9045 184.547 62.1692C183.828 60.4338 182.774 58.8571 181.446 57.529C180.118 56.2008 178.541 55.1472 176.806 54.4285C175.071 53.7097 173.211 53.3397 171.333 53.3397H18.5061Z" fill="url(#paint1_linear_835_1374)"/>
<path d="M137.641 99.1294H51.863C51.0759 99.1294 50.3211 98.8167 49.7645 98.2602C49.2079 97.7036 48.8953 96.9488 48.8953 96.1616C48.8953 95.3745 49.2079 94.6197 49.7645 94.0631C50.3211 93.5066 51.0759 93.1939 51.863 93.1939H137.641C138.429 93.1939 139.183 93.5066 139.74 94.0631C140.297 94.6197 140.609 95.3745 140.609 96.1616C140.609 96.9488 140.297 97.7036 139.74 98.2602C139.183 98.8167 138.429 99.1294 137.641 99.1294Z" fill="#F2F2F2"/>
<path d="M137.641 162.416H51.863C51.0759 162.416 50.3211 162.104 49.7645 161.547C49.2079 160.991 48.8953 160.236 48.8953 159.449C48.8953 158.662 49.2079 157.907 49.7645 157.35C50.3211 156.794 51.0759 156.481 51.863 156.481H137.641C138.429 156.481 139.183 156.794 139.74 157.35C140.297 157.907 140.609 158.662 140.609 159.449C140.609 160.236 140.297 160.991 139.74 161.547C139.183 162.104 138.429 162.416 137.641 162.416Z" fill="#F2F2F2"/>
<path d="M172.474 130.794H17.0303C16.2432 130.794 15.4883 130.481 14.9317 129.924C14.3752 129.368 14.0625 128.613 14.0625 127.826C14.0625 127.039 14.3752 126.284 14.9317 125.727C15.4883 125.171 16.2432 124.858 17.0303 124.858H172.474C173.261 124.858 174.016 125.171 174.573 125.727C175.129 126.284 175.442 127.039 175.442 127.826C175.442 128.613 175.129 129.368 174.573 129.924C174.016 130.481 173.261 130.794 172.474 130.794Z" fill="#F2F2F2"/>
<path d="M265.451 122.281L249.966 155.271L309.534 149.238L297.1 117.568L265.451 122.281Z" fill="#A0616A"/>
<path d="M279.3 311.895L273.652 311.847L271.152 289.555L279.487 289.625L279.3 311.895Z" fill="#A0616A"/>
<path d="M261.209 320.876C261.204 321.545 261.465 322.189 261.934 322.667C262.404 323.144 263.043 323.416 263.713 323.423L274.942 323.517L276.908 319.532L277.63 323.537L281.867 323.575L280.797 309.291L279.323 309.193L273.31 308.778L271.37 308.648L271.336 312.69L262.316 318.808C261.978 319.038 261.701 319.346 261.508 319.706C261.315 320.066 261.213 320.467 261.209 320.876Z" fill="#2F2E41"/>
<path d="M216.797 311.921L211.413 310.215L215.573 288.172L223.52 290.688L216.797 311.921Z" fill="#A0616A"/>
<path d="M196.866 315.19C196.665 315.828 196.725 316.52 197.033 317.115C197.342 317.709 197.873 318.157 198.511 318.36L209.217 321.749L212.267 318.518L211.78 322.558L215.819 323.84L218.993 309.871L217.613 309.344L211.988 307.182L210.171 306.487L208.951 310.341L198.532 313.539C198.141 313.659 197.786 313.871 197.496 314.159C197.206 314.447 196.99 314.8 196.866 315.19Z" fill="#2F2E41"/>
<path d="M306.821 139.961L252.659 149.885C252.659 149.885 243.972 156.383 246.296 158.711C248.62 161.038 248.98 160.677 247.453 162.204C245.926 163.731 242.625 165.772 242.593 167.108C242.56 168.444 218.323 228.365 218.323 228.365C218.323 228.365 221.016 227.018 218.996 229.038C216.976 231.058 216.976 232.727 216.976 232.727L207.55 296.364L222.858 297.266L237.847 239.248L271.281 185.048C271.281 185.048 274.599 233.381 274.738 236.595C274.877 239.81 276.897 235.77 274.877 239.81C272.857 243.85 271.511 241.157 272.857 243.85C274.204 246.543 268.006 301.37 268.006 301.37H281.979L311.946 187.728C311.946 187.728 322.608 155.24 306.821 139.961Z" fill="#2F2E41"/>
<path d="M290.866 49.0617L269.17 46.8074L263.549 54.1051L257.001 57.5928C254.23 59.0687 251.942 61.3116 250.412 64.0532C248.882 66.7949 248.174 69.9192 248.373 73.0526L256.026 117.568C256.026 117.568 249.562 132.124 254.006 135.746C258.45 139.369 250.57 148.341 260.065 143.826C269.561 139.31 310.56 144.499 310.56 144.499L301.808 119.588L308.346 95.1097L309.066 74.585C309.2 70.7497 308.062 66.9775 305.828 63.8567C303.595 60.7358 300.392 58.4415 296.718 57.3313L295.804 57.0551L290.866 49.0617Z" fill="#796BD4"/>
<path d="M320.735 32.4291C320.877 38.5444 318.592 44.4657 315.309 49.6667C314.333 46.6305 312.579 43.867 310.75 41.2328C311.672 46.9315 310.69 52.7751 307.956 57.8595C307.86 57.9284 307.76 57.9924 307.657 58.0513C304.981 59.6611 301.588 60.3131 298.693 59.1504C304.675 52.7027 305.436 42.0199 300.421 34.7878C299.002 32.7357 297.165 30.9208 296.286 28.5854C294.897 24.8592 296.232 20.7566 297.074 16.8716C297.861 13.2559 297.999 8.95315 295.573 6.30329C295.833 5.93297 296.186 5.6382 296.596 5.44918C297.007 5.26016 297.46 5.18368 297.91 5.22759C299.405 5.43885 300.494 6.73883 301.187 8.07774C301.881 9.4166 302.338 10.9005 303.304 12.057C305.094 14.2215 308.141 14.7333 310.709 15.874C316.929 18.6443 320.586 25.6244 320.735 32.4291Z" fill="#2F2E41"/>
<path d="M160.502 323.568C160.502 323.673 160.522 323.778 160.563 323.875C160.603 323.973 160.662 324.061 160.736 324.135C160.811 324.21 160.899 324.269 160.996 324.309C161.094 324.349 161.198 324.37 161.303 324.369H331.835C332.047 324.369 332.251 324.285 332.401 324.135C332.552 323.984 332.636 323.781 332.636 323.568C332.636 323.356 332.552 323.152 332.401 323.002C332.251 322.851 332.047 322.767 331.835 322.767H161.303C161.198 322.767 161.094 322.787 160.996 322.827C160.899 322.867 160.811 322.926 160.736 323.001C160.662 323.075 160.603 323.164 160.563 323.261C160.522 323.359 160.502 323.463 160.502 323.568Z" fill="#CCCCCC"/>
<path d="M322.078 174.163C325.424 174.163 328.137 171.451 328.137 168.104C328.137 164.758 325.424 162.045 322.078 162.045C318.731 162.045 316.018 164.758 316.018 168.104C316.018 171.451 318.731 174.163 322.078 174.163Z" fill="#796BD4"/>
<path d="M268.383 28.9326C268.739 27.6887 266.289 35.2925 267.471 35.4298C272.855 36.0474 280.245 39.2628 283.995 40.7629C284.164 40.7432 284.333 40.7236 284.497 40.6991C284.899 40.655 285.292 40.5913 285.679 40.5178C294.41 38.8657 297.768 25.4533 297.768 25.3308C297.768 24.7278 296.321 8.16724 294.041 7.92217C293.442 7.8572 292.841 7.82447 292.238 7.82412H286.581C285.411 7.57188 284.224 7.3999 283.03 7.3094H283.02C271.632 6.44172 262.652 13.3831 263.491 21.8295C263.496 21.8393 263.506 21.8491 263.511 21.8589C263.755 22.2216 263.968 22.5648 264.157 22.8932C264.341 23.2021 264.495 23.4962 264.629 23.7756C265.667 25.9325 262.999 28.6467 264.768 29.1532C267.121 29.827 258.579 51.9726 267.893 51.9726C263.362 53.2607 267.403 32.3641 268.383 28.9326Z" fill="#2F2E41"/>
<path d="M278.55 41.9267C285.947 41.9267 291.943 35.9302 291.943 28.5331C291.943 21.136 285.947 15.1394 278.55 15.1394C271.153 15.1394 265.156 21.136 265.156 28.5331C265.156 35.9302 271.153 41.9267 278.55 41.9267Z" fill="#A0616A"/>
<path d="M263.491 22.5599C263.715 22.6775 263.933 22.7853 264.157 22.8932C264.39 23.0059 264.624 23.1187 264.857 23.2216C269.342 25.256 272.993 25.4815 275.208 22.5599C275.267 21.0225 275.612 19.5097 276.226 18.0989C276.118 19.6755 276.533 21.2438 277.408 22.5599H281.868C286.462 25.609 288.821 25.9276 285.633 35.9377C284.744 38.727 281.209 54.9579 282.599 57.3649C283.002 57.3208 287.282 39.5429 287.669 39.4694C296.4 37.8174 301.948 23.4324 301.238 22.6187C301.241 20.3046 300.709 18.0211 299.683 15.9469C298.385 13.319 296.362 11.1178 293.852 9.60355C292.357 8.87824 290.797 8.29241 289.194 7.85349C289.154 7.84367 289.119 7.83386 289.08 7.82407C288.588 7.6917 288.086 7.56915 287.585 7.46621C286.548 7.24739 285.5 7.08862 284.446 6.99071C284.371 6.9858 284.297 6.98089 284.227 6.98089C283.806 6.98187 283.393 7.09527 283.03 7.30935C283.025 7.30935 283.025 7.31423 283.02 7.31423C282.761 7.46566 282.535 7.66732 282.355 7.90738C282.038 8.3113 281.866 8.81051 281.868 9.3241H276.901C276.718 9.3241 276.534 9.32899 276.35 9.33879C273.035 9.45207 269.882 10.7982 267.507 13.1139C265.133 15.4295 263.708 18.5479 263.511 21.8588C263.496 22.0941 263.491 22.3245 263.491 22.5599Z" fill="#2F2E41"/>
<path d="M292.776 18.2782C297.649 18.2782 301.6 14.3277 301.6 9.45443C301.6 4.58117 297.649 0.630615 292.776 0.630615C287.903 0.630615 283.952 4.58117 283.952 9.45443C283.952 14.3277 287.903 18.2782 292.776 18.2782Z" fill="#2F2E41"/>
<path d="M322.146 170.603C322.576 169.924 322.854 169.159 322.96 168.362C323.067 167.565 322.998 166.754 322.76 165.986C322.522 165.218 322.12 164.511 321.582 163.913C321.044 163.316 320.382 162.843 319.643 162.526L319.687 134.854L312.036 132.96L312.224 165.827C311.784 167.111 311.83 168.511 312.353 169.764C312.876 171.016 313.841 172.033 315.064 172.622C316.287 173.21 317.683 173.33 318.988 172.958C320.294 172.586 321.417 171.748 322.146 170.603Z" fill="#A0616A"/>
<path d="M284.257 68.9517L296.163 60.8601C296.719 60.4826 297.347 60.2255 298.008 60.1051C298.668 59.9848 299.347 60.0039 300 60.1614C300.653 60.3188 301.266 60.611 301.799 61.0192C302.332 61.4274 302.774 61.9426 303.097 62.5318L323.566 99.9375L323.645 154.681L310.865 153.88L305.618 108.684L284.257 68.9517Z" fill="#796BD4"/>
<path d="M192.815 193.102H65.5682C62.8005 193.102 60.1461 194.202 58.1891 196.159C56.232 198.116 55.1326 200.77 55.1326 203.538C55.1326 206.306 56.232 208.96 58.1891 210.917C60.1461 212.874 62.8005 213.973 65.5682 213.973H192.815C195.583 213.973 198.238 212.874 200.195 210.917C202.152 208.96 203.251 206.306 203.251 203.538C203.251 200.77 202.152 198.116 200.195 196.159C198.238 194.202 195.583 193.102 192.815 193.102Z" fill="#F7F5FA"/>
<path d="M192.815 214.647H65.5681C62.6219 214.647 59.7963 213.476 57.7129 211.393C55.6296 209.31 54.4592 206.484 54.4592 203.538C54.4592 200.592 55.6296 197.766 57.7129 195.683C59.7963 193.599 62.6219 192.429 65.5681 192.429H192.815C195.762 192.429 198.587 193.599 200.671 195.683C202.754 197.766 203.924 200.592 203.924 203.538C203.924 206.484 202.754 209.31 200.671 211.393C198.587 213.476 195.762 214.647 192.815 214.647ZM65.5681 193.776C62.979 193.776 60.4959 194.804 58.6651 196.635C56.8343 198.466 55.8058 200.949 55.8058 203.538C55.8058 206.127 56.8343 208.61 58.6651 210.441C60.4959 212.272 62.979 213.3 65.5681 213.3H192.815C195.405 213.3 197.888 212.272 199.718 210.441C201.549 208.61 202.578 206.127 202.578 203.538C202.578 200.949 201.549 198.466 199.718 196.635C197.888 194.804 195.405 193.776 192.815 193.776H65.5681Z" fill="#796BD4"/>
<path d="M200.319 238.644H144.164C143.377 238.644 142.622 238.331 142.066 237.775C141.509 237.218 141.196 236.463 141.196 235.676C141.196 234.889 141.509 234.134 142.066 233.578C142.622 233.021 143.377 232.708 144.164 232.708H200.319C201.106 232.708 201.861 233.021 202.417 233.578C202.974 234.134 203.287 234.889 203.287 235.676C203.287 236.463 202.974 237.218 202.417 237.775C201.861 238.331 201.106 238.644 200.319 238.644Z" fill="#796BD4"/>
</g>
<defs>
<linearGradient id="paint0_linear_835_1374" x1="88.779" y1="260.093" x2="181.643" y2="72.4315" gradientUnits="userSpaceOnUse">
<stop stop-color="#53389E"/>
<stop offset="0.779045" stop-color="#643FBD"/>
<stop offset="1" stop-color="#6941C6"/>
</linearGradient>
<linearGradient id="paint1_linear_835_1374" x1="49.5612" y1="232.826" x2="138.722" y2="52.5706" gradientUnits="userSpaceOnUse">
<stop stop-color="#53389E"/>
<stop offset="0.779045" stop-color="#643FBD"/>
<stop offset="1" stop-color="#6941C6"/>
</linearGradient>
<clipPath id="clip0_835_1374">
<rect width="332.231" height="323.739" fill="white" transform="translate(0.5 0.630615)"/>
</clipPath>
</defs>
</svg>
