<svg width="18" height="18" viewBox="0 0 18 18" fill="none" xmlns="http://www.w3.org/2000/svg">
<path d="M6.44485 5.25454C6.14542 5.25454 5.91016 5.01063 5.91016 4.71651V2.71503C5.91016 2.42091 6.14542 2.177 6.44485 2.177C6.74427 2.177 6.97953 2.42091 6.97953 2.71503V4.70933C6.97953 5.01063 6.74427 5.25454 6.44485 5.25454Z" fill="#292D32"/>
<path d="M11.7359 5.25454C11.4364 5.25454 11.2012 5.01063 11.2012 4.71651V2.71503C11.2012 2.41374 11.4436 2.177 11.7359 2.177C12.0353 2.177 12.2705 2.42091 12.2705 2.71503V4.70933C12.2705 5.01063 12.0353 5.25454 11.7359 5.25454Z" fill="#292D32"/>
<path d="M15.8638 12.0912C15.8638 12.1988 15.8281 12.3064 15.7354 12.3997C14.7017 13.447 12.8624 15.3122 11.8073 16.3811C11.7146 16.4815 11.5934 16.5246 11.4722 16.5246C11.2369 16.5246 11.0088 16.3381 11.0088 16.0655V13.5546C11.0088 12.5073 11.8928 11.6393 12.9764 11.6393C13.6537 11.6321 14.5948 11.6321 15.4004 11.6321C15.6784 11.6321 15.8638 11.8545 15.8638 12.0912Z" fill="#292D32"/>
<path d="M15.8638 12.0912C15.8638 12.1988 15.8281 12.3064 15.7354 12.3997C14.7017 13.447 12.8624 15.3122 11.8073 16.3811C11.7146 16.4815 11.5934 16.5246 11.4722 16.5246C11.2369 16.5246 11.0088 16.3381 11.0088 16.0655V13.5546C11.0088 12.5073 11.8928 11.6393 12.9764 11.6393C13.6537 11.6321 14.5948 11.6321 15.4004 11.6321C15.6784 11.6321 15.8638 11.8545 15.8638 12.0912Z" fill="#292D32"/>
<path d="M14.4874 3.97055C14.0169 3.61903 13.3396 3.9562 13.3396 4.55162V4.62336C13.3396 5.46269 12.7407 6.23745 11.9066 6.32354C10.9442 6.42397 10.1315 5.66355 10.1315 4.71662V3.97055C10.1315 3.57599 9.81064 3.25317 9.41854 3.25317H8.76265C8.37055 3.25317 8.04974 3.57599 8.04974 3.97055V4.62336C8.04974 5.25465 7.71466 5.8429 7.19423 6.12985C7.16572 6.15137 7.1372 6.16571 7.10868 6.18006C7.10155 6.18006 7.10155 6.18724 7.09443 6.18724C7.04452 6.20876 6.99462 6.23028 6.93758 6.2518C6.92332 6.25897 6.90907 6.25897 6.89481 6.26615C6.80926 6.29484 6.71658 6.31636 6.61677 6.32354H6.60964C6.5027 6.33788 6.38864 6.33788 6.2817 6.32354H6.27457C6.17476 6.31636 6.08208 6.29484 5.99653 6.26615C5.92524 6.24463 5.85395 6.21593 5.78266 6.18006C5.22658 5.92898 4.8416 5.36943 4.8416 4.71662V4.55162C4.8416 3.99924 4.25701 3.66925 3.79361 3.90598C3.78648 3.91316 3.77935 3.91316 3.77222 3.92033H3.7651C3.71519 3.9562 3.67242 3.99207 3.62251 4.02794C3.54409 4.0925 3.46567 4.15707 3.39438 4.2288C3.34447 4.27902 3.29457 4.32924 3.25179 4.37945C3.19476 4.43684 3.14486 4.49423 3.09495 4.5588C3.05931 4.60184 3.01653 4.64488 2.98801 4.6951C2.95237 4.73814 2.92385 4.78836 2.89534 4.8314C2.88821 4.83857 2.88108 4.84575 2.87395 4.86009C2.80978 4.95335 2.75275 5.06096 2.70285 5.16139C2.68859 5.17574 2.68146 5.18291 2.68146 5.19726C2.63868 5.28334 2.59591 5.36943 2.56739 5.46269C2.546 5.49856 2.53888 5.52725 2.52462 5.56312C2.51036 5.59181 2.50323 5.62768 2.48897 5.65638C2.46758 5.72812 2.4462 5.80703 2.42481 5.88594C2.39629 5.98637 2.3749 6.09398 2.36065 6.20158C2.34639 6.28049 2.33926 6.35941 2.33213 6.44549C2.325 6.54592 2.31787 6.64636 2.31787 6.74679V13.031C2.31787 14.9607 3.87203 16.5246 5.78978 16.5246H9.22605C9.61816 16.5246 9.93897 16.2018 9.93897 15.8072V13.5547C9.93897 11.9047 11.3006 10.5632 12.976 10.5632C13.3539 10.556 14.2735 10.556 15.1504 10.556C15.5425 10.556 15.8633 10.2332 15.8633 9.83867V6.74679C15.8633 5.60616 15.3215 4.60901 14.4874 3.97055ZM8.47036 12.1558C8.4062 12.371 8.20658 12.5217 7.97132 12.5217H5.37629C5.34065 12.5217 5.31213 12.5217 5.28361 12.5073C5.02696 12.4714 4.8416 12.2491 4.8416 11.9836C4.8416 11.6823 5.07687 11.4384 5.37629 11.4384H7.97132C8.26361 11.4384 8.506 11.6823 8.506 11.9836C8.506 12.041 8.49887 12.1056 8.47036 12.1558ZM10.4523 9.49433C10.3881 9.70955 10.1885 9.86019 9.95323 9.86019H5.37629C5.34065 9.86019 5.31213 9.86019 5.28361 9.84585C5.02696 9.80998 4.8416 9.58759 4.8416 9.32216C4.8416 9.02087 5.07687 8.77696 5.37629 8.77696H9.95323C10.2527 8.77696 10.4879 9.02087 10.4879 9.32216C10.4879 9.37955 10.4808 9.44412 10.4523 9.49433Z" fill="#292D32"/>
</svg>
