<svg width="23" height="23" viewBox="0 0 23 23" fill="none" xmlns="http://www.w3.org/2000/svg">
<g clip-path="url(#clip0_961_980)">
<path d="M11.5003 -3.95508C19.9653 -3.95508 26.8117 2.89129 26.8117 11.3563C26.8117 19.8213 19.9653 26.6677 11.5003 26.6677C3.03533 26.6677 -3.81104 19.8213 -3.81104 11.3563C-3.81104 2.89129 3.03533 -3.95508 11.5003 -3.95508ZM8.70054 19.4276C15.4813 19.4276 19.1998 13.8061 19.1998 8.92834V8.44713C19.9216 7.92217 20.5559 7.26597 21.0371 6.52227C20.3809 6.80663 19.6591 7.00349 18.9154 7.11285C19.681 6.65351 20.2716 5.93169 20.534 5.07863C19.8122 5.49422 19.0248 5.80045 18.1936 5.97544C17.5155 5.25362 16.5531 4.81615 15.5032 4.81615C13.4689 4.81615 11.8066 6.47852 11.8066 8.51275C11.8066 8.7971 11.8284 9.08146 11.9159 9.34394C8.85365 9.19082 6.11948 7.72531 4.30399 5.49422C3.99776 6.04106 3.8009 6.67539 3.8009 7.35346C3.8009 8.62212 4.4571 9.75953 5.44141 10.4157C4.82895 10.4157 4.26024 10.2407 3.77903 9.95639V10.0001C3.77903 11.7938 5.04768 13.2811 6.73193 13.6311C6.42571 13.7186 6.09761 13.7624 5.76951 13.7624C5.5289 13.7624 5.31016 13.7405 5.06956 13.6967C5.5289 15.1623 6.90692 16.2341 8.50368 16.2559C7.23502 17.2402 5.63827 17.8308 3.91027 17.8308C3.60404 17.8308 3.31969 17.8308 3.03533 17.7871C4.65396 18.837 6.60069 19.4494 8.67867 19.4494" fill="black"/>
</g>
<defs>
<clipPath id="clip0_961_980">
<rect width="21.4359" height="21.4359" fill="white" transform="translate(0.782227 0.638184)"/>
</clipPath>
</defs>
</svg>
