<svg width="32" height="33" viewBox="0 0 32 33" fill="none" xmlns="http://www.w3.org/2000/svg">
<path d="M6.90716 5.63542H29.7231L26.619 16.5H8.57866M28.1711 22.7083H9.54606L6.44189 2.53125H1.78564M11.0981 28.9167C11.0981 29.7739 10.4032 30.4688 9.54606 30.4688C8.68888 30.4688 7.99398 29.7739 7.99398 28.9167C7.99398 28.0595 8.68888 27.3646 9.54606 27.3646C10.4032 27.3646 11.0981 28.0595 11.0981 28.9167ZM28.1711 28.9167C28.1711 29.7739 27.4762 30.4688 26.619 30.4688C25.7618 30.4688 25.0669 29.7739 25.0669 28.9167C25.0669 28.0595 25.7618 27.3646 26.619 27.3646C27.4762 27.3646 28.1711 28.0595 28.1711 28.9167Z" stroke="black" stroke-width="3.10417" stroke-linecap="round" stroke-linejoin="round"/>
</svg>
