<svg width="15" height="15" viewBox="0 0 15 15" fill="none" xmlns="http://www.w3.org/2000/svg">
<path d="M7.44422 0.541992C3.53267 0.541992 0.361816 3.71285 0.361816 7.6244C0.361816 11.5359 3.53267 14.7068 7.44422 14.7068C11.3558 14.7068 14.5266 11.5359 14.5266 7.6244C14.5266 3.71285 11.3558 0.541992 7.44422 0.541992ZM8.05578 11.4643V12.4618H7.10165V11.4755C5.53596 11.2611 4.85033 9.97464 4.85033 9.97464L5.82493 9.15939C5.82493 9.15939 6.44721 10.2427 7.57287 10.2427C8.19466 10.2427 8.66637 9.90983 8.66637 9.34115C8.66637 8.0118 5.08472 8.17309 5.08472 5.70687C5.08472 4.63482 5.93262 3.86245 7.10116 3.67971V2.68318H8.05529V3.67971C8.87006 3.78692 9.83491 4.21574 9.83491 5.1382V5.84575H8.56988V5.5027C8.56988 5.14892 8.11913 4.91306 7.61478 4.91306C6.97154 4.91306 6.50032 5.23468 6.50032 5.68495C6.50032 7.04646 10.082 6.71412 10.082 9.29827C10.082 10.3606 9.28865 11.2816 8.05578 11.4643Z" fill="black"/>
</svg>
