<svg width="12" height="12" viewBox="0 0 12 12" fill="none" xmlns="http://www.w3.org/2000/svg">
<path d="M10.5239 4.67112L10.5241 4.67165C10.5384 4.71762 10.5226 4.76205 10.4976 4.78484L10.4972 4.78521L8.16229 6.92156L7.9501 7.11571L8.01124 7.39674L8.69969 10.5613C8.6997 10.5613 8.69972 10.5614 8.69973 10.5614C8.7102 10.6101 8.68974 10.6509 8.66552 10.6692L8.66548 10.6693C8.654 10.6779 8.64372 10.6807 8.63564 10.681C8.62761 10.6814 8.61826 10.6796 8.60773 10.673L8.60655 10.6723L5.943 9.01052L5.67839 8.84543L5.41375 9.01047L2.74922 10.6722L2.749 10.6724C2.74272 10.6763 2.7375 10.6784 2.73349 10.6795C2.72947 10.6807 2.72578 10.6812 2.72222 10.6812C2.71793 10.6812 2.71338 10.6805 2.70847 10.6789C2.70361 10.6772 2.69735 10.6743 2.69007 10.6688C2.66669 10.6511 2.64585 10.6107 2.65653 10.5611C2.65653 10.5611 2.65654 10.5611 2.65655 10.561L3.34495 7.39674L3.40608 7.11574L3.19394 6.9216L0.859043 4.78481L0.858108 4.78396C0.834412 4.76239 0.81807 4.71826 0.832514 4.67191C0.846196 4.628 0.875704 4.61438 0.892192 4.61272C0.892246 4.61272 0.8923 4.61271 0.892354 4.61271L3.98096 4.32011L4.28194 4.2916L4.39651 4.01182L5.61773 1.02962C5.61777 1.02953 5.61781 1.02943 5.61785 1.02934C5.63496 0.987964 5.66379 0.978882 5.67834 0.978882C5.69309 0.978882 5.72197 0.988192 5.73898 1.02919C5.73902 1.02929 5.73906 1.02939 5.73911 1.02949L6.96016 4.01179L7.07472 4.29159L7.37571 4.32011L10.4647 4.61279L10.465 4.61282C10.481 4.61433 10.5105 4.62776 10.5239 4.67112Z" stroke="#FFC107"/>
</svg>
