<svg width="11" height="12" viewBox="0 0 11 12" fill="none" xmlns="http://www.w3.org/2000/svg">
<path d="M10.8511 4.52315C10.7811 4.29702 10.5889 4.13641 10.3615 4.11502L7.27249 3.82234L6.05103 0.839045C5.96096 0.620408 5.75585 0.478882 5.52795 0.478882C5.30005 0.478882 5.09494 0.620408 5.00487 0.839556L3.78341 3.82234L0.693953 4.11502C0.466955 4.13692 0.275231 4.29702 0.204764 4.52315C0.134296 4.74929 0.199375 4.99732 0.371093 5.15367L2.70599 7.29045L2.01748 10.4552C1.9671 10.6879 2.05365 10.9285 2.23868 11.068C2.33814 11.143 2.45449 11.1812 2.57183 11.1812C2.673 11.1812 2.77335 11.1527 2.86342 11.0965L5.52795 9.43473L8.1915 11.0965C8.38641 11.2188 8.63211 11.2077 8.81673 11.068C9.00184 10.928 9.08831 10.6874 9.03793 10.4552L8.34942 7.29045L10.6843 5.1541C10.856 4.99732 10.9216 4.74971 10.8511 4.52315Z" fill="#FFC107"/>
</svg>
