<svg width="18" height="19" viewBox="0 0 18 19" fill="none" xmlns="http://www.w3.org/2000/svg">
<path d="M9.09144 2.36914C7.22359 2.36914 5.70508 3.89715 5.70508 5.77667C5.70508 7.62032 7.13804 9.11246 9.00589 9.17702C9.06292 9.16985 9.11996 9.16985 9.16273 9.17702C9.17699 9.17702 9.18412 9.17702 9.19838 9.17702C9.20551 9.17702 9.20551 9.17702 9.21264 9.17702C11.0377 9.11246 12.4707 7.62032 12.4778 5.77667C12.4778 3.89715 10.9593 2.36914 9.09144 2.36914Z" fill="#292D32"/>
<path d="M12.7128 11.0852C10.7238 9.75089 7.48002 9.75089 5.47671 11.0852C4.57131 11.695 4.07227 12.52 4.07227 13.4023C4.07227 14.2847 4.57131 15.1025 5.46959 15.7051C6.46767 16.3794 7.77944 16.7166 9.09121 16.7166C10.403 16.7166 11.7148 16.3794 12.7128 15.7051C13.6111 15.0953 14.1102 14.2775 14.1102 13.388C14.103 12.5056 13.6111 11.6878 12.7128 11.0852Z" fill="#292D32"/>
</svg>
