<svg width="18" height="18" viewBox="0 0 18 18" fill="none" xmlns="http://www.w3.org/2000/svg">
<path d="M9.30014 3.78418C5.89239 3.78418 3.11914 6.57477 3.11914 10.0038C3.11914 13.4329 5.89239 16.2306 9.30014 16.2306C12.7079 16.2306 15.4811 13.44 15.4811 10.011C15.4811 6.58194 12.7079 3.78418 9.30014 3.78418ZM9.83483 9.77426C9.83483 10.0684 9.59244 10.3123 9.30014 10.3123C9.00785 10.3123 8.76546 10.0684 8.76546 9.77426V6.18738C8.76546 5.89326 9.00785 5.64935 9.30014 5.64935C9.59244 5.64935 9.83483 5.89326 9.83483 6.18738V9.77426Z" fill="#292D32"/>
<path d="M11.3605 2.92325H7.23986C6.9547 2.92325 6.72656 2.69369 6.72656 2.40674C6.72656 2.11979 6.9547 1.88306 7.23986 1.88306H11.3605C11.6457 1.88306 11.8738 2.11262 11.8738 2.39957C11.8738 2.68652 11.6457 2.92325 11.3605 2.92325Z" fill="#292D32"/>
</svg>
