<svg width="32" height="30" viewBox="0 0 32 30" fill="none" xmlns="http://www.w3.org/2000/svg">
<path d="M29 0H3C1.34375 0 0 1.43973 0 3.21429V26.7857C0 28.5603 1.34375 30 3 30H29C30.6562 30 32 28.5603 32 26.7857V3.21429C32 1.43973 30.6562 0 29 0ZM23.775 19.4531C24.075 19.7746 24.075 20.2969 23.775 20.6183L21.2437 23.3304C20.9437 23.6518 20.4563 23.6518 20.1562 23.3304L16 18.8371L11.8438 23.3304C11.5437 23.6518 11.0563 23.6518 10.7563 23.3304L8.225 20.6183C7.925 20.2969 7.925 19.7746 8.225 19.4531L12.4187 15L8.225 10.5469C7.925 10.2254 7.925 9.70313 8.225 9.3817L10.7563 6.66964C11.0563 6.34821 11.5437 6.34821 11.8438 6.66964L16 11.1629L20.1562 6.66964C20.4563 6.34821 20.9437 6.34821 21.2437 6.66964L23.775 9.3817C24.075 9.70313 24.075 10.2254 23.775 10.5469L19.5812 15L23.775 19.4531Z" fill="#796BD4"/>
</svg>
