<svg width="108" height="30" viewBox="0 0 108 30" fill="none" xmlns="http://www.w3.org/2000/svg">
<path d="M46.8773 11.38V13.12H51.2773V16.46H46.8773V18.46H51.8773V22H42.4373V7.84H51.8773V11.38H46.8773ZM52.9506 16.36C52.9506 15.1733 53.1506 14.1467 53.5506 13.28C53.9639 12.4 54.5239 11.7333 55.2306 11.28C55.9373 10.8133 56.7306 10.58 57.6106 10.58C58.3439 10.58 58.9706 10.7333 59.4906 11.04C60.0239 11.3333 60.4306 11.74 60.7106 12.26V7.2H65.1506V22H60.7106V20.46C60.4306 20.98 60.0239 21.3933 59.4906 21.7C58.9706 21.9933 58.3439 22.14 57.6106 22.14C56.7306 22.14 55.9373 21.9133 55.2306 21.46C54.5239 20.9933 53.9639 20.3267 53.5506 19.46C53.1506 18.58 52.9506 17.5467 52.9506 16.36ZM60.7306 16.36C60.7306 15.76 60.5773 15.2933 60.2706 14.96C59.9639 14.6267 59.5706 14.46 59.0906 14.46C58.6106 14.46 58.2173 14.6267 57.9106 14.96C57.6039 15.2933 57.4506 15.76 57.4506 16.36C57.4506 16.96 57.6039 17.4267 57.9106 17.76C58.2173 18.0933 58.6106 18.26 59.0906 18.26C59.5706 18.26 59.9639 18.0933 60.2706 17.76C60.5773 17.4267 60.7306 16.96 60.7306 16.36ZM79.0843 10.72V22H74.6443V20.28C74.2977 20.8133 73.831 21.2467 73.2443 21.58C72.671 21.9133 71.9843 22.08 71.1843 22.08C69.891 22.08 68.8777 21.6467 68.1443 20.78C67.4243 19.9133 67.0643 18.74 67.0643 17.26V10.72H71.4843V16.7C71.4843 17.2333 71.6243 17.66 71.9043 17.98C72.1977 18.2867 72.5843 18.44 73.0643 18.44C73.5577 18.44 73.9443 18.2867 74.2243 17.98C74.5043 17.66 74.6443 17.2333 74.6443 16.7V10.72H79.0843ZM86.8097 17.78L88.6097 10.72H93.3297L89.5697 22H84.0297L80.2697 10.72H84.9897L86.8097 17.78ZM96.7476 9.82C95.9743 9.82 95.3543 9.61333 94.8876 9.2C94.421 8.78667 94.1876 8.26667 94.1876 7.64C94.1876 7 94.421 6.47333 94.8876 6.06C95.3543 5.63333 95.9743 5.42 96.7476 5.42C97.5076 5.42 98.121 5.63333 98.5876 6.06C99.0543 6.47333 99.2876 7 99.2876 7.64C99.2876 8.26667 99.0543 8.78667 98.5876 9.2C98.121 9.61333 97.5076 9.82 96.7476 9.82ZM98.9476 10.72V22H94.5076V10.72H98.9476Z" fill="#0A033C"/>
<rect y="4" width="36" height="20" rx="5" fill="#FF6652"/>
<g clip-path="url(#clip0_473_2467)">
<path d="M10.5045 9.4165C10.5039 9.4165 10.5032 9.4165 10.5027 9.4165C10.2984 9.4165 10.1062 9.46075 9.96113 9.54115C9.81444 9.62244 9.73364 9.73069 9.73364 9.84592V16.2849C9.73364 16.521 10.0808 16.7136 10.5075 16.7142C12.3067 16.7166 15.3209 16.9249 17.4004 18.1339V11.3953C17.4004 11.3152 17.3636 11.24 17.2941 11.1778C15.5874 9.65085 12.3077 9.41885 10.5045 9.4165Z" fill="white"/>
<path d="M26.2674 16.285V9.84592C26.2674 9.73069 26.1866 9.62244 26.0399 9.54115C25.8948 9.46075 25.7025 9.4165 25.4984 9.4165C25.4977 9.4165 25.4971 9.4165 25.4965 9.4165C23.6934 9.41889 20.4137 9.65089 18.7069 11.1778C18.6374 11.2401 18.6007 11.3153 18.6007 11.3953V18.1339C20.6801 16.9249 23.6944 16.7166 25.4935 16.7142C25.9202 16.7136 26.2674 16.5211 26.2674 16.285Z" fill="white"/>
<path d="M28.0268 10.9014H27.4663V16.2849C27.4663 16.8877 26.5822 17.3793 25.4953 17.3808C23.9693 17.3828 21.4531 17.5486 19.671 18.4856C22.7531 18.0664 26.0021 18.3389 27.8537 18.5734C28.0849 18.6026 28.3239 18.5724 28.5091 18.4904C28.6937 18.4085 28.7996 18.2862 28.7996 18.155V11.3307C28.7996 11.094 28.4529 10.9014 28.0268 10.9014Z" fill="white"/>
<path d="M8.53319 16.2849V10.9014H7.97275C7.54672 10.9014 7.19995 11.094 7.19995 11.3307V18.1548C7.19995 18.2862 7.30584 18.4084 7.49042 18.4902C7.67552 18.5722 7.91421 18.6026 8.14577 18.5732C9.99742 18.3388 13.2465 18.0663 16.3284 18.4855C14.5464 17.5485 12.0302 17.3828 10.5042 17.3808C9.41741 17.3793 8.53319 16.8877 8.53319 16.2849Z" fill="white"/>
</g>
<defs>
<clipPath id="clip0_473_2467">
<rect width="21.6" height="12" fill="white" transform="translate(7.19995 8)"/>
</clipPath>
</defs>
</svg>
