<svg width="327" height="323" viewBox="0 0 327 323" fill="none" xmlns="http://www.w3.org/2000/svg">
<path d="M316.057 291.494C314.604 290.678 312.785 290.02 310.857 289.582C306.499 288.596 301.641 288.523 296.906 288.462C255.869 287.963 215.114 287.78 174.066 287.78C141.744 287.525 109.436 287.257 77.1143 287.099C61.918 287.026 46.685 286.965 31.5375 287.671C25.2637 287.963 18.7336 288.438 13.5461 290.374C8.35855 292.309 5.06302 296.132 7.69946 299.224C12.0814 304.337 26.765 304.045 35.2481 304.057C100.659 304.154 166.083 303.96 231.494 303.753C253.392 303.68 275.289 303.619 297.15 302.986C302.044 302.84 307.098 302.657 311.492 301.476C315.898 300.307 319.548 297.897 319.279 295.255C319.145 293.819 317.888 292.528 316.057 291.494Z" fill="#D9E0FC"/>
<path d="M318.266 178.252C317.155 178.495 315.886 178.629 314.457 178.629C265.365 178.629 216.286 178.629 167.194 178.617C142.647 178.617 118.101 178.617 93.5676 178.605C82.1429 178.605 36.322 184.911 31.3542 173.65C30.3045 171.276 30.3045 168.659 30.3045 166.102C30.3045 117.906 30.4388 69.7093 30.4388 21.5127C30.4388 19.8084 30.4388 18.0918 30.4388 16.3875C30.4388 12.784 33.6611 9.86228 37.6281 9.86228C91.3095 9.86228 144.979 9.86228 198.66 9.86228C226.404 9.86228 254.148 9.86228 281.904 9.86228C293.585 9.86228 325.565 4.43273 325.565 19.6866C325.565 48.6727 325.553 77.671 325.553 106.657C325.553 121.485 325.553 136.325 325.553 151.153C325.54 160.587 329.886 175.683 318.266 178.252Z" fill="#D9E0FC"/>
<path d="M301.702 168.452C297.223 171.52 288.935 169.779 282.039 169.779C268.453 169.779 254.88 169.779 241.295 169.779C204.543 169.779 167.804 169.779 131.052 169.779C94.0191 169.779 56.9987 169.779 19.966 169.779C18.721 169.779 17.7201 168.781 17.7201 167.539C17.7079 138.821 17.537 110.09 17.476 81.3719C17.4394 67.0067 17.4394 52.6536 17.5004 38.2884C17.537 28.8901 13.6922 8.24319 20.0271 0.890147C21.8091 -1.16724 44.805 1.3771 47.6734 1.3771C60.0136 1.35275 72.3536 1.3284 84.6816 1.30406C108.63 1.25536 132.578 1.20668 156.525 1.14581C188.7 1.14581 220.887 1.01188 253.062 0.938834C269.991 0.902312 301.483 0.999713 303.863 1.02406C306.926 1.06058 305.608 48.6119 305.632 52.1301C305.791 71.7423 305.694 91.3667 305.51 110.979C305.376 125.624 305.169 140.269 305.01 154.927C304.986 156.874 304.961 158.822 304.961 160.77C304.973 164.702 303.716 167.064 301.702 168.452Z" fill="#FF6652"/>
<path d="M295.782 153.892C286.97 153.661 278.133 153.831 269.32 153.831C260.495 153.831 251.67 153.843 242.858 153.843C225.208 153.855 207.57 153.868 189.921 153.88C154.817 153.904 119.7 153.916 84.5961 154.014C74.6972 154.038 64.7859 154.062 54.887 154.099C45.0002 154.123 35.0402 154.001 25.1778 154.695C24.6042 154.732 24.6042 155.535 25.1778 155.584C33.9783 156.205 42.8276 156.095 51.6403 156.168C60.4651 156.241 69.2899 156.217 78.1026 156.241C95.7523 156.29 113.39 156.302 131.04 156.327C166.144 156.375 201.26 156.4 236.364 156.424C246.263 156.436 256.174 156.436 266.073 156.448C275.972 156.461 285.883 156.655 295.782 156.4C297.406 156.363 297.418 153.928 295.782 153.892Z" fill="#9C4DF4"/>
<path d="M285.639 152.553C285.346 151.652 284.834 150.861 284.126 150.203C283.21 149.302 282.136 148.669 280.891 148.328C280.671 148.255 280.452 148.182 280.244 148.109C279.28 147.805 278.316 147.768 277.364 147.975C276.399 148.024 275.508 148.304 274.678 148.827C274.19 149.205 273.702 149.582 273.214 149.96C272.506 150.617 272.005 151.384 271.724 152.285C271.395 152.845 271.236 153.454 271.236 154.111C271.017 155.073 271.065 156.022 271.37 156.984C271.615 157.556 271.859 158.128 272.103 158.713C272.75 159.796 273.616 160.661 274.703 161.306C274.898 161.44 275.081 161.574 275.276 161.708C276.424 162.365 277.657 162.706 278.975 162.706C279.622 162.621 280.269 162.535 280.928 162.45C282.173 162.097 283.247 161.476 284.162 160.575C284.882 159.918 285.383 159.127 285.676 158.226C286.14 157.349 286.347 156.412 286.311 155.414C286.311 154.367 286.103 153.429 285.639 152.553Z" fill="#9C4DF4"/>
<path d="M248.387 216.295L47.8811 213.337L48.6745 6.39282L247.801 7.92673L248.387 216.295Z" fill="white" stroke="black" stroke-width="0.5" stroke-miterlimit="10"/>
<path d="M92.8351 169.657C92.237 177.278 91.6389 184.887 91.0408 192.508C90.9554 193.542 90.223 194.419 89.1245 194.419C85.6092 194.431 82.1061 194.443 78.5908 194.468C75.4417 194.48 72.2926 194.492 69.1435 194.504C68.3135 194.504 67.4469 194.516 66.7023 194.078C65.8845 193.591 65.4939 192.751 65.384 191.85C65.2254 190.377 65.3963 188.819 65.4329 187.334C65.555 181.052 65.7869 174.77 66.4826 168.513C66.6047 167.381 67.8741 167.125 68.4599 167.782C69.4852 167.466 70.718 167.612 71.7311 167.612C73.0005 167.612 74.2577 167.624 75.5271 167.624C80.6292 167.648 85.7435 167.673 90.8456 167.673C91.8587 167.673 92.9206 168.586 92.8351 169.657ZM87.3425 190.608C87.8063 184.29 88.2579 177.972 88.7217 171.654C85.7312 171.666 82.7286 171.69 79.7382 171.702C77.8829 171.715 76.0276 171.727 74.1845 171.739C73.2325 171.751 72.2926 171.751 71.3405 171.751C70.9988 171.751 70.657 171.751 70.3153 171.751C69.9491 172.055 69.4852 172.238 68.997 172.262C69.0947 174.295 69.1557 176.341 69.1923 178.386C69.2411 181.32 69.1923 184.254 69.1557 187.188C69.1435 187.955 69.1312 188.722 69.119 189.488C69.1068 189.89 69.1313 190.316 69.1313 190.742C69.2899 190.755 69.4364 190.767 69.5585 190.767L71.5847 190.755C76.8332 190.706 82.0817 190.657 87.3425 190.608Z" fill="#9C4DF4"/>
<path d="M92.8351 125.222C92.237 132.843 91.6389 140.452 91.0408 148.073C90.9554 149.108 90.223 149.984 89.1245 149.984C85.6092 149.996 82.1061 150.008 78.5908 150.033C75.4417 150.045 72.2926 150.057 69.1435 150.069C68.3135 150.069 67.4469 150.081 66.7023 149.643C65.8845 149.156 65.4939 148.316 65.384 147.415C65.2254 145.942 65.3963 144.384 65.4329 142.899C65.555 136.617 65.7869 130.335 66.4826 124.078C66.6047 122.946 67.8741 122.69 68.4599 123.348C69.4852 123.031 70.718 123.177 71.7311 123.177C73.0005 123.177 74.2577 123.189 75.5271 123.189C80.6292 123.214 85.7435 123.238 90.8456 123.238C91.8587 123.238 92.9206 124.151 92.8351 125.222ZM87.3425 146.174C87.8063 139.855 88.2579 133.537 88.7217 127.219C85.7312 127.231 82.7286 127.255 79.7382 127.268C77.8829 127.28 76.0276 127.292 74.1845 127.304C73.2325 127.304 72.2926 127.316 71.3405 127.316C70.9988 127.316 70.657 127.316 70.3153 127.316C69.9491 127.621 69.4852 127.803 68.997 127.828C69.0947 129.861 69.1557 131.906 69.1923 133.951C69.2411 136.885 69.1923 139.819 69.1557 142.753C69.1435 143.52 69.1312 144.287 69.119 145.054C69.1068 145.455 69.1313 145.881 69.1313 146.308C69.2899 146.32 69.4364 146.332 69.5585 146.332L71.5847 146.32C76.8332 146.271 82.0817 146.222 87.3425 146.174Z" fill="#9C4DF4"/>
<path d="M92.8351 80.7875C92.237 88.4084 91.6389 96.0171 91.0408 103.638C90.9554 104.673 90.223 105.549 89.1245 105.549C85.6092 105.561 82.1061 105.574 78.5908 105.598C75.4417 105.61 72.2926 105.622 69.1435 105.634C68.3135 105.634 67.4469 105.647 66.7023 105.208C65.8845 104.721 65.4939 103.881 65.384 102.981C65.2254 101.508 65.3963 99.9493 65.4329 98.464C65.555 92.1823 65.7869 85.9006 66.4826 79.6432C66.6047 78.511 67.8741 78.2554 68.4599 78.9127C69.4852 78.5962 70.718 78.7423 71.7311 78.7423C73.0005 78.7423 74.2577 78.7545 75.5271 78.7545C80.6292 78.7788 85.7435 78.8032 90.8456 78.8032C91.8587 78.8032 92.9206 79.7162 92.8351 80.7875ZM87.3425 101.739C87.8063 95.4206 88.2579 89.1023 88.7217 82.7841C85.7312 82.7962 82.7286 82.8206 79.7382 82.8327C77.8829 82.8449 76.0276 82.8571 74.1845 82.8693C73.2325 82.8693 72.2926 82.8814 71.3405 82.8814C70.9988 82.8814 70.657 82.8814 70.3153 82.8814C69.9491 83.1858 69.4852 83.3684 68.997 83.3928C69.0947 85.4258 69.1557 87.471 69.1923 89.5162C69.2411 92.4501 69.1923 95.384 69.1557 98.318C69.1435 99.0849 69.1312 99.8519 69.119 100.619C69.1068 101.021 69.1313 101.447 69.1313 101.873C69.2899 101.885 69.4364 101.897 69.5585 101.897L71.5847 101.885C76.8332 101.836 82.0817 101.788 87.3425 101.739Z" fill="#9C4DF4"/>
<path d="M200.906 83.1127C194.498 82.9423 188.078 83.0762 181.669 83.0884C175.322 83.1005 168.963 83.1005 162.616 83.1127C149.788 83.1249 136.959 83.1857 124.143 83.2466C120.567 83.2588 116.991 83.2831 113.414 83.2953C109.789 83.3075 106.115 83.2344 102.502 83.4901C102.038 83.5266 102.038 84.1718 102.502 84.1962C105.688 84.4153 108.922 84.3544 112.12 84.3788C115.331 84.4153 118.528 84.4153 121.739 84.4275C128.086 84.464 134.445 84.4883 140.792 84.5249C153.62 84.5857 166.449 84.5736 179.265 84.5979C186.479 84.6101 193.704 84.7684 200.906 84.5736C201.858 84.5614 201.858 83.137 200.906 83.1127Z" fill="#969696"/>
<path d="M156.147 90.0397C142.293 89.8815 128.44 89.7476 114.586 89.7476C110.631 89.7476 106.664 89.711 102.71 89.7719C101.953 89.7841 101.953 90.9406 102.71 90.9528C116.551 91.1719 130.417 90.965 144.271 90.8797C148.225 90.8554 152.192 90.7336 156.147 90.6849C156.562 90.6849 156.562 90.0519 156.147 90.0397Z" fill="#969696"/>
<path d="M198.684 97.4047C186.198 97.1734 173.699 97.356 161.212 97.3804C148.726 97.4047 136.227 97.4169 123.74 97.4412C116.685 97.4534 109.643 97.4656 102.588 97.5873C102.014 97.5995 102.014 98.4639 102.588 98.476C115.074 98.7073 127.573 98.6343 140.06 98.6465C152.546 98.6708 165.045 98.683 177.532 98.7073C184.587 98.7195 191.629 98.7804 198.684 98.6465C199.49 98.6465 199.49 97.4169 198.684 97.4047Z" fill="#969696"/>
<path d="M166.339 127.353C162.116 127.073 157.831 127.304 153.596 127.317C149.348 127.329 145.101 127.341 140.853 127.353C132.358 127.377 123.875 127.402 115.379 127.426C110.57 127.438 105.786 127.499 100.976 127.67C100.635 127.682 100.635 128.193 100.976 128.205C109.459 128.485 117.955 128.449 126.45 128.473C134.945 128.497 143.428 128.522 151.924 128.546C154.267 128.558 156.599 128.558 158.942 128.57C161.395 128.583 163.873 128.68 166.327 128.51C167.096 128.473 167.096 127.402 166.339 127.353Z" fill="#969696"/>
<path d="M192.057 137.129C180.217 136.788 168.353 136.922 156.513 136.897C144.783 136.873 133.066 136.861 121.336 136.824L111.339 136.8C108.019 136.788 104.663 136.642 101.343 136.897C100.537 136.958 100.537 138.09 101.343 138.151C104.297 138.383 107.275 138.261 110.229 138.261C113.195 138.249 116.148 138.249 119.114 138.236C125.034 138.224 130.966 138.212 136.886 138.2C148.616 138.176 160.334 138.163 172.064 138.139C178.728 138.127 185.392 138.127 192.057 137.932C192.569 137.908 192.569 137.141 192.057 137.129Z" fill="#969696"/>
<path d="M195.523 174.539C183.158 174.235 170.794 174.381 158.429 174.393C146.065 174.393 133.7 174.405 121.336 174.442C114.415 174.466 107.482 174.551 100.561 174.466C99.7556 174.454 99.7556 175.72 100.561 175.72C112.926 175.574 125.29 175.781 137.655 175.793C150.019 175.793 162.384 175.805 174.749 175.805C181.669 175.805 188.59 175.817 195.523 175.647C196.231 175.635 196.231 174.563 195.523 174.539Z" fill="#969696"/>
<path d="M120.555 181.064C114.012 181.064 107.482 181.198 100.952 181.259C100.488 181.259 100.488 181.965 100.952 181.965C107.482 182.026 114.024 182.16 120.555 182.16C121.275 182.172 121.275 181.064 120.555 181.064Z" fill="#969696"/>
<path d="M186.674 181.88C179.436 181.405 172.137 181.612 164.886 181.649C157.563 181.685 150.239 181.734 142.916 181.77C138.79 181.795 134.665 181.819 130.551 182.026C130.087 182.05 130.087 182.72 130.551 182.732C137.801 183.097 145.076 183 152.339 183.036C159.662 183.073 166.986 183.122 174.309 183.122C178.435 183.122 182.56 183.146 186.674 182.878C187.321 182.842 187.333 181.929 186.674 181.88Z" fill="#969696"/>
<path d="M158.613 189.05C151.374 188.673 144.075 188.953 136.837 188.977C129.648 189.001 122.434 188.977 115.245 189.233C111.132 189.379 106.994 189.33 102.881 189.342C102.466 189.342 102.466 189.987 102.881 189.987C117.344 190.06 131.796 190.328 146.26 190.389C150.386 190.401 154.511 190.499 158.625 190.28C159.406 190.243 159.406 189.099 158.613 189.05Z" fill="#969696"/>
<path d="M232.226 33.5163C225.245 32.9685 218.067 33.3946 211.061 33.3946C204.446 33.3946 197.83 33.4067 191.227 33.4067C177.776 33.4189 164.337 33.4189 150.886 33.4311C137.435 33.4433 123.997 33.4676 110.546 33.5285C96.9485 33.5893 83.0948 33.0172 69.5463 34.1859C66.5803 34.4415 66.5681 38.4711 69.5463 38.7389C83.0948 39.9076 96.9485 39.3354 110.546 39.3963C123.997 39.4572 137.435 39.4815 150.886 39.4937C164.337 39.5059 177.776 39.5059 191.227 39.518C197.842 39.518 204.458 39.5302 211.061 39.5302C218.067 39.5302 225.232 39.9563 232.226 39.4085C236.071 39.092 236.083 33.8207 232.226 33.5163Z" fill="black"/>
<path d="M199.673 50.4987C197.439 48.7335 195.67 49.05 192.838 49.05C190.201 49.05 187.565 49.05 184.928 49.05L168.45 49.0622C157.245 49.0744 146.04 49.0744 134.835 49.0865L101.88 49.1109C96.1672 49.1109 90.4549 49.1718 84.7425 49.2448C80.0066 49.3057 73.6595 48.3926 69.3631 50.5474C68.2279 51.1196 68.2279 52.9335 69.3631 53.5057C73.6717 55.6726 79.9944 54.7474 84.7425 54.8083C90.2352 54.8813 95.7278 54.93 101.22 54.9422C112.425 54.9544 123.63 54.9544 134.835 54.9665L167.791 54.9909C173.504 54.9909 179.216 55.0031 184.928 55.0031C187.565 55.0031 190.201 55.0031 192.838 55.0031C195.596 55.0031 197.464 55.2952 199.673 53.5544C200.54 52.8848 200.527 51.1804 199.673 50.4987Z" fill="black"/>
<path d="M148.75 143.763C146.834 143.227 145.308 141.097 144.527 139.332C143.697 137.445 143.856 134.974 145.443 133.659C146.456 132.819 147.859 132.6 149.178 132.734C153.267 133.184 156.416 136.848 157.539 140.805C158.662 144.749 158.186 148.961 157.71 153.04C157.356 156.022 157.002 159.005 156.648 161.987C155.964 167.782 156.733 173.845 156.733 179.688C156.733 180.419 156.757 181.174 157.111 181.807C157.771 182.975 159.26 183.304 160.59 183.511C166.974 184.534 173.541 185.763 180.034 185.532C185.246 185.349 188.224 183.803 192.972 187.48C195.572 189.488 197.562 192.617 197.232 195.88C197.049 197.633 196.219 199.276 195.096 200.652C190.665 206.045 182.756 206.775 175.762 206.605C167.511 206.398 159.272 205.521 151.155 203.987C142.916 202.417 137.167 198.302 136.471 189.598C135.812 181.356 138.388 173.127 140.634 165.299C142.721 158.019 146.797 151.311 148.665 144.092C148.702 143.958 148.726 143.861 148.75 143.763Z" fill="#FBC2AA"/>
<path d="M195.011 191.692C194.95 191.326 194.889 190.961 194.828 190.608C194.303 186.992 193.803 182.476 197.745 181.344C200.345 180.589 204.898 180.93 206.631 178.519C207.192 177.74 207.351 176.766 207.485 175.829C207.693 174.49 207.888 173.139 208.096 171.799C200.54 173.09 197.391 166.345 196.439 160.039C195.463 153.599 195.67 145.565 201.358 141.255C204.983 138.504 210.061 137.846 214.321 139.453C218.58 141.06 221.913 144.834 223.121 149.217C224.012 152.455 222.95 153.636 222.767 156.984C222.547 160.77 222.889 167.307 222.682 171.093C222.535 173.638 222.755 176.608 224.146 178.824C224.781 179.834 225.55 180.699 226.624 181.246C227.405 181.648 229.431 181.429 229.92 181.965C232.69 184.996 235.278 188.21 238.281 190.998C231.189 193.968 223.78 196.086 216.2 197.377C210.891 198.29 200.15 201.419 196.488 195.782C195.682 194.54 195.279 193.128 195.011 191.692Z" fill="#FBC2AA"/>
<path d="M257.822 209.526C257.065 200.189 252.867 190.62 244.335 185.946C241.198 184.229 237.743 183.194 234.277 182.379C232.495 181.952 230.688 181.587 228.906 181.186C226.905 180.735 226.502 181.21 225.135 182.707C222.315 185.824 217.86 187.212 213.673 186.773C211.025 186.506 208.474 185.544 206.203 184.18C203.738 182.695 202.871 180.869 199.747 181.039C190.287 181.575 180.84 182.427 171.429 183.596C172.125 191.777 172.674 203.366 174.383 211.389C179.363 210.89 190.372 209.794 190.36 211.304C190.348 213.605 190.397 215.918 190.47 218.219C190.629 222.711 190.909 227.203 191.093 231.695C191.288 236.467 191.642 241.239 192.069 245.987C192.557 251.405 193.387 256.725 194.596 261.984C206.899 266.074 220.936 265.076 234.131 263.883C237.89 263.542 241.796 263.165 245.055 261.253C254.209 255.872 254.6 239.949 255.906 230.685C256.919 223.551 258.408 216.843 257.822 209.526Z" fill="#FF6652"/>
<path d="M163.434 302.572C163.593 302.34 163.764 302.109 163.935 301.89C167.12 297.812 172.625 295.158 177.129 292.759C182.097 290.118 187.651 287.939 193.375 288.267C198.538 288.559 205.703 292.053 206.777 297.507C206.899 298.128 206.948 298.786 206.704 299.358C206.094 300.794 204.153 300.916 202.591 300.928C195.926 300.989 189.518 303.034 183.293 305.238C180.095 306.37 176.909 307.575 173.663 308.61C170.77 309.535 163.739 313.589 161.713 309.377C160.602 307.076 162.152 304.446 163.434 302.572Z" fill="black"/>
<path d="M134.543 247.813C137.24 244.843 141.073 242.919 145.003 242.177C150.52 241.142 156.22 242.14 161.64 243.638C173.113 246.791 183.867 252.099 195.389 255.057C200.503 256.372 203.836 255.885 208.828 255.483C215.163 254.972 221.668 255.592 228.04 255.215C233.996 254.862 240.441 254.399 246.019 256.043C246.752 255.556 247.484 255.081 248.216 254.594C254.441 250.516 260.654 246.462 268.466 247.947C274.605 249.116 280.537 252.22 284.333 257.26C288.374 262.617 287.165 269.617 283.54 274.961C280.537 279.38 276.107 282.643 271.517 285.382C255.686 294.853 238.391 300.66 219.703 299.37C217.201 299.199 214.259 299.163 212.453 301.172C211.782 301.926 211.379 306.053 209.878 305.871C208.022 305.652 204.458 305.14 202.713 304.507C193.265 301.111 183.83 297.702 174.383 294.305C166.083 291.311 157.734 288.304 150.179 283.763C143.636 279.843 137.716 274.535 134.25 267.657C131.748 262.702 129.697 256.177 132.309 251.027C132.919 249.846 133.664 248.775 134.543 247.813Z" fill="#9C4DF4"/>
<path d="M251.732 262.057C246.422 264.699 240.868 266.391 235.779 269.532C230.701 272.661 225.892 276.313 220.362 278.687C216.786 280.22 211.586 280.817 208.157 282.521" stroke="black" stroke-width="0.5" stroke-miterlimit="10"/>
<path d="M212.575 300.453C212.587 300.441 212.587 300.417 212.599 300.405C213.1 299.26 213.588 298.116 214.089 296.972C215.077 294.695 216.066 292.431 217.042 290.154C217.152 289.899 225.635 294.196 226.368 294.793C226.697 295.06 227.015 295.353 227.222 295.718C227.515 296.217 227.576 296.813 227.649 297.386C227.845 298.993 228.089 300.636 227.784 302.231C227.478 303.826 226.49 305.396 224.952 305.907C223.78 306.297 222.511 306.017 221.314 305.749C219.032 305.226 216.798 304.739 214.552 304.081C213.905 303.886 212.209 303.826 211.745 303.363C211.159 302.791 212.319 301.062 212.575 300.453Z" fill="#FBC2AA"/>
<path d="M222.023 291.895C222.645 291.98 223.292 292.005 223.963 291.944C225.33 291.834 226.673 291.445 228.04 291.469C230.762 291.518 231.946 293.636 233.081 295.779C235.083 299.565 238.696 302.328 241.625 305.372C245.299 309.182 247.423 312.773 246.825 318.227C246.617 320.151 245.836 322.354 243.969 322.878C242.248 323.365 240.551 322.159 239.172 321.027C235.425 317.959 231.665 314.904 227.918 311.836C226.209 310.436 224.464 308.573 222.523 307.526C221.29 306.869 219.886 306.382 218.605 305.737C219.984 301.184 221.144 296.57 222.023 291.895Z" fill="black"/>
<path d="M202.871 264.54C202.188 264.2 201.663 263.579 201.26 262.422C200.577 260.474 200.979 258.174 202.078 256.457C203.494 254.241 206.094 252.537 208.669 252.001C211.318 251.441 213.881 250.504 216.579 249.956C218.519 249.567 220.423 249.031 222.328 248.495C228.15 246.864 234.424 245.622 239.953 243.187C240.295 243.041 240.636 242.871 240.832 242.554C241.088 242.128 240.978 241.593 240.856 241.106C239.001 233.667 237.304 226.193 235.754 218.681C235.229 216.125 234.717 213.544 234.741 210.939C234.79 206.203 236.694 201.516 239.965 198.083C241.967 195.977 244.738 194.285 247.618 194.614C249.986 194.894 252.024 196.525 253.367 198.509C254.71 200.493 255.43 202.794 256.15 205.059C258.567 212.716 261.374 220.471 262.461 228.433C262.741 230.514 262.729 232.62 262.717 234.714C262.68 240.74 262.522 247.144 259.202 252.172C248.265 268.68 222.901 266.647 205.898 265.064C204.629 264.979 203.653 264.93 202.871 264.54Z" fill="#FBC2AA"/>
<path d="M207.68 136.312C204.604 136.775 201.651 138.017 199.173 140.038C196.414 142.29 195.548 144.676 194.974 148.206C194.937 148.438 194.913 148.693 195.047 148.888C195.194 149.095 195.487 149.144 195.743 149.18C200.137 149.704 204.556 150.081 208.986 150.312C209.475 150.337 209.975 150.361 210.427 150.179C211.55 149.728 211.989 148.206 213.136 147.817C213.295 149.29 213.185 150.799 212.831 152.236C212.673 152.869 212.465 153.539 212.673 154.159C213.088 155.413 214.565 155.389 215.517 155.961C216.701 156.667 217.848 158.104 218.3 159.394C218.898 161.099 219.166 162.961 220.216 164.471C220.484 164.86 220.802 165.213 221.107 165.566C221.681 166.224 222.242 166.881 222.816 167.539C223.17 167.271 223.341 166.845 223.487 166.443C224.683 163.229 225.953 160.039 226.709 156.704C227.393 153.709 227.368 150.519 226.587 147.549C226.246 146.21 225.623 144.859 225.001 143.629C224.659 142.947 224.207 142.229 223.768 141.596C223.633 141.401 222.315 139.685 222.083 139.831C222.376 139.636 222.742 139.271 222.608 138.881C222.45 138.419 221.375 138.747 221.082 138.906C221.253 138.638 221.497 138.406 221.668 138.139C221.839 137.871 221.949 137.518 221.815 137.226C221.729 137.043 221.558 136.909 221.375 136.812C220.899 136.58 220.326 136.641 219.874 136.897C219.398 137.165 218.995 137.652 218.885 138.175C215.272 136.592 211.672 135.716 207.68 136.312Z" fill="black"/>
<path d="M160.261 252.878C170.892 257.674 179.448 266.001 189.115 272.502C198.148 278.565 208.156 283.02 218.104 287.452C217.579 288.584 217.372 289.716 216.859 290.848" stroke="black" stroke-width="0.5" stroke-miterlimit="10"/>
<path d="M205.667 162.389C205.032 164.458 202.493 165.712 200.467 164.97" stroke="#1C1C1B" stroke-width="0.5" stroke-miterlimit="10"/>
<path d="M216.395 161.78C220.313 162.754 222.755 158.639 221.558 155.949C219.898 152.212 214.65 152.832 213.686 156.765" fill="#FBC2AA"/>
<path d="M218.397 155.645C217.665 155.438 216.81 155.559 216.188 155.961C215.565 156.363 215.211 157.02 215.236 157.665" stroke="#1C1C1B" stroke-width="0.5" stroke-miterlimit="10"/>
<path d="M247.569 189.987C240.416 190.742 233.862 195.697 231.213 202.381C228.467 209.32 229.834 217.111 231.238 224.44C235.852 224.306 239.928 224.622 244.518 223.721C250.474 222.553 256.26 220.714 261.862 218.45C260.202 207.847 257.126 197.681 249.534 190.036C248.802 189.281 248.619 189.878 247.569 189.987Z" fill="#FF6652"/>
<path d="M166.925 121.412C160.993 124.005 155.623 127.353 150.533 131.346C148.067 133.281 145.736 135.46 143.539 137.688C142.367 138.881 141.256 140.147 140.158 141.401C139.926 140.707 139.694 140.026 139.462 139.344C138.717 137.128 137.875 134.973 136.948 132.831C136.081 130.798 135.129 128.801 134.104 126.841C133.03 124.784 131.992 122.033 129.795 120.998C128.281 120.28 126.927 121.18 126.719 122.763C126.414 125.1 128.269 127.267 129.319 129.239C130.356 131.199 131.321 133.184 132.2 135.217C133.005 137.055 133.75 138.991 134.421 140.914C135.153 142.996 135.666 145.175 136.435 147.233C137.192 149.253 139.828 149.753 141.061 147.829C142.66 145.321 144.906 143.045 146.944 140.878C149.031 138.662 151.216 136.568 153.45 134.499C157.954 130.323 162.751 126.403 167.719 122.787C168.561 122.179 167.865 120.998 166.925 121.412Z" fill="#9C4DF4"/>
<path d="M236.157 270.372H175.896C175.017 270.372 174.297 269.653 174.297 268.777C174.297 267.9 175.017 267.182 175.896 267.182H236.157C237.035 267.182 237.756 267.9 237.756 268.777C237.756 269.653 237.035 270.372 236.157 270.372Z" fill="black"/>
<path d="M227.222 268.205H174.48L163.531 241.227C163.177 240.351 163.824 239.389 164.776 239.389H214.625C215.174 239.389 215.663 239.718 215.87 240.229L227.222 268.205Z" fill="black"/>
<path d="M189.823 253.815C190.385 255.276 192.277 256.457 194.046 256.457C195.816 256.457 196.805 255.276 196.243 253.815C195.682 252.354 193.79 251.173 192.02 251.173C190.25 251.173 189.262 252.354 189.823 253.815Z" stroke="white" stroke-width="0.5" stroke-miterlimit="10"/>
<path d="M207.705 171.641C207.803 172.652 207.717 173.662 207.619 174.66C207.681 174.648 207.754 174.624 207.815 174.612C209.89 173.966 211.599 172.286 212.477 170.302C211.025 171.105 209.377 171.556 207.705 171.641Z" fill="black"/>
<path d="M148.848 143.921C146.565 142.363 144.259 140.792 142.416 138.747C142.037 138.333 141.683 137.871 141.586 137.323C141.488 136.775 141.769 136.13 142.306 135.984C142.904 135.825 143.453 136.325 143.917 136.751C145.662 138.37 147.969 139.405 150.349 139.624" fill="white"/>
<path d="M148.848 143.921C146.565 142.363 144.259 140.792 142.416 138.747C142.037 138.333 141.683 137.871 141.586 137.323C141.488 136.775 141.769 136.13 142.306 135.984C142.904 135.825 143.453 136.325 143.917 136.751C145.662 138.37 147.969 139.405 150.349 139.624" stroke="#1C1C1B" stroke-width="0.5" stroke-miterlimit="10"/>
<path d="M228.479 312.907C228.577 312.846 228.674 312.773 228.772 312.7C228.882 312.615 229.004 312.566 229.126 312.506C229.37 312.396 229.602 312.286 229.846 312.189C229.749 312.238 229.639 312.274 229.541 312.323C229.993 312.128 230.432 311.885 230.823 311.593C230.92 311.519 231.006 311.446 231.103 311.361C231.262 311.215 231.421 311.081 231.64 311.02C232.031 310.899 232.519 311.093 232.727 311.446C232.91 311.763 232.898 312.116 232.739 312.433C232.702 312.506 232.654 312.566 232.617 312.639C232.532 312.773 232.446 312.907 232.348 313.029C232.104 313.358 231.848 313.674 231.555 313.954C231.262 314.246 230.945 314.514 230.591 314.721C230.371 314.855 230.139 315.001 229.883 315.05C229.627 315.111 229.358 315.135 229.102 315.159C228.992 315.147 228.882 315.135 228.784 315.111C228.626 315.074 228.491 315.001 228.369 314.892C228.174 314.733 227.991 314.514 227.93 314.259C227.796 313.723 228.015 313.212 228.479 312.907Z" fill="#FF6652"/>
<path d="M225.562 309.56C225.623 309.353 225.733 309.17 225.879 309.012C226.148 308.707 226.429 308.403 226.697 308.087C226.819 307.953 226.954 307.867 227.124 307.819C227.283 307.734 227.454 307.697 227.637 307.709C227.82 307.697 227.991 307.746 228.15 307.819C228.308 307.867 228.455 307.965 228.577 308.087C228.65 308.172 228.711 308.269 228.784 308.354C228.907 308.561 228.968 308.78 228.968 309.012C228.955 309.134 228.931 309.243 228.919 309.365C228.858 309.584 228.748 309.779 228.577 309.949C228.272 310.229 227.967 310.497 227.649 310.765C227.539 310.887 227.405 310.972 227.246 311.02C227.1 311.094 226.941 311.13 226.77 311.13C226.6 311.142 226.441 311.106 226.294 311.02C226.136 310.972 226.002 310.887 225.892 310.765C225.831 310.68 225.757 310.594 225.696 310.509C225.587 310.314 225.525 310.107 225.525 309.876C225.525 309.779 225.538 309.669 225.562 309.56Z" fill="#FF6652"/>
<path d="M221.949 306.382C222.145 306.09 222.34 305.798 222.535 305.505C222.608 305.371 222.718 305.25 222.84 305.177C222.95 305.067 223.097 305.006 223.243 304.958C223.402 304.909 223.561 304.897 223.719 304.933C223.878 304.945 224.024 304.982 224.159 305.079C224.244 305.14 224.317 305.201 224.403 305.262C224.549 305.408 224.659 305.591 224.708 305.785C224.72 305.895 224.732 305.992 224.757 306.102C224.757 306.321 224.696 306.516 224.598 306.698C224.403 306.991 224.207 307.283 224.012 307.575C223.939 307.709 223.829 307.831 223.707 307.904C223.597 308.013 223.451 308.074 223.304 308.123C223.146 308.171 222.987 308.184 222.828 308.147C222.669 308.135 222.523 308.098 222.389 308.001C222.303 307.94 222.23 307.879 222.145 307.818C221.998 307.672 221.888 307.49 221.839 307.295C221.827 307.185 221.815 307.088 221.803 306.978C221.778 306.771 221.839 306.565 221.949 306.382Z" fill="#FF6652"/>
<path d="M179.485 303.57C179.558 303.314 179.753 303.047 179.985 302.925C180.242 302.791 180.547 302.73 180.827 302.815C180.913 302.852 180.998 302.888 181.084 302.925C181.242 303.022 181.377 303.156 181.474 303.314C181.657 303.558 181.853 303.801 182.036 304.045C182.133 304.166 182.243 304.276 182.341 304.386C182.39 304.434 182.439 304.483 182.475 304.532C182.561 304.617 182.646 304.714 182.707 304.824C182.768 304.921 182.817 305.055 182.854 305.165C182.939 305.433 183.012 305.7 183.098 305.968C183.195 306.297 183.061 306.65 182.793 306.857C182.536 307.052 182.146 307.1 181.853 306.918C181.657 306.796 181.474 306.674 181.279 306.553C181.23 306.516 181.181 306.492 181.133 306.455C180.937 306.321 180.779 306.175 180.657 305.968C180.583 305.859 180.522 305.749 180.449 305.64C180.193 305.213 179.875 304.824 179.582 304.422C179.436 304.191 179.424 303.813 179.485 303.57Z" fill="#FF6652"/>
<path d="M184.148 301.975C184.221 301.719 184.416 301.452 184.648 301.33C185.026 301.123 185.503 300.965 185.771 301.378C186.198 302.048 186.625 302.718 187.065 303.387C187.407 303.923 187.761 304.544 187.553 305.14C187.492 305.335 187.358 305.518 187.162 305.615C186.894 305.737 186.577 305.652 186.308 305.505C185.844 305.25 185.588 304.799 185.307 304.361C185.234 304.252 185.173 304.142 185.1 304.032C184.843 303.606 184.526 303.217 184.233 302.815C184.099 302.596 184.074 302.218 184.148 301.975Z" fill="#FF6652"/>
<path d="M175.201 305.396C175.249 305.238 175.347 305.092 175.469 304.982C175.713 304.751 176.043 304.593 176.385 304.605C176.714 304.617 177.08 304.727 177.3 304.982C177.788 305.567 178.276 306.139 178.753 306.723C178.875 306.845 178.972 306.979 179.021 307.137C179.106 307.295 179.143 307.453 179.131 307.636C179.143 307.819 179.094 307.977 179.021 308.135C178.972 308.293 178.875 308.44 178.753 308.549C178.508 308.78 178.179 308.939 177.837 308.927C177.508 308.914 177.141 308.805 176.922 308.549C176.433 307.965 175.945 307.393 175.469 306.808C175.347 306.687 175.249 306.553 175.201 306.394C175.115 306.236 175.079 306.078 175.091 305.895C175.079 305.713 175.115 305.554 175.201 305.396Z" fill="#FF6652"/>
<path d="M282.295 263.067C281.734 264.187 282.027 265.587 281.49 266.72C281.099 267.56 280.318 268.144 279.781 268.911C278.951 270.104 278.817 271.784 279.61 273.001C280.391 274.219 282.112 274.791 283.418 274.146C284.456 273.634 285.054 272.514 285.469 271.431C286.323 269.191 287.226 265.685 286.494 263.299C285.884 261.363 283.345 260.949 282.295 263.067Z" fill="black"/>
<path d="M132.663 254.728C133.603 253.973 134.994 253.791 136.081 254.351C137.155 254.911 137.826 256.189 137.594 257.37C137.472 258.015 137.106 258.624 137.082 259.281C137.045 260.121 137.558 260.888 137.826 261.692C138.229 262.885 138.058 264.297 137.216 265.222C136.374 266.159 134.848 266.464 133.798 265.782C132.687 265.051 132.407 263.578 132.199 262.264C131.833 259.902 130.38 256.554 132.663 254.728Z" fill="black"/>
<path d="M192.435 208.589C192.325 208.48 192.105 208.456 191.996 208.589C191.703 208.955 191.385 209.32 191.117 209.697C190.983 209.88 190.848 210.063 190.714 210.245C190.58 210.428 190.421 210.61 190.299 210.817C190.153 211.061 190.482 211.304 190.69 211.109C190.848 210.951 190.995 210.769 191.141 210.598C191.288 210.428 191.434 210.257 191.581 210.087C191.886 209.746 192.154 209.381 192.435 209.028C192.533 208.894 192.557 208.723 192.435 208.589Z" fill="black"/>
<path d="M238.183 224.208C237.255 224.22 236.352 224.403 235.485 224.72C235.217 222.881 234.948 221.055 234.667 219.217C234.374 217.281 234.02 215.346 233.752 213.398C233.74 213.3 233.569 213.325 233.581 213.422C233.801 215.407 233.935 217.391 234.167 219.375C234.399 221.323 234.655 223.271 234.924 225.219C234.948 225.377 235.168 225.487 235.302 225.438C236.218 225.06 237.17 224.866 238.17 224.841C238.598 224.829 238.598 224.208 238.183 224.208Z" fill="black"/>
<path d="M105.212 286.721C103.467 289.96 99.756 291.53 96.3506 292.321C95.3253 292.565 94.2878 292.747 93.2503 292.942C92.4325 293.088 91.5659 293.186 90.7847 293.49C89.0026 294.172 90.9556 295.267 91.8588 295.669C92.3959 295.913 92.5302 296.692 92.2494 297.167C91.9199 297.702 91.2974 297.8 90.7481 297.556C90.0036 297.215 89.1858 296.716 88.6121 296.071L87.4525 299.967H69.9493L68.5822 275.278L94.9714 274.84L94.2756 277.165C97.1928 276.325 100.781 276.008 103.393 277.761C106.347 279.758 106.835 283.69 105.212 286.721ZM102.209 279.758C99.7805 278.054 96.2285 278.699 93.6165 279.551C93.5921 279.563 93.5677 279.575 93.5432 279.575L89.9914 291.445C90.6017 291.214 91.273 291.055 91.871 290.934C95.2887 290.24 99.158 289.753 101.807 287.245C103.796 285.37 104.87 281.633 102.209 279.758Z" fill="#9C4DF4"/>
<path d="M89.9058 280.951C89.3566 282.874 88.8073 284.786 88.3313 286.721C88.2337 287.111 88.8073 287.257 88.9294 286.88C89.5519 284.981 90.1011 283.057 90.6504 281.146C90.7846 280.683 90.0401 280.488 89.9058 280.951Z" fill="black"/>
<path d="M87.4282 290.203C87.1475 291.165 86.8667 292.115 86.586 293.076C86.3053 294.038 86.0978 295.012 85.8537 295.974C85.756 296.375 86.3419 296.534 86.464 296.144C86.7691 295.195 87.1109 294.245 87.3794 293.295L88.185 290.41C88.3193 289.923 87.5625 289.716 87.4282 290.203Z" fill="black"/>
<path d="M86.4152 287.44C86.3175 287.415 86.1832 287.464 86.1588 287.586C86.0856 288 86.0246 288.414 85.9513 288.815C85.9391 288.925 85.9758 289.047 86.0978 289.071C86.1955 289.095 86.3298 289.047 86.3542 288.925C86.4274 288.511 86.4884 288.097 86.5616 287.695C86.5739 287.586 86.525 287.464 86.4152 287.44Z" fill="black"/>
<path d="M258.628 245.646C258.469 247.911 257.419 250.017 255.869 251.648C255.686 251.843 255.967 252.111 256.162 251.94C257.932 250.346 258.909 248.02 258.982 245.646C258.982 245.415 258.64 245.427 258.628 245.646Z" fill="black"/>
<path d="M143.831 195.916C142.891 195.49 141.952 195.052 141.012 194.638C140.816 194.553 140.633 194.845 140.841 194.93C141.781 195.368 142.721 195.782 143.66 196.208C143.856 196.294 144.039 196.001 143.831 195.916Z" fill="black"/>
<path d="M81.8865 224.123C79.4331 227.215 76.4427 229.845 73.794 232.767C70.9866 235.859 68.8262 239.474 66.0189 242.567C63.5777 245.269 60.6605 247.546 57.4625 249.287C55.2044 250.516 49.9437 253.474 47.2584 252.817C42.0587 251.527 45.9524 242.798 47.588 239.925C49.5409 236.48 52.2872 233.497 55.1922 230.831C58.2315 228.055 61.5271 225.584 64.7983 223.1C68.4722 220.3 72.134 217.513 75.808 214.713C76.699 214.043 77.5657 213.337 78.4811 212.692C79.2379 212.156 80.0679 211.718 80.9955 211.608C82.5945 211.438 84.047 212.485 84.816 213.824C86.8299 217.342 84.0347 221.42 81.8865 224.123Z" fill="#9C4DF4"/>
<path d="M26.2522 229.711C26.9968 225.718 28.6201 221.944 29.5478 218C30.7806 212.765 30.7806 207.323 31.7448 202.04C32.7091 196.756 34.8818 191.339 39.2759 188.247C40.4965 187.394 41.8879 186.725 43.3649 186.615C46.0379 186.408 48.589 188.064 50.1025 190.28C51.6038 192.483 52.2263 195.174 52.5925 197.827C54.045 208.26 51.9944 219.156 46.8314 228.347C45.2202 231.22 43.316 233.923 41.9124 236.894C40.0449 240.826 39.0684 245.16 38.8731 249.506C38.7877 251.393 38.8242 253.365 37.9942 255.069C37.2009 256.725 34.2959 259.245 32.2941 258.186C30.5121 257.236 29.2793 251.648 28.6446 249.847C26.4109 243.419 24.9828 236.504 26.2522 229.711Z" fill="#9C4DF4"/>
<path d="M8.74887 229.638C8.38269 227.69 8.07754 225.45 9.35916 223.94C11.129 221.846 14.6931 222.711 16.6095 224.671C18.8187 226.923 19.7341 230.149 20.0149 233.29C20.2956 236.431 20.0393 239.596 20.2834 242.725C20.6618 247.533 22.2242 252.147 23.2372 256.859C24.1649 261.144 22.4073 264.066 19.2215 259.829C17.0611 256.968 15.4377 253.657 14.1073 250.346C11.4586 243.699 10.0793 236.626 8.74887 229.638Z" fill="#9C4DF4"/>
<path d="M68.4844 226.655C67.5202 228.408 66.4338 230.052 65.14 231.573C63.8462 233.083 62.418 234.483 60.9533 235.834C58.0117 238.537 54.8382 240.996 52.0431 243.857C50.7004 245.233 49.4432 246.693 48.3691 248.288C47.1119 250.151 46.1842 252.184 45.4763 254.314C44.6341 256.834 43.9994 259.427 43.3037 261.996C42.5713 264.674 41.839 267.365 41.1066 270.043C40.3132 272.965 39.5198 275.874 38.8851 278.833C38.58 280.269 38.3114 281.718 38.0917 283.179C37.9941 283.86 37.9208 284.554 37.8476 285.248C37.811 285.626 37.7866 285.991 37.7621 286.368C37.7499 286.514 37.75 286.66 37.75 286.806C37.7866 286.466 37.8476 286.125 37.8842 285.808C37.9819 285.041 38.0918 284.274 38.2138 283.507C38.4213 282.205 38.6776 280.914 38.9584 279.636C39.532 277.055 40.24 274.523 40.9479 271.979C42.4004 266.756 43.7797 261.509 45.3176 256.323C46.0133 253.986 46.8434 251.685 48.1128 249.579C49.1259 247.911 50.3464 246.389 51.6769 244.965C54.3988 242.067 57.5235 239.596 60.5262 236.991C63.7973 234.142 67.215 231.001 69.1435 227.045C69.351 226.594 68.7285 226.217 68.4844 226.655Z" fill="#1C1C1B"/>
<path d="M37.7135 287.403C37.7379 287.208 37.7379 287.001 37.7501 286.794C37.7135 287.001 37.7013 287.208 37.7135 287.403Z" fill="#1C1C1B"/>
<path d="M37.7258 287.768C37.7136 287.647 37.7136 287.525 37.7136 287.403C37.7014 287.525 37.677 287.647 37.6526 287.756C37.6281 287.817 37.7258 287.817 37.7258 287.768Z" fill="#1C1C1B"/>
<path d="M36.1632 235.068C36.5172 230.405 37.3473 225.767 38.9584 221.36C39.0073 221.226 38.7998 221.165 38.751 221.299C35.7849 229.09 35.3455 237.478 35.4431 245.732C35.492 249.981 35.675 254.229 35.7116 258.478C35.7605 262.885 35.6018 267.28 35.2234 271.662C34.8206 276.301 34.2348 280.915 33.6245 285.528C28.5346 274.779 23.8841 263.822 19.7585 252.671C18.5501 249.396 17.3784 246.097 16.2554 242.786C16.109 242.36 15.4376 242.542 15.5719 242.968C19.5266 254.704 24.0306 266.257 29.0838 277.567C30.5119 280.756 31.9766 283.921 33.5024 287.075C33.6855 287.464 34.1859 287.208 34.2225 286.88C35.3577 278.005 36.4196 269.118 36.3586 260.158C36.2975 251.819 35.5285 243.443 36.1632 235.068Z" fill="#1C1C1B"/>
<path d="M19.4291 273.294C21.3821 282.266 22.7125 291.664 21.3088 300.697C24.4579 300.709 40.3378 300.795 45.4521 300.746C45.3911 299.955 45.33 299.175 45.2934 298.384C45.0005 292.784 45.3666 287.148 47.0388 281.767C47.4416 280.464 48.2839 276.228 48.8209 274.962L48.7233 273.294H19.4291Z" fill="#FF6652"/>
<path d="M49.9438 268.315L18.538 268.363C18.2695 268.363 18.0133 268.388 17.7569 268.436V275.68C18.0133 275.728 18.2695 275.753 18.538 275.753L49.2847 275.692L49.9438 268.315Z" fill="#1A0400"/>
<path d="M44.2437 279.308C43.8043 279.819 43.4625 280.464 43.1574 281.061C42.8522 281.657 42.5959 282.29 42.3517 282.923C41.8635 284.226 41.5706 285.541 41.4363 286.916C41.3875 287.488 42.3518 287.635 42.4616 287.05C42.6935 285.784 42.9986 284.506 43.4136 283.276C43.6211 282.668 43.8653 282.071 44.1338 281.475C44.3901 280.89 44.7197 280.318 44.9638 279.722C45.1225 279.332 44.5122 278.991 44.2437 279.308Z" fill="#1C1C1B"/>
<path d="M42.022 290.544C42.0342 290.13 41.3873 290.13 41.3751 290.544C41.3018 292.638 40.8991 294.707 40.9601 296.813C40.9845 297.483 41.9121 297.446 41.9731 296.813C42.2051 294.72 41.9488 292.638 42.022 290.544Z" fill="#1C1C1B"/>
<path d="M39.9836 298.908C37.811 298.554 35.5774 298.445 33.3925 298.713C32.6602 298.798 32.7944 299.808 33.5268 299.711C35.6384 299.431 37.7744 299.37 39.8861 299.614C40.2888 299.662 40.3864 298.968 39.9836 298.908Z" fill="#1C1C1B"/>
<path d="M295.575 207.299C293.378 208.273 290.619 210.087 290.29 212.68C290.192 213.447 288.996 213.788 288.813 212.875C288.532 211.487 287.91 210.221 286.884 209.222C285.822 208.175 284.394 207.725 283.247 206.788C282.893 206.495 283.088 205.826 283.528 205.741C285.774 205.302 288.19 204.073 289.191 201.979C289.081 201.601 288.996 201.2 288.959 200.786C288.911 200.226 289.423 199.763 289.936 199.678C290.51 199.593 290.986 199.958 291.169 200.481C291.657 201.906 292.353 203.16 293.219 204.328C293.952 204.961 294.782 205.509 295.563 206.045C295.966 206.337 296.112 207.068 295.575 207.299Z" fill="#D9E0FC"/>
<path d="M303.948 221.567C303.423 221.056 302.862 220.569 302.313 220.094C302.606 219.948 302.911 219.789 303.204 219.631C303.594 219.412 303.753 218.852 303.509 218.475C303.24 218.049 302.789 217.988 302.349 218.17C302.215 218.231 302.081 218.292 301.959 218.353C302.117 217.379 302.288 216.393 302.508 215.419C302.679 214.652 301.519 214.323 301.324 215.09C301.043 216.21 300.726 217.33 300.421 218.438C299.896 217.988 299.371 217.525 298.846 217.075C298.565 216.831 298.15 216.807 297.882 217.075C297.613 217.342 297.626 217.769 297.882 218.036C298.382 218.572 298.883 219.108 299.371 219.656C299.127 219.789 298.871 219.923 298.639 220.082C298.248 220.325 297.821 220.52 297.406 220.727C297.04 220.909 296.93 221.433 297.125 221.774C297.345 222.151 297.796 222.236 298.175 222.042C298.553 221.847 298.944 221.628 299.334 221.482C299.456 221.433 299.566 221.384 299.676 221.336C299.615 221.579 299.554 221.823 299.505 222.054C299.31 222.869 299.017 223.709 298.98 224.549C298.932 225.73 300.677 225.913 301.007 224.817C301.226 224.063 301.226 223.235 301.324 222.456C301.348 222.261 301.385 222.066 301.409 221.859C301.763 222.236 302.129 222.614 302.508 222.991C302.886 223.356 303.57 223.405 303.948 222.991C304.314 222.602 304.351 221.956 303.948 221.567Z" fill="#D9E0FC"/>
<path d="M28.2663 54.65C26.6673 53.944 25.4834 52.6779 24.8609 51.0587C24.6412 50.4744 23.8478 50.4379 23.6403 51.0587C23.3718 51.8501 22.9079 52.5561 22.383 53.1892C22.3586 53.2257 22.3342 53.2622 22.3098 53.2866C21.8338 53.6883 21.2845 54.0292 20.6864 54.224C20.2958 54.3457 20.2714 54.93 20.6864 55.0396C21.5042 55.2587 22.2121 55.5874 22.8102 56.1961C23.3839 56.7926 23.7501 57.5231 23.8843 58.3266C23.9942 58.9839 24.9951 58.704 24.8975 58.0466C24.7876 57.3526 25.52 56.8413 26.0448 56.5613C26.765 56.1718 27.534 55.8431 28.2907 55.5022C28.5959 55.3683 28.5958 54.7961 28.2663 54.65Z" fill="#D9E0FC"/>
<path d="M20.0393 37.7163C20.4177 37.8746 20.9059 38.2033 20.735 38.5685C20.6374 38.7754 20.3932 38.8485 20.1735 38.9094C17.8788 39.4694 13.6434 40.3459 13.7899 43.5354C13.8143 44.2172 12.789 44.3268 12.6181 43.6937C12.02 41.3563 10.5919 39.2381 8.41925 38.1181C7.93101 37.8624 8.19957 37.1928 8.6756 37.1563C9.89618 37.0711 11.0557 36.572 11.9833 35.7928C13.0941 34.8676 13.3748 34.3441 13.6555 32.9807C13.7654 32.4328 14.0828 31.8607 14.6321 31.7268C14.7297 31.7024 14.8518 31.6902 14.9494 31.7389C15.1447 31.812 15.2301 32.0433 15.2912 32.2381C16.0479 34.4294 17.5126 36.4502 19.5632 37.5094C19.7341 37.5702 19.8806 37.6433 20.0393 37.7163Z" fill="#D9E0FC"/>
<path d="M268.441 71.0486C267.867 70.6956 266.879 70.5982 266.476 70.0382C265.756 69.0156 267.514 69.0521 268.002 68.9182C268.905 68.6747 269.637 67.9808 270.126 67.1773C270.614 66.3738 270.882 65.4608 271.139 64.5599C271.749 64.8886 271.871 65.6678 272.127 66.313C272.567 67.4086 273.568 68.2121 274.703 68.5043C275.106 68.6017 277.29 69.0764 275.777 69.8556C274.764 70.3669 273.616 70.8051 272.786 71.6086C272.262 72.1199 271.48 74.5669 270.882 74.4695C270.614 74.433 270.419 74.2139 270.296 73.9704C270.187 73.7269 270.138 73.4591 270.065 73.2034C269.93 72.7408 269.711 72.3026 269.405 71.9252C269.149 71.5843 268.82 71.2921 268.441 71.0486Z" fill="#D9E0FC"/>
<path d="M11.5685 76.0275C9.04193 76.8431 7.63828 79.3022 7.01578 81.7127C6.83269 82.3944 5.72193 82.2605 5.77076 81.5422C5.84399 80.264 5.36796 79.0466 4.55017 78.0727C3.5737 76.904 2.38972 76.5509 1.03487 75.9422C0.839574 75.857 0.607656 75.7353 0.571038 75.5162C0.534421 75.3092 0.705303 75.1144 0.876185 74.9927C1.44986 74.6031 2.19444 74.6396 2.87797 74.5057C4.51356 74.2014 5.89281 72.8257 6.22237 71.2066C6.2956 70.8657 6.32003 70.5005 6.4665 70.184C6.61297 69.8675 6.94252 69.5996 7.29649 69.6483C7.7237 69.7092 7.94336 70.1718 8.08983 70.5736C8.38277 71.3892 8.5781 72.1562 9.2006 72.777C9.94516 73.5196 10.8484 74.104 11.7516 74.6153C12.3497 74.9562 12.1788 75.8327 11.5685 76.0275Z" fill="#D9E0FC"/>
</svg>
